<?xml version="1.0" encoding="UTF-8"?>
<svg id="Layer_1" xmlns="http://www.w3.org/2000/svg" version="1.1" viewBox="0 0 72 72">
  <!-- Generator: Adobe Illustrator 29.5.1, SVG Export Plug-In . SVG Version: 2.1.0 Build 141)  -->
  <defs>
    <style>
      .st0 {
        fill: #31b7de;
      }
    </style>
  </defs>
  <g id="sIEpXI">
    <g>
      <path class="st0" d="M40.4,3.8c.1.2.2.4.3.7.4,1.1.9,2.2,1.3,3.3.1.3.3.4.6.3.6-.2,1.3-.4,1.9-.5.1,0,.3,0,.3,0,0,0,0,.2,0,.3-.3.9-.7,1.8-1,2.7-.3.9-.7,1.7-1,2.6,0,.1-.2.3,0,.4.2.1.3,0,.4-.1.9-.7,1.9-1.4,2.8-2.1,0,0,.2-.1.3-.1.2,0,.2.2.2.4,0,.3,0,.7,0,1,0,.1,0,.2.2.2.4,0,.7,0,1.1,0,.6,0,1.2,0,1.9-.1.3,0,.5.2.3.5-.4,1-.9,2-1.3,3-.3.7-.3.6.3,1,.1.1.3.2.4.3.2.2.2.4,0,.5-1.3.7-2.6,1.5-3.9,2.2-.6.4-1.2.7-1.9,1.1-.2.1-.3.3-.2.6,0,.4,0,.9.1,1.3,0,0,0,.2,0,.3,0,.3-.2.4-.5.3-.7-.3-1.3-.6-2-.8-.9-.4-1.8-.7-2.7-1.1-.2,0-.4,0-.4.2,0,.4,0,.8-.1,1.3,0,.5,0,1-.1,1.4,0,.3,0,.6,0,.8,0,.1,0,.2,0,.3,0,.3-.2.4-.4.3-.2,0-.5,0-.7-.1-.3,0-.4-.2-.3-.4.1-.6.3-1.2.4-1.8,0-.4.2-.8.2-1.2,0-.3.1-.5.2-.8,0-.3,0-.4-.4-.4-.7,0-1.5.1-2.2.2-.9,0-1.8.1-2.7.2,0,0-.2,0-.2,0-.2,0-.3-.1-.2-.3,0-.2.2-.5.3-.7.1-.3.2-.5.3-.8.1-.3,0-.5-.1-.7-.8-.8-1.6-1.7-2.4-2.6-.7-.7-1.4-1.4-2-2.2-.3-.3-.2-.5.1-.6.3-.1.5-.2.8-.3.2,0,.3-.2.3-.5-.1-1.1-.2-2.2-.3-3.3,0-.1,0-.3,0-.4,0-.2.1-.3.3-.3,0,0,.2,0,.3,0,.7.3,1.3.5,2,.8.2,0,.4.1.6.2.2,0,.3,0,.4-.2,0-.3.2-.5.3-.8,0-.1,0-.3.3-.3.2,0,.3.1.3.2.7.9,1.4,1.9,2.1,2.8,0,0,.1.3.3.2.2,0,.2-.2.1-.4-.1-1.4-.2-2.8-.3-4.2,0-.5,0-.9,0-1.4,0-.4.2-.5.5-.3.3.1.5.3.8.5.3.2.5.4.8.6.3.2.4.2.6,0,.9-1,1.7-2.1,2.6-3.1,0,0,.2-.1.3-.2,0,0,0,0,.1,0Z"/>
      <path class="st0" d="M4,30.2c.3,0,.6,0,.9,0,.7,0,1.4.1,2.1.2,1.1.1,2.1.7,2.4,2,.2,1.1-.3,2.4-1.5,2.8-.3.1-.3.1-.2.4.3.8.6,1.7,1,2.5,0,.3,0,.3-.2.3-.5,0-1-.1-1.5-.2-.2,0-.3-.1-.4-.3-.2-.7-.4-1.3-.6-2,0,0,0-.2,0-.3-.1-.3-.4-.4-.7-.3,0,0-.1.1-.1.2-.1.7-.2,1.4-.3,2.1,0,.4,0,.4-.4.3-.5,0-1-.1-1.5-.2.4-2.5.8-5.1,1.2-7.6ZM5.5,32.9c0,.2,0,.5-.1.7,0,.3,0,.3.3.3.3,0,.5,0,.8,0,.7.1,1.3-.6,1.1-1.4,0-.2-.2-.4-.5-.5-.4,0-.7-.1-1.1-.2-.2,0-.3,0-.3.2,0,.3,0,.5-.1.8Z"/>
      <path class="st0" d="M40.7,50.2c-.3.2-.7.4-1.1.6-.6.3-1.2.5-1.9.4-.9-.1-1.4-.5-1.5-1.5,0,0,0-.1,0-.2-.4.2-.8.5-1.1.7-.5.3-1,.4-1.6.5-.5,0-1,0-1.5-.3-.4-.3-.6-.7-.6-1.2,0-.7.2-1.3.5-1.9.5-.8,1-1.5,1.8-2,.6-.4,1.2-.7,2-.6.6,0,1.2.5,1.2,1,0,.5,0,1-.4,1.3-.8.9-1.8,1.3-3,1.3-.4,0-.4,0-.5.4,0,0,0,.2,0,.3,0,.4.2.7.6.7.7,0,1.3-.3,1.8-.6.2-.1.4-.3.7-.5.3-.2.5-.5.6-.8.4-.8.9-1.4,1.6-2,.5-.4,1.1-.7,1.8-.7.4,0,.8,0,1.1.3.4.3.6.9.4,1.5-.2.6-.7,1-1.2,1.4-.6.4-1.3.6-2,.6,0,0-.1,0-.2,0-.3,0-.4,0-.4.3,0,.2,0,.4,0,.7,0,.2.2.3.4.4.4,0,.8,0,1.2-.1.8-.3,1.6-.9,2.2-1.5.3-.3.5-.8.8-1.2.9-1.4,1.7-2.8,2.8-4.1.1-.2.3-.3.5-.3.3,0,.6,0,.9.1.3,0,.4.3.2.6-.6.9-1.3,1.8-1.9,2.7,0,0,0,0-.1.2.1,0,.2,0,.2,0,.7-.4,1.4-.5,2.1-.3.4.1.7.5.7,1,0,.5-.3.9-.7,1.2-.6.5-1.3.9-2,1-.2,0-.3,0-.2.3,0,.2,0,.4.2.6.2.6.7.8,1.2.5.6-.4,1.1-.8,1.6-1.2.2-.2.3-.2.5,0,.2.1.2.2,0,.4-.7.7-1.4,1.5-2.3,1.9-.4.2-.8.3-1.3.2-.7-.1-1-.4-1.2-1.1,0-.4-.1-.7-.1-1.1,0,0,0,0,0,0,0-.1-.1-.3-.2-.4,0,.1-.2.2-.3.3-.3.5-.6,1-.9,1.5-.2.4-.7.5-1,.3-.2,0-.3-.2-.3-.5,0-.3.1-.6.2-.8ZM43.3,48.7s0,0,0,0c0,0,0,0,0,0,.8,0,1.4-.2,2-.7.2-.2.4-.4.5-.6,0,0,0-.3,0-.4,0,0-.2,0-.3,0-.1,0-.2,0-.3,0-.4.2-.7.4-1,.7-.3.2-.6.5-.9.8ZM38.2,48.2s0,0,0,0c.2,0,.5-.1.7-.2.5-.2,1-.5,1.3-1,0-.2.2-.4,0-.5,0-.1-.4-.1-.6,0,0,0,0,0,0,0-.6.4-1,.9-1.4,1.5,0,0,0,.1,0,.2ZM33.5,47.7s0,0,0,0c.4,0,.9-.2,1.3-.5.3-.2.7-.5.8-.9.1-.3,0-.5-.4-.5-.1,0-.2,0-.3.1-.3.3-.6.5-.9.8-.2.3-.4.6-.6.9Z"/>
      <path class="st0" d="M32.9,64c-.9-.1-1.8-.2-2.7-.4-.8-.2-1.6-.4-2.4-.6-.6-.1-1.1-.3-1.7-.5-.9-.4-1.9-.8-2.8-1.2-.9-.5-1.8-1-2.6-1.5-1.3-.9-2.5-1.8-3.6-2.9-.7-.7-1.3-1.3-1.9-2-.5-.5-.9-1.1-1.3-1.7-.3-.4-.6-.9-.9-1.3-.5-.8-.9-1.6-1.4-2.5-.2-.4-.4-.8-.6-1.2,0-.2,0-.3.2-.3.1,0,.3,0,.4-.1.2,0,.3,0,.4.2.3.6.6,1.3.9,1.9.4.8.9,1.6,1.4,2.3.7,1,1.4,1.9,2.2,2.8,1.1,1.2,2.3,2.3,3.6,3.3,1.6,1.2,3.3,2.2,5,2.9.9.4,1.9.7,2.8,1,.6.2,1.1.3,1.7.4.6.1,1.1.2,1.7.3.7,0,1.5.2,2.2.2.8,0,1.7,0,2.5,0,.8,0,1.6-.1,2.5-.2,2.5-.3,4.9-1.1,7.1-2.1,1.3-.6,2.5-1.3,3.7-2.1,2.6-1.8,4.8-4,6.6-6.6.4-.5.7-1.1,1-1.7,0-.2.2-.2.4-.2.2,0,.3,0,.5,0,.2,0,.3,0,.1.3-.5.8-1,1.6-1.5,2.4-.9,1.4-2,2.6-3.2,3.7-.6.6-1.2,1.1-1.9,1.6-1.3,1.1-2.7,1.9-4.2,2.7-2.1,1.1-4.3,1.9-6.6,2.4-1.2.3-2.4.5-3.7.6-.9,0-1.8,0-2.7,0-.5,0-.9,0-1.4,0Z"/>
      <path class="st0" d="M25.6,47.1c-.5.5-.9,1-1.3,1.4-.5.5-1.1,1.1-1.8,1.4-.5.2-.9.4-1.4.3-.9,0-1.3-.8-1.2-1.6,0-.8.4-1.4.8-2.1.7-1.2,1.5-2.4,2.2-3.6.1-.2.2-.3.3-.5.1-.2,0-.5-.3-.5-.3,0-.6,0-.9,0-.8.2-1.5.7-1.7,1.5,0,.2,0,.5,0,.7,0,.5,0,.6-.5.7-.5,0-.7-.1-.9-.5-.2-.6,0-1.1.3-1.7.6-.8,1.4-1.3,2.3-1.6.7-.3,1.4-.4,2.1-.4.3,0,.6,0,.9.1.3,0,.6.4.6.8,0,.4,0,.7-.2,1.1-.4.7-.8,1.5-1.3,2.2-.5.9-1.1,1.8-1.6,2.8-.1.3-.2.6-.3.9,0,.3.2.6.5.4.4-.1.8-.3,1.1-.6,1.1-1,2-2.1,2.8-3.3.4-.7.8-1.3,1.2-2,.1-.2.2-.4.6-.5.4,0,.7,0,1,.3,0,0,.1.3,0,.4-.1.3-.3.6-.4,1-.4.9-.9,1.8-1.3,2.7-.2.4-.3.8-.4,1.2,0,0,0,.2,0,.2,0,.5.3.6.7.5.5-.1.8-.5,1.2-.8.8-.8,1.5-1.7,2.1-2.7.6-1,1.1-2.1,1.6-3.3,0-.2.1-.5.3-.5.2,0,.5,0,.8,0,0,0,.1,0,.2,0,.3,0,.3.2.3.4-.1.4-.2.8-.4,1.2-.5,1.2-1.2,2.3-2.1,3.3-.6.7-1.2,1.4-1.9,2.1-.6.6-1.2,1.1-2,1.4-.5.2-1,.2-1.5.1-.2,0-.4-.2-.5-.4-.2-.3-.3-.6-.3-1,0-.5.1-1,.3-1.5,0-.1,0-.2.1-.4Z"/>
      <path class="st0" d="M55.3,49.9c-.2.3-.3.5-.5.7-.9,1.5-2,2.8-3.3,4-1.3,1.2-2.7,2.4-4.2,3.3-1.3.8-2.6,1.4-4,2-1.2.5-2.5.8-3.8,1.1-1.4.3-2.8.5-4.2.5-.8,0-1.6,0-2.4,0-.8,0-1.7-.2-2.5-.3-.5,0-1-.2-1.5-.4-.9-.3-1.7-.5-2.5-.8-.7-.3-1.3-.6-2-.9-.9-.5-1.8-1.1-2.7-1.7-1.3-.9-2.5-1.9-3.6-3-.9-1-1.8-2-2.5-3.1-.8-1.2-1.5-2.5-2.1-3.8-.1-.3-.1-.3.2-.4q.5-.2.8.3c.8,1.6,1.7,3.1,2.8,4.5,1.3,1.6,2.8,3.1,4.4,4.4,1.2.9,2.6,1.7,4,2.4.7.3,1.5.6,2.2.9,1.2.4,2.4.7,3.7.9,1.1.2,2.2.3,3.4.3,1.5,0,3.1-.2,4.6-.5,1.7-.4,3.3-.9,4.8-1.6.9-.4,1.7-.9,2.6-1.4.9-.6,1.8-1.1,2.6-1.8,1.2-1,2.3-2.1,3.2-3.3.5-.6.9-1.3,1.4-1.9,0-.1.2-.2.3-.2.3,0,.5,0,.8,0Z"/>
      <path class="st0" d="M8.8,45c-.2,0-.4-.1-.7-.1-.2,0-.4,0-.5,0-.9-.1-1.7-.2-2.6-.3-.4,0-.8-.1-1.2-.2-.1,0-.3,0-.3-.2,0-.2.2-.2.3-.2.5,0,1,0,1.4,0,.5,0,1,0,1.4.1.3,0,.7,0,1,0,.5,0,1,0,1.5.1.2,0,.4,0,.4-.3,0-.2-.1-.3-.3-.3-.4,0-.9,0-1.3-.1,0,0-.2,0-.2,0-.7,0-1.4-.1-2.1-.2-.1,0-.3,0-.4,0-.4,0-.7,0-1.1-.1-.1,0-.2,0-.4,0-.1,0-.2,0-.2-.3,0-.2.1-.2.3-.3.3,0,.6,0,.9,0,.6,0,1.3,0,1.9,0,.5,0,1,0,1.4.1.5,0,.9,0,1.4.1.2,0,.4-.1.4-.3,0-.2,0-.3-.3-.3-.5,0-1,0-1.5-.1-.4,0-.9,0-1.3,0-.8,0-1.7-.2-2.5-.3,0,0-.2,0-.2,0-.2,0-.3,0-.3-.2,0-.2.1-.3.3-.3.2,0,.4,0,.5,0,.6,0,1.1,0,1.7,0,.8,0,1.6,0,2.4.1.8,0,1.6.1,2.4.2,1,0,1.8.6,2.4,1.4.3.4.8.7,1.3.8.7,0,1.3.1,2,.2.3,0,.5,0,.8.1.3,0,.4.2.3.5,0,.4-.2.5-.5.5-.5,0-1.1-.1-1.6-.2-.1,0-.3,0-.4,0-.3,0-.6,0-.8,0-.7,0-1.2.3-1.7.8-.8.8-1.8,1.1-2.9,1.1-.6,0-1.1,0-1.7-.1-.6,0-1.3-.1-1.9-.2-.9-.1-1.7-.3-2.6-.5,0,0-.1,0-.1,0,0,0-.2-.2-.2-.2,0,0,.1-.2.2-.2.3,0,.6,0,.9,0,1.1,0,2.2.2,3.3.3.2,0,.4,0,.5,0,.3,0,.5,0,.8,0,.2,0,.3-.1.3-.3,0-.2,0-.3-.3-.3-.2,0-.3,0-.5,0,0,0,0,0,0,0Z"/>
      <path class="st0" d="M53.1,49.1c-.8-.2-1.6-.4-2.4-.9-.5-.3-.9-.8-1.2-1.3-.2-.4-.1-.8,0-1.1,0,0,.2-.1.3-.1.8,0,1.7.2,2.5.2.8,0,1.7.1,2.5.2.4,0,.8,0,1.3.1.6,0,1.3,0,1.9.1.5,0,1.1,0,1.6.1,1.1.1,2.2.2,3.3.3.3,0,.6,0,1,.1.2,0,.3.2.2.4-.1.2-.3.4-.5.6-.6.5-1.3.8-2,1-.9.3-1.7.4-2.6.4-.8,0-1.7,0-2.5,0-.7,0-1.4-.1-2-.2-.5,0-1,0-1.5-.1Z"/>
      <path class="st0" d="M59.5,40.3c0-.6.2-1.2.3-1.8.1-.8.3-1.7.4-2.5,0,0,.1-.1.2-.1.5,0,.9,0,1.4,0,.3,0,.3,0,.3.4-.3,2-.6,3.9-.9,5.9,0,.3-.1.7-.2,1,0,.3-.1.3-.4.3-.5,0-1,0-1.5-.2,0,0-.2-.1-.2-.2-.2-.5-.4-1.1-.6-1.7-.3-.9-.7-1.8-1-2.7,0,0,0,0-.1,0,0,0,0,.2,0,.3-.2,1.2-.4,2.5-.6,3.7,0,.4,0,.4-.4.3-.4,0-.8,0-1.2-.1-.3,0-.3,0-.2-.3.1-.9.3-1.9.4-2.8.2-1.4.4-2.7.6-4.1,0-.4,0-.4.5-.3.4,0,.8.1,1.2.1.2,0,.3,0,.4.3.3.7.5,1.5.8,2.2.3.7.5,1.5.8,2.2,0,0,0,0,0,0Z"/>
      <path class="st0" d="M40.4,37.7c.2-1.2.4-2.3.5-3.5,0-.2.1-.3.3-.3.3,0,.5,0,.8,0,.3,0,.5,0,.8,0,.7,0,1.4.1,2.1.4.8.3,1.3,1.1,1.3,2.1,0,.6-.1,1.1-.5,1.6-.3.4-.6.6-1,.8-.2,0-.2.2-.2.3.3.9.7,1.7,1,2.6,0,.2,0,.3-.2.2-.5,0-1.1-.1-1.6-.2-.2,0-.2,0-.3-.2-.2-.8-.5-1.5-.7-2.3,0-.2-.5-.4-.7-.3,0,0-.1.2-.1.2-.1.6-.2,1.2-.3,1.9,0,0,0,.2,0,.2,0,.3,0,.3-.3.3-.4,0-.8,0-1.2-.1-.3,0-.3,0-.3-.3.2-1,.3-2,.5-3,0-.2,0-.3,0-.5h0ZM42.8,37.6c.3,0,.6,0,.9,0,.6,0,1.1-.8.8-1.4,0-.2-.2-.3-.4-.4-.4,0-.8-.1-1.2-.2-.1,0-.2,0-.2.2,0,.5-.2,1-.2,1.5,0,.1,0,.2.2.2,0,0,.1,0,.2,0Z"/>
      <path class="st0" d="M52.4,42.8c-.2,0-.4,0-.5,0-.2,0-.2,0-.2-.2,0-.3,0-.6-.1-.9,0-.1,0-.2-.2-.2-.2,0-.4,0-.7,0-.2,0-.4,0-.5,0-.3-.1-.6,0-1,0,0,0-.2,0-.2.1-.1.2-.2.5-.3.7,0,.2-.1.2-.3.2-.3,0-.6,0-.9-.1,0,0-.2,0-.3,0,0,0-.1,0-.2,0-.4,0-.4,0-.2-.4.5-1,.9-1.9,1.4-2.9.5-1.1,1.1-2.2,1.6-3.3.1-.2.2-.5.3-.7,0-.1.1-.2.3-.2.2,0,.3,0,.5,0,.4,0,.8,0,1.2.1.4,0,.4,0,.4.4.2,1.3.4,2.6.6,4,.2,1,.4,2,.5,3.1,0,.1,0,.2,0,.3,0,.2,0,.2-.2.2-.4,0-.7,0-1.1,0ZM50.9,37.1s0,0,0,0c-.4.8-.7,1.6-1.1,2.4,0,.2,0,.2.2.2.4,0,.8,0,1.1,0,.1,0,.2,0,.2-.2,0-.2,0-.5,0-.7,0-.6-.1-1.3-.2-1.9Z"/>
      <path class="st0" d="M37.5,36.2c.1-.7.2-1.5.3-2.2,0-.3,0-.3.4-.3.4,0,.7,0,1.1,0,.4,0,.4.1.4.5-.1.9-.3,1.7-.4,2.6-.1.7-.2,1.4-.3,2.1-.2,1.1-.8,1.8-1.8,2.2-.7.2-1.5.2-2.2,0-.2,0-.5-.2-.7-.3-.7-.4-.9-1-1-1.8,0-.5,0-1.1,0-1.6.2-1.3.4-2.6.6-3.8,0-.4,0-.4.4-.3.4,0,.9.1,1.3.1.1,0,.2,0,.2.2,0,.1,0,.2,0,.4-.2,1.4-.4,2.8-.6,4.2,0,.2,0,.4,0,.7,0,.5.3.7.9.7.7,0,1-.3,1.1-1,.1-.8.2-1.5.4-2.3Z"/>
      <path class="st0" d="M31.2,40.6c-.2,0-.4,0-.6,0-.1,0-.2,0-.2-.2,0-.3,0-.6-.1-.9,0-.2-.1-.2-.3-.3-.6,0-1.1-.1-1.7-.2-.4,0-.4,0-.6.3-.1.2-.2.4-.3.7,0,.1-.1.2-.3.2-.5,0-1,0-1.5-.1-.2,0-.3,0-.1-.3.4-.7.7-1.4,1.1-2.2.8-1.6,1.5-3.1,2.3-4.7.2-.3.2-.3.5-.3.5,0,1,.1,1.5.2.4,0,.4,0,.4.4.3,2,.6,4,1,6,0,.4.2.8.2,1.1,0,.2,0,.3-.2.3-.3,0-.7,0-1,0,0,0,0,0,0,0ZM29.8,35h0c-.4.8-.8,1.7-1.2,2.6.5,0,.9,0,1.3.1.2,0,.2,0,.2-.2,0-.5-.1-.9-.2-1.4,0-.3,0-.7-.1-1Z"/>
      <path class="st0" d="M10.2,34.7c.2-1.2.4-2.3.5-3.5,0-.3,0-.3.4-.3.8,0,1.7.2,2.5.3.5,0,1,0,1.4.1.4,0,.4,0,.3.4,0,.3-.1.7-.2,1,0,.2-.1.3-.3.3-.8,0-1.5-.2-2.3-.3-.2,0-.3,0-.3.2,0,.3,0,.5-.1.8,0,.2,0,.2.2.3.4,0,.8,0,1.2.1.3,0,.6,0,1,.1,0,0,.1.1.1.2,0,.4-.1.9-.2,1.3,0,0-.1.1-.2.1,0,0-.2,0-.3,0-.6,0-1.1-.1-1.7-.2-.4,0-.4,0-.5.4,0,.2,0,.5-.1.7,0,.2,0,.3.2.3.4,0,.9,0,1.3.1.4,0,.8,0,1.2.1.1,0,.1,0,.1.2,0,.4,0,.9-.1,1.3,0,.2,0,.2-.3.2-.6,0-1.3-.1-1.9-.2-.6,0-1.3-.1-1.9-.2-.2,0-.4,0-.6-.1-.2,0-.1-.2-.1-.3.2-1.1.3-2.3.5-3.4,0,0,0,0,0-.1Z"/>
      <path class="st0" d="M15.9,36.8c0,0,.2.1.2.2.5.4,1,.7,1.6.7.3,0,.5,0,.7-.2.4-.3.4-.6,0-.9-.3-.2-.6-.4-.9-.6-.4-.3-.9-.6-1.2-1-.4-.5-.4-1-.3-1.6.4-1.5,1.7-2,3-1.9.7,0,1.3.4,1.9.7.2,0,.2.2.1.4-.2.4-.4.8-.6,1.2,0,.2-.2.2-.3,0-.3-.2-.7-.3-1-.5-.3-.2-.6-.1-.9,0-.4,0-.5.5-.3.8.2.2.5.4.8.6.3.2.7.4,1,.6,1,.7,1,1.9.5,2.8-.5.9-1.2,1.3-2.2,1.3-.6,0-1.3,0-1.9-.3-.4-.2-.7-.4-1.1-.7-.1,0-.2-.2,0-.4.2-.4.4-.8.6-1.2,0,0,0,0,0-.1Z"/>
      <path class="st0" d="M10.5,29.2c0,0-.1,0-.2,0-.3,0-.3-.2-.3-.4.2-.5.4-1.1.5-1.6.6-1.6,1.3-3,2.1-4.4,1.1-1.7,2.3-3.3,3.7-4.7,1.1-1.1,2.2-2,3.5-2.9,2-1.4,4.1-2.5,6.3-3.2.4-.1.4,0,.5.3,0,.5,0,.5-.4.7-1.3.5-2.6,1-3.8,1.7-1.4.8-2.7,1.7-4,2.8-1,.9-2,1.8-2.9,2.8-1.3,1.6-2.5,3.2-3.3,5.1-.5,1-.8,2-1.2,3,0,.2-.1.5-.2.7-.1.3-.1.3-.4.3,0,0,0,0-.1,0h0Z"/>
      <path class="st0" d="M61,34.2c-.1,0-.2,0-.3,0-.1,0-.2,0-.2-.2-.1-1.3-.3-2.6-.7-3.8-.5-2-1.2-3.9-2.3-5.7-.6-1.1-1.2-2.1-2-3.1-1.1-1.4-2.3-2.7-3.7-3.9-.4-.3-.8-.7-1.3-1-.1,0-.2-.2,0-.3,0-.2.2-.4.2-.5,0-.2.1-.2.3,0,.6.4,1.1.9,1.7,1.3.5.4,1,.9,1.5,1.4,1.2,1.2,2.2,2.5,3.1,3.8,1.3,2,2.4,4.1,3.1,6.3.3,1,.6,2,.8,3,.1.9.2,1.8.3,2.7,0,.2,0,.2-.2.2,0,0-.1,0-.2,0,0,0,0,0,0,0Z"/>
      <path class="st0" d="M65.7,41.1c-.1.9-.3,1.7-.4,2.6,0,.3,0,.3-.4.3-.4,0-.9,0-1.3-.1-.3,0-.3,0-.3-.3.2-1.3.4-2.7.6-4,0-.4.1-.8.2-1.2,0-.3,0-.3-.2-.3-.4,0-.7,0-1.1-.1-.3,0-.3,0-.3-.4,0-.4.1-.7.2-1.1,0-.3,0-.3.3-.3.9,0,1.8.2,2.6.3.6,0,1.3.2,1.9.2,0,0,0,0,.1,0q.4,0,.3.4c0,.3-.1.7-.2,1,0,.3,0,.3-.4.3-.4,0-.7,0-1.1-.1-.2,0-.3,0-.3.2-.1.9-.3,1.8-.4,2.6Z"/>
      <path class="st0" d="M24.7,37c-.1.8-.3,1.7-.4,2.5,0,.4,0,.4-.4.3-.4,0-.8-.1-1.2-.2-.3,0-.3,0-.2-.3.3-1.7.5-3.3.8-5,0,0,0-.2,0-.3,0-.2,0-.2-.2-.3-.3,0-.7,0-1-.1-.3,0-.4,0-.3-.4,0-.4.1-.8.2-1.2,0-.2.1-.3.3-.2,1.1.1,2.2.2,3.3.4.5,0,1,.1,1.5.1.1,0,.2,0,.2.2,0,.5-.1.9-.2,1.4,0,.1-.1.2-.2.2-.4,0-.8,0-1.2-.1-.3,0-.4,0-.4.3-.1.9-.3,1.7-.4,2.6Z"/>
      <path class="st0" d="M13.1,29.5s0,0-.1,0c-.2,0-.3,0-.2-.3.3-.9.7-1.9,1-2.8.6-1.4,1.4-2.7,2.4-3.9.8-1,1.6-2,2.6-2.9.9-.9,1.9-1.7,2.9-2.4,1.3-.9,2.7-1.6,4.1-2.3.3-.1.4-.1.6.1,0,0,.1.2.2.3.2.2.1.3-.1.4-.7.3-1.4.6-2,1-1.1.6-2.2,1.3-3.2,2-1.8,1.4-3.4,3-4.7,4.8-1.1,1.4-1.9,3-2.5,4.7-.1.3-.2.7-.3,1,0,.1-.1.2-.3.2-.1,0-.3,0-.4,0,0,0,0,0,0,0Z"/>
      <path class="st0" d="M58.2,33.9s0,0-.1,0c-.4,0-.4,0-.4-.4-.2-1.4-.5-2.8-1-4.2-.4-1.3-1-2.5-1.7-3.6-.3-.5-.6-1-.9-1.5-.5-.7-.9-1.3-1.4-1.9-.6-.7-1.4-1.4-2-2.1-.3-.3-.6-.5-.8-.7-.2-.2-.2-.2,0-.3.7-.5.5-.5,1.1,0,.9.7,1.7,1.5,2.4,2.4.6.8,1.2,1.6,1.8,2.4.6.9,1.1,1.8,1.5,2.7,1,2.2,1.7,4.4,2,6.8,0,0,0,0,0,0q0,.5-.5.4Z"/>
      <path class="st0" d="M36.1,58.7c-.3,0-.6,0-.9-.1-.2,0-.4,0-.4-.3,0-.2.2-.2.4-.2.2,0,.4,0,.7-.1.1,0,.2,0,.2-.2,0-.3,0-.7.2-1,0-.2,0-.2-.2-.3-.1,0-.3-.1-.4-.2-.7-.5-1-1.1-.7-2,.1-.5.3-1,.5-1.5.1-.3.2-.4.5-.3.2,0,.5,0,.7,0,.5,0,1.1.2,1.6.3.2,0,.2.2.2.3,0,.4,0,.8,0,1.1,0,.3,0,.5,0,.8,0,.8-.7,1.4-1.5,1.5q-.5,0-.6.6c0,.2,0,.4,0,.6,0,.2,0,.2.2.3.2.1.4.2.7.3,0,0,.2.2.2.2,0,.2-.2.2-.3.2-.4,0-.7-.1-1.1-.2,0,0,0,0,0,0Z"/>
      <path class="st0" d="M20.3,27.7c-.2.4-.4.8-.6,1.2-.1.2-.2.5-.3.7,0,0-.1.1-.2.1-.1,0-.3,0-.4,0,0,0-.2-.1-.2-.2-.1-.6-.2-1.2-.3-1.8,0,0,0-.1,0-.2,0,.3-.1.6-.2.9,0,.4-.2.7-.3,1.1,0,0-.1.1-.2.1-.2,0-.4,0-.7,0-.1,0-.1-.1,0-.2.2-.8.5-1.7.7-2.5,0-.2,0-.4.1-.6,0,0,.1-.1.2-.1.3,0,.6,0,.9,0,.2,0,.2.1.2.3,0,.6.2,1.1.3,1.7.1-.3.3-.6.4-.9.1-.2.2-.5.3-.7,0-.1.2-.2.3-.2.3,0,.5,0,.8.1.1,0,.2.1.2.2,0,.5,0,1,0,1.5,0,.5,0,1,0,1.5,0,.2,0,.3-.3.3-.1,0-.2,0-.3,0-.4,0-.4,0-.4-.4,0-.6,0-1.2,0-1.7,0,0,0,0,0-.1Z"/>
      <path class="st0" d="M29.3,54.5c-.8-.1-1.7-.3-2.5-.4-.3,0-.4-.2-.3-.5.1-.3.3-.5.5-.7.6-.6,1.4-.8,2.3-.7.6,0,1.2.1,1.7.4.7.4,1.2.9,1.3,1.7,0,0,0,.1,0,.2,0,.3,0,.3-.3.3-.4,0-.8-.1-1.2-.2-.5,0-.9-.1-1.4-.2h0Z"/>
      <path class="st0" d="M46,32.8c-.9,0-1.7-.9-1.5-2,.2-1.1,1-1.7,2.2-1.6,1.1.2,1.7,1,1.5,2-.2,1.1-1.1,1.8-2.2,1.6ZM46.2,32c.6,0,1-.2,1.1-.8,0-.6-.2-1.1-.7-1.1-.5,0-.9.2-1.1.8-.1.6.2,1,.7,1.1Z"/>
      <path class="st0" d="M39.6,30c.2,0,.4,0,.5,0,.2,0,.2,0,.2.2,0,.4,0,.8-.2,1.2,0,.1-.2.3-.3.3-.2,0-.5.2-.7.2-.5,0-1,0-1.4-.3-.6-.4-.8-.9-.7-1.6,0-.7.4-1.3,1.1-1.6.8-.3,1.5-.1,2.1.4.1.1.2.2,0,.3,0,0-.1,0-.2.1-.1,0-.2.2-.3.2-.1,0-.2-.1-.3-.2-.6-.3-1-.2-1.3.3-.3.5-.2,1.2.3,1.4.2.1.5.1.8.1.2,0,.2-.1.2-.3,0-.1,0-.2-.2-.2,0,0,0,0,0,0-.6,0-.5,0-.4-.7,0-.2.1-.2.3-.2.2,0,.4,0,.6,0,0,0,0,0,0,0Z"/>
      <path class="st0" d="M43.9,32.5c-.4,0-.7,0-1,0,0,0-.2-.1-.2-.2-.1-.3-.2-.5-.3-.8,0-.1-.1-.2-.2-.2-.2,0-.1.1-.2.2,0,.2,0,.5,0,.7,0,.2,0,.2-.3.2,0,0,0,0,0,0-.8-.1-.7,0-.6-.7.1-.9.2-1.7.3-2.6,0-.4,0-.4.4-.3.5,0,.9.1,1.4.2.5,0,.9.6.7,1.2,0,0,0,0,0,0,0,.4-.2.6-.5.8-.2.1-.2.2-.1.4.1.3.3.6.4.9,0,0,0,.1,0,.2ZM42.2,30c0,.4,0,.5.5.5,0,0,0,0,0,0,.2,0,.3-.2.3-.4,0-.2-.1-.3-.3-.3,0,0-.2,0-.3,0-.1,0-.2,0-.2.2,0,0,0,.1,0,.2Z"/>
      <path class="st0" d="M28.9,57.6c-.6,0-1.1-.2-1.7-.3-.5,0-.9-.5-1-1,0,0,0-.2,0-.2,0-.3,0-.3.3-.3,1.7.3,3.4.5,5.2.8.3,0,.3.1.2.4-.2.5-.7.8-1.3.8-.3,0-.6,0-.9-.1-.3,0-.6,0-.8-.1h0Z"/>
      <path class="st0" d="M24.3,30.4c0,0-.1-.2-.1-.3-.1-.4-.1-.4-.5-.4-.2,0-.4,0-.6,0,0,0-.2,0-.2.1-.1.4-.4.4-.8.4-.4,0-.4,0-.2-.5.5-.9,1-1.8,1.4-2.7.1-.2.2-.3.4-.2.2,0,.3,0,.5,0,.2,0,.3,0,.3.3.1.8.3,1.5.4,2.3,0,.3.1.6.2.9,0,.2,0,.2-.2.2-.2,0-.4,0-.6,0h0ZM23.8,27.9h0c0,.2-.2.4-.3.5-.3.5-.2.6.3.6,0,0,0,0,0,0,0,0,0,0,0,0,0-.3,0-.7-.1-1Z"/>
      <path class="st0" d="M32.5,29.5c0-.5.1-1,.2-1.5,0-.3,0-.3.3-.3.6,0,1.2.1,1.8.2.2,0,.2,0,.2.2,0,0,0,0,0,0,0,.6,0,.6-.7.4-.2,0-.4,0-.5,0-.2,0-.2,0-.3.3,0,.2,0,.2.2.2.2,0,.5,0,.7,0,.2,0,.3,0,.2.3,0,.5,0,.5-.6.4-.2,0-.3,0-.5,0-.2,0-.2,0-.2.2,0,0,0,.1,0,.2,0,.1,0,.2.2.2.3,0,.6,0,1,.1.2,0,.3.1.2.3-.1.6,0,.5-.6.4-.4,0-.9,0-1.3-.1,0,0-.1,0-.2,0-.4,0-.4,0-.3-.4,0-.5.1-.9.2-1.4h0Z"/>
      <path class="st0" d="M53.2,33.5c-.2,0-.4,0-.6,0-.2,0-.2-.1-.2-.3,0-.2,0-.4,0-.7,0-.7.2-1.5.3-2.2,0-.3,0-.3.4-.3.6,0,1.2.1,1.7.2.2,0,.3,0,.2.3-.1.6,0,.5-.6.4-.2,0-.4,0-.7,0-.2,0-.2.1-.2.2,0,.1,0,.3.2.3.3,0,.5,0,.8,0,.3,0,.3,0,.2.3,0,.5,0,.5-.5.4-.2,0-.4,0-.6,0-.1,0-.2,0-.2.2,0,0,0,.1,0,.2,0,.2,0,.3.2.3.3,0,.6,0,.9.1.2,0,.2.1.2.3,0,.5,0,.5-.6.5-.3,0-.7,0-1,0,0,0,0,0,0,0Z"/>
      <path class="st0" d="M27,27.2c.2,0,.5,0,.7,0,.4,0,.8.2,1.1.6.1.2.2.4.2.7,0,0,0,.1,0,.2,0,.6-.6,1-1.2,1-.2,0-.4,0-.6,0-.2,0-.2,0-.3.2,0,.2,0,.4,0,.6,0,.2-.1.2-.3.2-.2,0-.3,0-.5,0-.1,0-.2,0-.1-.2.1-1,.3-2,.4-2.9,0-.4,0-.4.5-.3,0,0,.2,0,.2,0,0,0,0,0,0,0ZM27.1,28.4s0,0,0,0c0,.1,0,.2,0,.3,0,0,0,.2.1.2.2,0,.4,0,.6,0,.3,0,.3-.4.2-.7-.2-.2-.4-.3-.7-.2,0,0-.1.2-.2.4Z"/>
      <path class="st0" d="M50.1,32.2c.2-.4.3-.7.5-1.1.2-.4.4-.8.5-1.1,0-.2.2-.2.4-.2.2,0,.3,0,.5,0,.2,0,.2,0,.1.2-.4.8-.8,1.6-1.2,2.3,0,.2-.2.4-.3.5,0,.2-.2.2-.4.2-.2,0-.4,0-.6,0-.3,0-.3-.1-.4-.4-.1-.7-.2-1.4-.3-2.1,0-.3,0-.6-.1-.8,0-.2,0-.3.3-.3,0,0,0,0,0,0,.2,0,.5,0,.6.1.1.1,0,.4.1.6,0,.6.2,1.2.2,1.8,0,0,0,0,0,.2Z"/>
      <path class="st0" d="M29.5,29.2c0-.5.2-1.1.2-1.6,0-.1,0-.2.2-.2,0,0,.1,0,.2,0,.6,0,.6.1.5.7,0,.6-.2,1.3-.2,1.9,0,.2,0,.2.2.3.3,0,.5,0,.8,0,.2,0,.3.1.2.3,0,.5-.1.6-.7.5-.5,0-.9-.1-1.4-.2-.3,0-.3,0-.3-.4,0-.5.1-.9.2-1.4h0Z"/>
      <path class="st0" d="M29.2,55.8c-.7-.1-1.5-.2-2.2-.3-.1,0-.3,0-.4-.1-.2,0-.2-.2-.2-.4,0-.2.1-.3.3-.3,0,0,.2,0,.3,0,.5,0,.9.1,1.4.2.1,0,.3.1.4.2.2.3.5.3.8.1.3-.2.7-.1,1,.2.2.2.3.2.6,0,.3-.2.6,0,1,0,0,0,.2.2.2.4,0,.1,0,.3-.3.3-.1,0-.3,0-.4,0-.8-.1-1.5-.2-2.3-.3Z"/>
      <path class="st0" d="M50.6,23.9c0,0,.2.2.2.3,0,.2,0,.3-.2.3-.2,0-.5,0-.7.1-1.9.3-3.7.7-5.6,1-.1,0-.2,0-.3,0-.2,0-.3,0-.3-.2,0-.2,0-.3.2-.3.2,0,.5-.1.7-.2,1.2-.2,2.3-.4,3.5-.7.7-.1,1.4-.3,2.1-.4.1,0,.3,0,.5,0Z"/>
      <path class="st0" d="M30.5,23.6c-.3-.2-.6-.3-.9-.5-1.5-.8-3-1.6-4.4-2.4-.2-.1-.4-.2-.6-.4-.1,0-.3-.2-.2-.4,0-.2.2-.2.5-.1.4.2.9.5,1.3.7,1.3.7,2.7,1.5,4,2.3.2,0,.3.2.5.3.1,0,.2.2.1.3,0,0-.2.1-.3.2Z"/>
      <path class="st0" d="M22.8,22.3c.5.1,1,.3,1.4.4.5.1,1,.3,1.6.4.4.1.8.2,1.2.4.6.2,1.1.3,1.7.5.2,0,.3.2.3.3,0,.2-.2.2-.4.2-.4-.1-.8-.2-1.2-.4-.6-.2-1.2-.3-1.8-.5-.7-.2-1.3-.4-2-.6-.3,0-.7-.2-1-.3-.1,0-.2-.1-.2-.3,0-.1.2-.2.3-.2,0,0,0,0,.1,0h0Z"/>
      <path class="st0" d="M50.3,27.3c-.5,0-.9,0-1.4,0-.8,0-1.5,0-2.3-.1-.5,0-.9,0-1.4,0,0,0,0,0-.1,0-.2,0-.3,0-.3-.3,0-.2,0-.3.3-.3.5,0,.9,0,1.4,0,.5,0,1.1,0,1.6,0,.6,0,1.2,0,1.8,0,.5,0,.9,0,1.4.1,0,0,.2,0,.2,0,0,0,.2.2.2.3,0,.1-.1.2-.3.2-.4,0-.8,0-1.2,0,0,0,0,0,0,0Z"/>
      <path class="st0" d="M45.7,23.3c0,0-.1-.1-.2-.2,0-.1,0-.3.1-.3.2,0,.4-.2.6-.3.8-.4,1.7-.8,2.5-1.2,0,0,.2,0,.3,0,0,0,.2.2.2.2,0,0,0,.2-.2.3-.4.2-.8.4-1.3.6-.6.3-1.2.6-1.8.8,0,0-.2,0-.3,0Z"/>
      <path class="st0" d="M26.9,17.8c0,0,.2,0,.2.1.8.7,1.6,1.4,2.4,2.2.2.1.1.4,0,.4,0,0-.2,0-.3,0-.2-.2-.4-.3-.6-.5-.6-.5-1.1-1-1.7-1.5,0,0-.1-.1-.2-.2,0,0,0-.2,0-.3,0,0,.2-.1.2-.2Z"/>
      <path class="st0" d="M34.4,24.9c0,.2-.3.4-.4.2-.4-.4-.7-.8-1.1-1.2-.1-.1,0-.2,0-.3.1,0,.2-.1.3,0,.3.4.7.8,1,1.1,0,0,0,.2.1.2Z"/>
      <path class="st0" d="M39.6,25.7s0-.1.2-.2c.4-.2.8-.5,1.1-.7.2-.1.3-.1.4,0,0,.2,0,.3-.2.4-.4.2-.7.4-1.1.6,0,0-.1,0-.2.1-.2,0-.3,0-.3-.3Z"/>
    </g>
  </g>
</svg>