<?xml version="1.0" encoding="UTF-8"?>
<svg id="Layer_1" xmlns="http://www.w3.org/2000/svg" version="1.1" viewBox="0 0 72 72">
  <!-- Generator: Adobe Illustrator 29.5.1, SVG Export Plug-In . SVG Version: 2.1.0 Build 141)  -->
  <defs>
    <style>
      .st0 {
        fill: #6ac187;
      }
    </style>
  </defs>
  <g id="sIEpXI">
    <g>
      <path class="st0" d="M41.1,4.1c.1.2.2.5.3.7.4,1.1.8,2.3,1.2,3.4.1.3.3.4.6.3.6-.2,1.3-.3,1.9-.5.1,0,.3,0,.3,0,0,0,0,.2,0,.3-.4.9-.7,1.8-1.1,2.7-.4.8-.7,1.7-1.1,2.5,0,.1-.2.3,0,.4.2.1.3,0,.4-.1.9-.7,1.9-1.3,2.8-2,0,0,.2-.1.4-.1.2,0,.2.2.2.4,0,.3,0,.7,0,1,0,.1,0,.2.2.2.4,0,.7,0,1.1,0,.6,0,1.2,0,1.9,0,.3,0,.5.2.3.5-.5,1-.9,2-1.4,3-.3.7-.3.6.3,1,.1.1.3.2.4.3.2.2.2.4,0,.5-1.3.7-2.6,1.4-3.9,2.1-.6.3-1.3.7-1.9,1-.2.1-.3.3-.3.6,0,.4,0,.9.1,1.3,0,0,0,.2,0,.3,0,.3-.2.4-.5.3-.7-.3-1.3-.6-2-.9-.9-.4-1.8-.7-2.7-1.1-.2,0-.4,0-.4.2,0,.4-.1.8-.2,1.3,0,.5-.1,1-.2,1.4,0,.3,0,.6,0,.8,0,.1,0,.2,0,.3,0,.3-.2.4-.4.3-.2,0-.5,0-.7-.1-.3,0-.4-.2-.3-.4.1-.6.3-1.2.5-1.8,0-.4.2-.8.3-1.2,0-.3.1-.5.2-.8,0-.3,0-.4-.4-.4-.7,0-1.5,0-2.2.1-.9,0-1.8,0-2.7.1,0,0-.2,0-.2,0-.2,0-.3-.1-.2-.4,0-.2.2-.5.3-.7.1-.3.2-.5.3-.8.1-.3,0-.5-.1-.7-.8-.9-1.5-1.8-2.3-2.6-.7-.7-1.3-1.5-2-2.2-.2-.3-.2-.5.2-.6.3,0,.5-.2.8-.3.2,0,.3-.2.3-.5-.1-1.1-.2-2.2-.3-3.3,0-.1,0-.3,0-.4,0-.2.1-.3.3-.3,0,0,.2,0,.3,0,.7.3,1.3.5,2,.8.2,0,.4.2.6.2.2,0,.3,0,.4-.2,0-.3.2-.5.3-.8,0-.1.1-.3.3-.3.2,0,.3.1.3.3.7,1,1.3,1.9,2,2.9,0,0,.1.3.3.2.2,0,.2-.2.2-.4,0-1.4-.1-2.8-.2-4.2,0-.5,0-.9,0-1.4,0-.4.2-.5.5-.3.3.1.5.3.7.5.3.2.5.4.8.6.3.2.4.2.6,0,.9-1,1.8-2.1,2.7-3.1,0,0,.2-.1.3-.2,0,0,0,0,.1,0Z"/>
      <path class="st0" d="M4.1,29.5c.3,0,.6,0,.9,0,.7,0,1.4.2,2.1.2,1.1.1,2.1.8,2.3,2,.2,1.1-.4,2.3-1.6,2.8-.3.1-.3.1-.2.4.3.9.6,1.7.9,2.6,0,.3,0,.3-.2.3-.5,0-1-.1-1.5-.2-.2,0-.3-.1-.4-.3-.2-.7-.4-1.3-.6-2,0,0,0-.2,0-.3-.1-.3-.4-.4-.6-.3,0,0-.1.1-.1.2-.1.7-.2,1.4-.4,2.1,0,.4,0,.4-.4.3-.5,0-1-.1-1.5-.2.5-2.5.9-5.1,1.4-7.6ZM5.5,32.3c0,.2,0,.5-.1.7,0,.3,0,.3.2.3.3,0,.5,0,.8,0,.7.1,1.3-.6,1.1-1.4,0-.2-.2-.5-.5-.5-.4,0-.7-.1-1.1-.2-.2,0-.3,0-.3.2,0,.3,0,.5-.1.8Z"/>
      <path class="st0" d="M40.3,50.5c-.3.2-.7.4-1.1.6-.6.3-1.2.5-1.9.3-.9-.2-1.4-.5-1.5-1.5,0,0,0-.1,0-.2-.4.2-.8.5-1.2.7-.5.3-1,.4-1.6.5-.5,0-1,0-1.5-.4-.4-.3-.5-.7-.6-1.2,0-.7.2-1.3.6-1.9.5-.8,1-1.4,1.8-1.9.6-.4,1.3-.6,2-.6.6,0,1.2.5,1.2,1.1,0,.5,0,1-.4,1.3-.8.9-1.8,1.3-3,1.2-.4,0-.4,0-.5.4,0,0,0,.2,0,.3,0,.4.2.7.6.7.7,0,1.3-.2,1.8-.6.2-.1.5-.3.7-.4.3-.2.5-.5.6-.8.4-.8,1-1.4,1.7-1.9.5-.4,1.1-.6,1.8-.7.4,0,.8,0,1.1.3.4.3.6.9.3,1.5-.2.6-.7,1-1.2,1.3-.6.4-1.3.5-2,.5,0,0-.1,0-.2,0-.3,0-.4,0-.4.3,0,.2,0,.4,0,.7,0,.2.2.3.4.4.4,0,.8,0,1.2,0,.8-.3,1.6-.8,2.2-1.4.3-.3.5-.7.8-1.1.9-1.4,1.8-2.8,2.9-4.1.1-.2.3-.3.5-.2.3,0,.6,0,.9.1.3,0,.3.3.1.6-.7.9-1.3,1.8-2,2.6,0,0,0,0-.1.2.1,0,.2,0,.2,0,.7-.4,1.4-.5,2.1-.3.4.1.7.6.7,1,0,.5-.4.9-.7,1.2-.6.5-1.3.8-2.1,1-.2,0-.3,0-.2.3,0,.2,0,.4.1.6.1.6.6.9,1.2.5.6-.4,1.1-.8,1.6-1.2.2-.2.3-.2.5,0,.2.1.2.2,0,.4-.7.7-1.4,1.4-2.4,1.8-.4.2-.9.3-1.3.2-.7-.1-1-.4-1.1-1.2,0-.4,0-.7-.1-1.1,0,0,0,0,0,0,0-.1-.1-.3-.2-.4,0,.1-.2.2-.3.3-.3.5-.6,1-.9,1.5-.2.4-.7.5-1,.3-.2-.1-.3-.2-.3-.5,0-.3.2-.6.2-.8ZM42.9,49s0,0,0,0c0,0,0,0,0,0,.8.1,1.4-.2,2-.6.2-.2.4-.4.5-.6,0,0,0-.3,0-.4,0,0-.2,0-.3,0-.1,0-.2,0-.3,0-.4.2-.7.4-1.1.7-.3.2-.6.5-.9.8ZM37.9,48.4s0,0,0,0c.2,0,.5-.1.7-.2.5-.2,1-.5,1.3-1,.1-.2.2-.4,0-.5,0-.1-.4-.1-.6,0,0,0,0,0,0,0-.6.4-1.1.9-1.4,1.5,0,0,0,.1,0,.2ZM33.1,47.7s0,0,0,0c.4,0,.9-.2,1.3-.5.3-.2.7-.5.8-.9.1-.3,0-.5-.4-.5-.1,0-.2,0-.3.1-.3.2-.6.5-.9.8-.2.3-.4.6-.6.9Z"/>
      <path class="st0" d="M32.2,64c-.9-.2-1.8-.3-2.7-.5-.8-.2-1.6-.4-2.4-.6-.6-.2-1.1-.3-1.6-.6-.9-.4-1.9-.8-2.8-1.3-.9-.5-1.8-1-2.6-1.6-1.3-.9-2.5-1.9-3.6-3-.6-.7-1.3-1.4-1.9-2.1-.5-.6-.9-1.2-1.3-1.8-.3-.4-.6-.9-.9-1.3-.5-.8-.9-1.7-1.3-2.5-.2-.4-.4-.8-.5-1.2,0-.2,0-.3.2-.3.1,0,.3,0,.4-.1.2,0,.3,0,.4.2.3.7.6,1.3.9,1.9.4.8.9,1.6,1.4,2.4.7,1,1.4,2,2.1,2.9,1.1,1.2,2.2,2.3,3.5,3.4,1.5,1.2,3.2,2.2,5,3.1.9.4,1.8.8,2.8,1.1.6.2,1.1.3,1.7.5.6.1,1.1.3,1.7.4.7.1,1.5.2,2.2.2.8,0,1.7,0,2.5,0,.8,0,1.6,0,2.5-.2,2.5-.3,4.9-.9,7.2-1.9,1.3-.6,2.5-1.2,3.7-2,2.7-1.7,4.9-3.8,6.7-6.4.4-.5.7-1.1,1.1-1.7,0-.2.2-.2.4-.2.2,0,.3,0,.5,0,.2,0,.2.1.1.3-.5.8-1,1.6-1.6,2.4-.9,1.4-2.1,2.6-3.3,3.7-.6.5-1.3,1-1.9,1.6-1.3,1-2.7,1.9-4.2,2.6-2.1,1.1-4.3,1.8-6.6,2.3-1.2.2-2.4.4-3.7.5-.9,0-1.8,0-2.7,0-.5,0-.9,0-1.4,0Z"/>
      <path class="st0" d="M25.3,47c-.5.5-.9.9-1.3,1.4-.5.5-1.1,1-1.8,1.4-.5.2-.9.4-1.5.3-.9-.1-1.2-.8-1.1-1.6.1-.8.5-1.4.9-2.1.8-1.2,1.5-2.4,2.3-3.6.1-.2.2-.3.3-.5.1-.2,0-.5-.3-.5-.3,0-.6,0-.9,0-.8.2-1.5.7-1.8,1.5,0,.2,0,.5,0,.7,0,.5,0,.6-.5.7-.5,0-.7-.1-.8-.6-.2-.6,0-1.1.4-1.6.6-.8,1.4-1.2,2.3-1.6.7-.2,1.4-.4,2.1-.4.3,0,.6,0,.9.1.3,0,.6.5.6.8,0,.4,0,.7-.3,1.1-.4.7-.9,1.4-1.3,2.2-.6.9-1.1,1.8-1.7,2.7-.1.3-.2.6-.3.9,0,.3.2.6.5.5.4-.1.8-.3,1.1-.6,1.1-.9,2-2,2.9-3.2.4-.6.8-1.3,1.3-2,.1-.2.3-.4.6-.4.4,0,.7,0,1,.3,0,0,0,.3,0,.4-.1.3-.3.6-.4,1-.5.9-.9,1.8-1.4,2.7-.2.4-.3.8-.4,1.1,0,0,0,.2,0,.2,0,.5.2.6.7.5.5-.1.8-.4,1.2-.7.9-.7,1.5-1.7,2.2-2.6.7-1,1.2-2.1,1.7-3.2,0-.2.1-.5.3-.5.3,0,.5,0,.8,0,0,0,.1,0,.2,0,.3,0,.3.2.3.5-.1.4-.2.8-.4,1.2-.6,1.2-1.3,2.3-2.2,3.3-.6.7-1.3,1.4-1.9,2-.6.6-1.2,1-2,1.4-.5.2-1,.2-1.5,0-.2,0-.4-.2-.5-.4-.2-.3-.3-.6-.2-1,0-.5.2-1,.3-1.5,0-.1,0-.2.1-.4Z"/>
      <path class="st0" d="M54.9,50.5c-.2.3-.3.5-.5.7-1,1.4-2.1,2.8-3.4,4-1.3,1.2-2.7,2.3-4.3,3.2-1.3.7-2.6,1.4-4,1.9-1.2.5-2.5.8-3.8,1-1.4.3-2.8.4-4.2.4-.8,0-1.6,0-2.4-.1-.8,0-1.7-.2-2.5-.4-.5,0-1-.3-1.5-.4-.8-.3-1.7-.6-2.5-.9-.7-.3-1.3-.6-2-1-.9-.5-1.8-1.1-2.7-1.7-1.3-.9-2.4-1.9-3.5-3.1-.9-1-1.7-2-2.5-3.2-.8-1.2-1.5-2.5-2.1-3.8-.1-.3-.1-.3.2-.4q.5-.2.8.3c.8,1.6,1.6,3.2,2.7,4.6,1.2,1.7,2.7,3.2,4.3,4.5,1.2,1,2.5,1.8,3.9,2.5.7.3,1.5.7,2.2.9,1.2.5,2.4.8,3.7,1,1.1.2,2.2.4,3.4.4,1.5,0,3.1-.1,4.6-.4,1.7-.3,3.3-.8,4.9-1.5.9-.4,1.8-.8,2.6-1.3.9-.5,1.8-1.1,2.6-1.8,1.2-1,2.3-2,3.3-3.2.5-.6,1-1.3,1.4-1.9,0-.1.2-.2.3-.2.3,0,.5,0,.8,0Z"/>
      <path class="st0" d="M8.6,44.5c-.2,0-.4-.1-.7-.2-.2,0-.4,0-.5,0-.9-.1-1.7-.3-2.6-.4-.4,0-.8-.1-1.2-.2-.1,0-.3,0-.3-.2,0-.2.2-.2.3-.2.5,0,1,0,1.4,0,.5,0,1,0,1.4.1.3,0,.7,0,1,0,.5,0,1,.1,1.5.2.2,0,.4,0,.4-.3,0-.2,0-.3-.3-.3-.4,0-.9,0-1.3-.1,0,0-.2,0-.2,0-.7,0-1.4-.2-2.1-.2-.1,0-.3,0-.4,0-.4,0-.7,0-1.1-.2-.1,0-.2,0-.4,0-.1,0-.2-.1-.2-.3,0-.2.1-.2.3-.2.3,0,.6,0,.9,0,.6,0,1.3,0,1.9.1.5,0,1,0,1.4.1.5,0,.9,0,1.4.1.2,0,.4-.1.4-.3,0-.2,0-.3-.3-.3-.5,0-1-.1-1.5-.2-.4,0-.9,0-1.3-.1-.8-.1-1.7-.2-2.5-.3,0,0-.2,0-.2,0-.2,0-.3,0-.3-.2,0-.2.1-.3.3-.3.2,0,.4,0,.5,0,.6,0,1.1,0,1.7,0,.8,0,1.6,0,2.4.2.8,0,1.6.2,2.4.3,1,.1,1.8.6,2.3,1.4.3.5.7.8,1.3.8.7,0,1.3.2,2,.2.3,0,.5,0,.8.1.3,0,.4.2.3.5,0,.4-.2.5-.5.5-.5,0-1.1-.1-1.6-.2-.1,0-.3,0-.4,0-.3,0-.6,0-.8,0-.7,0-1.2.3-1.7.7-.9.7-1.9,1-3,1-.6,0-1.1-.1-1.7-.2-.6,0-1.3-.2-1.9-.3-.9-.2-1.7-.3-2.6-.5,0,0-.1,0-.1,0,0,0-.2-.2-.1-.2,0,0,.1-.2.2-.2.3,0,.6,0,.9,0,1.1.1,2.2.3,3.3.4.2,0,.4,0,.5,0,.3,0,.5,0,.8,0,.2,0,.3,0,.3-.3,0-.2,0-.3-.3-.3-.2,0-.3,0-.5,0,0,0,0,0,0,0Z"/>
      <path class="st0" d="M52.7,49.6c-.8-.2-1.6-.4-2.3-.9-.5-.3-.8-.8-1.1-1.3-.2-.4,0-.8,0-1.1,0,0,.2-.1.3-.1.8,0,1.7.2,2.5.3.8,0,1.7.2,2.5.2.4,0,.8.1,1.3.2.6,0,1.3.1,1.9.2.5,0,1.1.1,1.6.2,1.1.1,2.2.3,3.3.4.3,0,.6,0,1,.1.2,0,.3.2.2.4-.1.2-.3.4-.5.6-.6.5-1.3.7-2,1-.9.3-1.7.3-2.6.3-.8,0-1.7,0-2.5,0-.7,0-1.4-.1-2-.2-.5,0-1,0-1.5-.1Z"/>
      <path class="st0" d="M59.3,40.9c.1-.6.2-1.2.3-1.8.1-.8.3-1.7.5-2.5,0,0,.1-.1.2-.1.5,0,.9,0,1.4.1.3,0,.3,0,.3.4-.3,1.9-.7,3.9-1,5.8,0,.3-.1.7-.2,1,0,.3-.1.3-.4.3-.5,0-1-.1-1.5-.2,0,0-.1-.1-.2-.2-.2-.6-.4-1.1-.6-1.7-.3-.9-.6-1.8-.9-2.7,0,0,0,0-.1,0,0,0,0,.2,0,.3-.2,1.2-.4,2.5-.7,3.7,0,.4,0,.4-.4.3-.4,0-.8,0-1.1-.1-.3,0-.3,0-.2-.3.2-.9.3-1.9.5-2.8.2-1.4.5-2.7.7-4.1,0-.4,0-.4.5-.3.4,0,.8.1,1.2.1.2,0,.3.1.4.3.3.7.5,1.5.8,2.2.3.8.5,1.5.8,2.3,0,0,0,0,0,0Z"/>
      <path class="st0" d="M40.3,37.9c.2-1.2.4-2.3.6-3.5,0-.2.1-.3.3-.3.3,0,.5,0,.8.1.3,0,.5,0,.8,0,.7.1,1.4.2,2.1.4.8.4,1.3,1.1,1.3,2.1,0,.6-.2,1.1-.5,1.6-.3.4-.6.6-1.1.7-.2,0-.2.1-.2.3.3.9.6,1.8.9,2.6,0,.2,0,.3-.2.2-.5,0-1.1-.1-1.6-.2-.2,0-.2,0-.3-.2-.2-.8-.5-1.5-.7-2.3,0-.2-.5-.4-.7-.3,0,0-.1.1-.1.2-.1.6-.2,1.2-.3,1.8,0,0,0,.2,0,.2,0,.3,0,.3-.3.2-.4,0-.8-.1-1.2-.2-.3,0-.3,0-.3-.3.2-1,.4-2,.5-3,0-.2,0-.3,0-.5h0ZM42.7,37.9c.3,0,.6,0,.9,0,.6,0,1.1-.8.8-1.4,0-.2-.2-.3-.4-.4-.4,0-.8-.1-1.2-.2-.1,0-.2,0-.2.2,0,.5-.2,1-.3,1.5,0,.1,0,.2.2.2,0,0,.1,0,.2,0Z"/>
      <path class="st0" d="M52.2,43.3c-.2,0-.4,0-.5,0-.2,0-.2,0-.2-.2,0-.3,0-.6-.1-.9,0-.1,0-.2-.2-.2-.2,0-.4,0-.7,0-.2,0-.4,0-.5,0-.3-.1-.6,0-1,0,0,0-.2,0-.2.1-.1.2-.2.5-.3.7,0,.1-.1.2-.3.2-.3,0-.6-.1-.9-.1,0,0-.2,0-.3,0,0,0-.1,0-.2,0-.4,0-.4,0-.2-.4.5-.9,1-1.9,1.5-2.8.6-1.1,1.1-2.2,1.7-3.2.1-.2.2-.5.4-.7,0-.1.1-.2.3-.2.2,0,.3,0,.5,0,.4,0,.8.1,1.2.2.4,0,.4,0,.4.4.2,1.3.3,2.6.5,4,.1,1,.3,2.1.5,3.1,0,.1,0,.2,0,.3,0,.2,0,.2-.2.2-.4,0-.7,0-1.1-.1ZM50.8,37.5s0,0,0,0c-.4.8-.8,1.6-1.2,2.4-.1.2,0,.2.2.2.4,0,.8,0,1.1,0,.1,0,.2,0,.2-.2,0-.2,0-.5,0-.7,0-.6-.1-1.3-.2-1.9Z"/>
      <path class="st0" d="M37.4,36.3c.1-.7.3-1.5.4-2.2,0-.3,0-.3.4-.3.4,0,.7,0,1.1.1.4,0,.4.1.4.5-.2.9-.3,1.7-.5,2.6-.1.7-.2,1.4-.4,2.1-.2,1.1-.8,1.8-1.9,2.1-.7.2-1.5.2-2.2,0-.2,0-.5-.2-.7-.3-.7-.4-.9-1.1-.9-1.8,0-.5,0-1.1.1-1.6.2-1.3.4-2.5.7-3.8,0-.4,0-.4.4-.3.4,0,.9.1,1.3.2.1,0,.2,0,.2.2,0,.1,0,.2,0,.4-.2,1.4-.5,2.8-.7,4.2,0,.2,0,.4,0,.7,0,.5.3.7.9.7.7,0,1-.2,1.2-1,.1-.8.3-1.5.4-2.3Z"/>
      <path class="st0" d="M31.1,40.6c-.2,0-.4,0-.6,0-.1,0-.2,0-.2-.2,0-.3,0-.6-.1-.9,0-.2-.1-.2-.3-.3-.6,0-1.1-.1-1.7-.2-.4,0-.4,0-.6.3-.1.2-.2.4-.3.7,0,.1-.1.2-.3.2-.5,0-1-.1-1.5-.2-.2,0-.2,0-.1-.3.4-.7.7-1.4,1.1-2.1.8-1.5,1.6-3.1,2.4-4.6.2-.3.2-.3.5-.2.5,0,1,.1,1.5.2.4,0,.4,0,.4.4.3,2,.5,4,.8,6,0,.4.1.8.2,1.1,0,.2,0,.3-.2.3-.3,0-.7,0-1-.1,0,0,0,0,0,0ZM29.8,34.9h0c-.4.8-.8,1.7-1.2,2.5.5,0,.9,0,1.3.1.2,0,.2,0,.2-.2,0-.5,0-.9-.1-1.4,0-.3,0-.7-.1-1Z"/>
      <path class="st0" d="M10.2,34.2c.2-1.2.4-2.3.6-3.5,0-.3,0-.3.4-.3.8.1,1.7.2,2.5.3.5,0,1,0,1.4.2.4,0,.4,0,.3.4,0,.3-.1.7-.2,1,0,.2-.1.3-.3.3-.8-.1-1.5-.2-2.3-.3-.2,0-.3,0-.3.2,0,.3,0,.5-.1.8,0,.2,0,.2.2.3.4,0,.8,0,1.2.1.3,0,.6,0,1,.1,0,0,.1.1.1.2,0,.4-.1.9-.2,1.3,0,0-.1.1-.2.1,0,0-.2,0-.3,0-.6,0-1.1-.2-1.7-.2-.4,0-.4,0-.5.3,0,.2,0,.5-.1.7,0,.2,0,.3.2.3.4,0,.9.1,1.3.2.4,0,.8.1,1.2.2.1,0,.1,0,.1.2,0,.4-.1.9-.2,1.3,0,.2-.1.2-.3.2-.6,0-1.3-.2-1.9-.2-.6,0-1.3-.1-1.9-.2-.2,0-.4,0-.6-.1-.2,0-.1-.2-.1-.3.2-1.1.4-2.3.6-3.4,0,0,0,0,0-.1Z"/>
      <path class="st0" d="M15.8,36.4c0,0,.2.1.2.2.5.4,1,.7,1.6.8.3,0,.5,0,.7-.2.4-.2.4-.6,0-.9-.3-.2-.6-.4-.9-.6-.4-.3-.9-.6-1.2-1.1-.4-.5-.4-1-.2-1.6.4-1.5,1.8-2,3.1-1.9.7,0,1.3.4,1.9.7.2,0,.2.2.1.4-.2.4-.4.8-.6,1.2,0,.2-.2.2-.3,0-.3-.2-.7-.4-1-.5-.3-.2-.6-.1-.9,0-.4,0-.6.5-.3.8.2.3.5.4.8.6.3.2.7.4,1,.7,1,.8,1,1.9.4,2.8-.5.8-1.3,1.2-2.2,1.3-.6,0-1.3,0-1.8-.3-.4-.2-.7-.4-1.1-.7-.1,0-.1-.2,0-.4.2-.4.4-.8.7-1.2,0,0,0,0,0-.1Z"/>
      <path class="st0" d="M10.7,28.8c0,0-.1,0-.2,0-.3,0-.3-.2-.2-.4.2-.5.4-1.1.6-1.6.6-1.5,1.3-3,2.2-4.4,1.1-1.7,2.4-3.2,3.9-4.6,1.1-1,2.3-2,3.6-2.8,2-1.3,4.1-2.4,6.4-3.1.4-.1.4,0,.5.3,0,.5,0,.5-.5.7-1.3.4-2.6,1-3.8,1.6-1.4.8-2.8,1.7-4.1,2.7-1.1.8-2,1.8-2.9,2.8-1.3,1.5-2.5,3.2-3.4,5-.5,1-.9,2-1.3,3,0,.2-.1.5-.2.7-.1.3-.1.3-.4.2,0,0,0,0-.1,0h0Z"/>
      <path class="st0" d="M60.9,34.9c-.1,0-.2,0-.3,0-.1,0-.2,0-.2-.2,0-1.3-.3-2.6-.6-3.8-.5-2-1.2-3.9-2.1-5.7-.6-1.1-1.2-2.2-1.9-3.1-1.1-1.4-2.2-2.8-3.6-4-.4-.4-.8-.7-1.3-1-.1,0-.2-.2,0-.3,0-.2.2-.3.2-.5,0-.2.1-.2.3,0,.5.5,1.1.9,1.6,1.4.5.4,1,.9,1.4,1.4,1.1,1.2,2.1,2.5,3,3.9,1.3,2,2.3,4.1,2.9,6.4.3,1,.6,2,.7,3,.1.9.2,1.8.3,2.7,0,.2,0,.2-.2.2,0,0-.1,0-.2,0,0,0,0,0,0,0Z"/>
      <path class="st0" d="M65.6,41.9c-.2.9-.3,1.7-.5,2.6,0,.3,0,.3-.4.3-.4,0-.9-.1-1.3-.1-.3,0-.3,0-.3-.3.2-1.3.5-2.7.7-4,0-.4.1-.8.2-1.2,0-.3,0-.3-.2-.3-.4,0-.7,0-1.1-.1-.3,0-.3,0-.3-.4,0-.4.1-.7.2-1.1,0-.3,0-.3.3-.2.9.1,1.8.2,2.6.3.6,0,1.3.2,1.9.3,0,0,0,0,.1,0q.4,0,.3.4c0,.3-.1.7-.2,1,0,.3,0,.3-.4.3-.4,0-.7,0-1.1-.1-.2,0-.3,0-.3.2-.1.9-.3,1.7-.5,2.6Z"/>
      <path class="st0" d="M24.6,36.9c-.1.8-.3,1.7-.4,2.5,0,.4,0,.4-.5.3-.4,0-.8-.1-1.2-.2-.3,0-.3,0-.2-.4.3-1.7.6-3.3.9-5,0,0,0-.2,0-.3,0-.2,0-.2-.2-.3-.3,0-.7,0-1-.1-.3,0-.4,0-.3-.4,0-.4.1-.8.2-1.2,0-.2.1-.3.3-.2,1.1.2,2.2.3,3.3.4.5,0,1,.1,1.5.2.1,0,.2,0,.2.2,0,.5-.2.9-.2,1.4,0,.1-.1.2-.2.2-.4,0-.8,0-1.1-.2-.3,0-.4,0-.4.3-.2.9-.3,1.7-.5,2.6Z"/>
      <path class="st0" d="M13.2,29.1s0,0-.1,0c-.2,0-.3,0-.2-.3.4-.9.7-1.8,1.1-2.7.6-1.4,1.5-2.7,2.4-3.9.8-1,1.7-1.9,2.6-2.8.9-.8,1.9-1.6,3-2.3,1.3-.9,2.7-1.6,4.2-2.2.3-.1.4-.1.6.1,0,0,.1.2.2.3.2.2.1.3-.1.4-.7.3-1.4.6-2,.9-1.1.5-2.2,1.2-3.2,2-1.9,1.3-3.4,2.9-4.8,4.7-1.1,1.4-1.9,3-2.6,4.7-.1.3-.2.7-.4,1,0,.1-.1.2-.3.2-.1,0-.3,0-.4,0,0,0,0,0,0,0Z"/>
      <path class="st0" d="M58.2,34.5s0,0-.1,0c-.4,0-.4,0-.4-.4-.2-1.4-.5-2.9-.9-4.2-.4-1.3-1-2.5-1.6-3.7-.3-.5-.6-1-.9-1.5-.4-.7-.9-1.3-1.4-2-.6-.7-1.3-1.4-2-2.1-.3-.3-.5-.5-.8-.8-.2-.2-.2-.2,0-.3.7-.5.5-.5,1.1,0,.9.7,1.7,1.6,2.4,2.5.6.8,1.2,1.6,1.7,2.4.5.9,1,1.8,1.4,2.7,1,2.2,1.6,4.5,1.9,6.9,0,0,0,0,0,0q0,.5-.5.4Z"/>
      <path class="st0" d="M35.6,58.9c-.3,0-.6,0-.9-.2-.2,0-.4,0-.4-.3,0-.2.2-.2.4-.2.2,0,.4,0,.7,0,.1,0,.2,0,.2-.2,0-.3.1-.7.2-1,0-.2,0-.2-.2-.3-.1,0-.3-.1-.4-.2-.7-.5-.9-1.2-.7-2,.2-.5.4-1,.6-1.4.1-.3.2-.3.5-.3.2,0,.5,0,.7,0,.5.1,1.1.2,1.6.3.2,0,.2.2.2.3,0,.4,0,.8,0,1.1,0,.3,0,.5,0,.8-.1.8-.7,1.3-1.5,1.4q-.5,0-.6.6c0,.2,0,.4-.1.6,0,.2,0,.2.2.3.2.1.4.2.6.4,0,0,.2.2.2.3,0,.2-.2.2-.3.2-.4,0-.7-.1-1.1-.2,0,0,0,0,0,0Z"/>
      <path class="st0" d="M20.5,27.4c-.2.4-.4.8-.6,1.2-.1.2-.2.5-.4.7,0,0-.1.1-.2.1-.1,0-.3,0-.4,0,0,0-.2-.1-.2-.2,0-.6-.2-1.2-.2-1.8,0,0,0-.1,0-.2,0,.3-.2.6-.2.9,0,.4-.2.7-.3,1.1,0,0-.1.1-.2.1-.2,0-.4,0-.7,0-.1,0-.1-.1,0-.2.2-.8.5-1.6.7-2.5,0-.2,0-.4.2-.6,0,0,.1-.1.2-.1.3,0,.6,0,.9,0,.2,0,.2.1.2.3,0,.6.1,1.1.3,1.7.2-.3.3-.6.5-.9.1-.2.2-.5.3-.7,0-.1.2-.2.3-.2.3,0,.5,0,.8.1.1,0,.2.1.2.2,0,.5,0,1,0,1.5,0,.5,0,1,0,1.5,0,.2,0,.3-.3.3-.1,0-.2,0-.3,0-.4,0-.4,0-.4-.4,0-.6,0-1.2.1-1.7,0,0,0,0,0-.1Z"/>
      <path class="st0" d="M28.8,54.5c-.8-.1-1.7-.3-2.5-.4-.3,0-.4-.2-.3-.5.1-.2.3-.5.5-.7.7-.6,1.4-.7,2.3-.6.6,0,1.2.2,1.7.5.7.4,1.2.9,1.3,1.7,0,0,0,.1,0,.2,0,.3,0,.3-.3.3-.4,0-.8-.1-1.2-.2-.5,0-.9-.2-1.4-.2h0Z"/>
      <path class="st0" d="M46,33.2c-.9,0-1.7-1-1.5-2.1.2-1.1,1.1-1.7,2.2-1.5,1.1.2,1.7,1,1.5,2.1-.2,1.1-1.2,1.7-2.2,1.5ZM46.2,32.3c.6.1,1-.2,1.1-.8.1-.6-.2-1.1-.7-1.2-.5,0-.9.2-1.1.8-.1.5.2,1,.7,1.1Z"/>
      <path class="st0" d="M39.7,30.2c.2,0,.4,0,.5,0,.2,0,.2,0,.2.2,0,.4-.1.8-.2,1.2,0,.1-.2.3-.3.3-.2,0-.5.2-.7.2-.5,0-1,0-1.4-.4-.6-.4-.8-1-.7-1.7.1-.7.5-1.3,1.2-1.6.8-.3,1.5-.1,2.1.4.1.1.2.2,0,.3,0,0-.1,0-.2.1-.1,0-.2.2-.3.2-.1,0-.2-.1-.3-.2-.6-.3-1-.2-1.3.2-.4.5-.3,1.2.2,1.5.2.1.5.1.8.1.2,0,.2-.1.2-.3,0-.1,0-.2-.2-.2,0,0,0,0,0,0-.6,0-.5,0-.4-.7,0-.2.1-.2.3-.2.2,0,.4,0,.6.1,0,0,0,0,0,0Z"/>
      <path class="st0" d="M43.9,32.8c-.4,0-.7,0-1-.1,0,0-.2-.2-.2-.3-.1-.3-.2-.5-.3-.8,0-.1-.1-.2-.2-.2-.2,0-.1.1-.2.2,0,.2,0,.5-.1.7,0,.2-.1.2-.3.2,0,0,0,0,0,0-.8-.1-.7,0-.6-.7.1-.9.3-1.7.4-2.6,0-.4,0-.4.4-.3.5,0,.9.2,1.4.3.5.1.8.6.7,1.2,0,0,0,0,0,0,0,.4-.2.6-.5.8-.2,0-.2.2-.1.4.1.3.3.6.4.9,0,0,0,.1,0,.2ZM42.3,30.2c0,.4,0,.5.5.5,0,0,0,0,0,0,.2,0,.3-.2.3-.4,0-.2-.1-.3-.3-.3,0,0-.2,0-.3,0-.1,0-.2,0-.2.2,0,0,0,.1,0,.2Z"/>
      <path class="st0" d="M28.3,57.5c-.6-.1-1.1-.2-1.7-.3-.5-.1-.9-.5-1-1,0,0,0-.2,0-.2,0-.3,0-.3.3-.2,1.7.3,3.4.6,5.1.9.3,0,.3.1.2.4-.2.5-.8.8-1.3.7-.3,0-.6-.1-.9-.2-.3,0-.6,0-.8-.1h0Z"/>
      <path class="st0" d="M24.4,30.3c0,0-.1-.2-.1-.3,0-.4,0-.4-.5-.4-.2,0-.4,0-.6-.1,0,0-.2,0-.2.1-.2.4-.4.4-.8.4-.4,0-.4,0-.2-.5.5-.9,1-1.8,1.5-2.7.1-.2.2-.3.4-.2.2,0,.3,0,.5,0,.2,0,.3,0,.3.3.1.8.3,1.5.4,2.3,0,.3.1.6.2.9,0,.2,0,.2-.2.2-.2,0-.4,0-.6-.1h0ZM23.9,27.7h0c-.1.2-.2.3-.3.5-.3.5-.2.6.3.6,0,0,0,0,0,0,0,0,0,0,0,0,0-.3,0-.7-.1-1Z"/>
      <path class="st0" d="M32.6,29.6c0-.5.2-1,.3-1.5,0-.3,0-.3.4-.3.6,0,1.2.2,1.8.3.2,0,.2,0,.2.3,0,0,0,0,0,0-.1.6,0,.6-.7.4-.2,0-.4,0-.5-.1-.2,0-.2,0-.3.3,0,.2,0,.2.2.3.2,0,.5,0,.7,0,.2,0,.3,0,.2.3,0,.5,0,.5-.6.4-.2,0-.3,0-.5,0-.2,0-.2,0-.2.2,0,0,0,.1,0,.2,0,.1,0,.2.2.2.3,0,.6.1,1,.2.2,0,.3.1.2.3-.1.6,0,.5-.6.4-.4,0-.9-.1-1.3-.2,0,0-.1,0-.2,0-.4,0-.4,0-.3-.4,0-.5.2-.9.2-1.4h0Z"/>
      <path class="st0" d="M53.2,34.1c-.2,0-.4,0-.6-.1-.2,0-.2-.1-.2-.3,0-.2,0-.4.1-.6.1-.7.2-1.5.3-2.2,0-.3,0-.3.4-.3.6,0,1.1.1,1.7.2.2,0,.3,0,.2.3-.1.6-.1.5-.6.4-.2,0-.4,0-.7,0-.2,0-.2,0-.2.2,0,.1,0,.3.1.3.3,0,.5,0,.8,0,.3,0,.3,0,.2.3,0,.5,0,.5-.6.4-.2,0-.4,0-.6,0-.1,0-.2,0-.2.2,0,0,0,.1,0,.2,0,.2,0,.3.2.3.3,0,.6,0,.9.1.2,0,.2.1.2.3,0,.5,0,.5-.6.5-.3,0-.7,0-1-.1,0,0,0,0,0,0Z"/>
      <path class="st0" d="M27.2,27.1c.2,0,.5,0,.7,0,.4,0,.8.2,1.1.6.1.2.2.4.1.7,0,0,0,.1,0,.2,0,.6-.6,1-1.2,1-.2,0-.4,0-.6,0-.2,0-.2,0-.3.2,0,.2,0,.4-.1.6,0,.2-.1.2-.3.2-.2,0-.3,0-.5,0-.1,0-.2,0-.1-.2.2-1,.3-2,.5-2.9,0-.4,0-.4.5-.3,0,0,.2,0,.2,0,0,0,0,0,0,0ZM27.2,28.3s0,0,0,0c0,.1,0,.2,0,.3,0,0,0,.2,0,.2.2,0,.4,0,.6,0,.3,0,.4-.4.2-.6-.2-.2-.4-.3-.7-.2,0,0-.1.2-.2.4Z"/>
      <path class="st0" d="M50.1,32.6c.2-.4.4-.7.5-1.1.2-.4.4-.8.6-1.1,0-.2.2-.2.4-.2.2,0,.3,0,.5,0,.2,0,.2,0,.1.3-.4.8-.8,1.5-1.3,2.3,0,.2-.2.4-.3.5,0,.2-.2.2-.4.2-.2,0-.4,0-.6,0-.3,0-.3-.1-.4-.4,0-.7-.2-1.4-.3-2.1,0-.3,0-.6-.1-.8,0-.2,0-.3.3-.3,0,0,0,0,0,0,.2,0,.5,0,.6.1.1.1,0,.4.1.6,0,.6.1,1.2.2,1.8,0,0,0,0,0,.2Z"/>
      <path class="st0" d="M29.6,29.2c0-.5.2-1.1.3-1.6,0-.1,0-.2.2-.2,0,0,.1,0,.2,0,.6,0,.6.1.5.7,0,.6-.2,1.3-.3,1.9,0,.2,0,.3.2.3.3,0,.5,0,.8,0,.2,0,.3.1.2.3,0,.5-.1.6-.7.5-.5,0-.9-.1-1.4-.2-.3,0-.3,0-.3-.4,0-.5.2-.9.2-1.3h0Z"/>
      <path class="st0" d="M28.7,55.8c-.7-.1-1.5-.3-2.2-.4-.1,0-.3,0-.4-.1-.2,0-.2-.2-.2-.4,0-.2.1-.3.3-.3,0,0,.2,0,.3,0,.5,0,.9.2,1.4.2.1,0,.3.1.3.2.2.3.5.3.8.2.3-.2.7,0,1,.2.2.2.3.2.6,0,.3-.2.6,0,1,0,0,0,.2.2.2.4,0,.1,0,.3-.3.3-.1,0-.3,0-.4,0-.8-.1-1.5-.3-2.3-.4Z"/>
      <path class="st0" d="M50.8,24.3c0,0,.2.2.2.3,0,.2,0,.3-.2.3-.2,0-.5,0-.7.1-1.9.3-3.7.6-5.6.9-.1,0-.2,0-.3,0-.2,0-.3,0-.3-.2,0-.2,0-.3.2-.3.2,0,.5-.1.7-.1,1.2-.2,2.4-.4,3.5-.6.7-.1,1.4-.2,2.1-.3.1,0,.3,0,.5,0Z"/>
      <path class="st0" d="M30.7,23.6c-.3-.2-.6-.3-.9-.5-1.5-.8-2.9-1.7-4.4-2.5-.2-.1-.4-.2-.6-.4-.1,0-.3-.2-.2-.4.1-.2.3-.2.5-.1.4.2.9.5,1.3.7,1.3.8,2.6,1.6,4,2.3.2,0,.3.2.5.3.1,0,.2.2.1.3,0,0-.2.1-.3.2Z"/>
      <path class="st0" d="M23.1,22.1c.5.1,1,.3,1.4.4.5.2,1,.3,1.6.5.4.1.8.3,1.2.4.6.2,1.1.4,1.7.6.2,0,.3.2.3.3,0,.2-.2.2-.4.2-.4-.1-.8-.3-1.2-.4-.6-.2-1.2-.4-1.8-.6-.7-.2-1.3-.4-2-.6-.3-.1-.7-.2-1-.3-.1,0-.2-.1-.2-.3,0-.1.2-.2.3-.2,0,0,0,0,.1,0h0Z"/>
      <path class="st0" d="M50.5,27.8c-.5,0-.9,0-1.4,0-.8,0-1.5-.1-2.3-.2-.5,0-.9,0-1.4,0,0,0,0,0-.1,0-.2,0-.3,0-.3-.3,0-.2.1-.3.3-.3.5,0,.9,0,1.4,0,.5,0,1.1,0,1.6,0,.6,0,1.2,0,1.8.1.5,0,.9,0,1.4.1,0,0,.2,0,.2,0,0,0,.2.2.2.3,0,.1-.1.2-.3.2-.4,0-.8,0-1.2-.1,0,0,0,0,0,0Z"/>
      <path class="st0" d="M45.9,23.6c0,0-.1-.1-.2-.2,0-.1,0-.3.1-.3.2,0,.4-.2.6-.3.8-.4,1.7-.8,2.5-1.2,0,0,.2,0,.3,0,0,0,.2.2.2.2,0,0,0,.2-.2.3-.4.2-.9.4-1.3.6-.6.3-1.2.5-1.8.8,0,0-.2,0-.3,0Z"/>
      <path class="st0" d="M27.3,17.8c0,0,.2,0,.2.1.8.7,1.5,1.5,2.3,2.2.1.1.1.4,0,.4,0,0-.2,0-.3,0-.2-.2-.4-.3-.6-.5-.5-.5-1.1-1-1.6-1.6,0,0-.1-.1-.2-.2,0,0,0-.2,0-.3,0,0,.2-.1.2-.1Z"/>
      <path class="st0" d="M34.6,25c0,.2-.3.4-.5.2-.4-.4-.7-.8-1.1-1.3-.1-.1,0-.3,0-.3.1,0,.2-.1.3,0,.3.4.7.8,1,1.2,0,0,0,.2,0,.2Z"/>
      <path class="st0" d="M39.8,25.9s0-.1.2-.2c.4-.2.8-.4,1.2-.7.2-.1.4,0,.4,0,0,.2,0,.3-.2.4-.4.2-.7.4-1.1.6,0,0-.1,0-.2,0-.2,0-.3,0-.3-.3Z"/>
    </g>
  </g>
</svg>