<?xml version="1.0" encoding="UTF-8"?>
<svg id="Layer_1" xmlns="http://www.w3.org/2000/svg" version="1.1" viewBox="0 0 72 72">
  <!-- Generator: Adobe Illustrator 29.5.1, SVG Export Plug-In . SVG Version: 2.1.0 Build 141)  -->
  <defs>
    <style>
      .st0 {
        fill: #0b6742;
      }
    </style>
  </defs>
  <g id="sIEpXI">
    <g>
      <path class="st0" d="M31.5,3.9c.2.2.3.4.5.6.7.9,1.5,1.9,2.2,2.8.2.3.4.3.6.1.6-.3,1.1-.7,1.7-1,0,0,.2,0,.3,0,0,0,.2.2.1.3,0,1-.1,1.9-.2,2.9,0,.9-.2,1.8-.3,2.8,0,.1,0,.4.1.4.2,0,.3-.1.4-.2.7-.9,1.4-1.8,2.1-2.8,0,0,.2-.2.3-.2.2,0,.2.1.3.3.1.3.2.6.3,1,0,.1.1.2.3.1.3-.1.7-.2,1-.3.6-.2,1.2-.4,1.8-.6.3-.1.5,0,.5.4-.1,1.1-.3,2.2-.4,3.3,0,.8-.1.7.6.9.2,0,.3.1.5.2.3.1.3.3,0,.5-1,1.1-2.1,2.1-3.1,3.2-.5.5-1,1.1-1.5,1.6-.2.2-.2.4,0,.6.2.4.3.8.5,1.2,0,0,0,.2,0,.3,0,.3,0,.4-.4.4-.7,0-1.5-.1-2.2-.2-1,0-1.9-.2-2.9-.2-.2,0-.3.1-.3.3,0,.4.1.8.2,1.2,0,.5.2.9.3,1.4,0,.3.1.5.2.8,0,.1,0,.2,0,.3,0,.3,0,.4-.3.4-.2,0-.5,0-.7,0-.3,0-.4,0-.4-.3,0-.6,0-1.2-.1-1.9,0-.4,0-.8,0-1.2,0-.3,0-.5,0-.8,0-.3-.2-.4-.5-.3-.7.3-1.4.5-2.1.8-.9.3-1.7.6-2.6,1,0,0-.2,0-.2,0-.2,0-.3,0-.3-.3,0-.3,0-.5,0-.8,0-.3,0-.6,0-.8,0-.3,0-.5-.3-.6-1-.6-2-1.2-3-1.8-.9-.5-1.7-1-2.6-1.5-.3-.2-.3-.4,0-.7.2-.2.5-.3.7-.5.2-.1.2-.3.1-.5-.4-1-.8-2-1.3-3.1,0-.1-.1-.3-.1-.4,0-.2,0-.3.2-.4,0,0,.2,0,.3,0,.7,0,1.4.1,2.1.2.2,0,.4,0,.7,0,.2,0,.3,0,.3-.3,0-.3,0-.6,0-.8,0-.2,0-.3.2-.4.2,0,.3,0,.4.1.9.7,1.8,1.4,2.8,2.1,0,0,.2.2.3.1.1-.1,0-.3,0-.4-.5-1.3-1-2.6-1.5-3.9-.2-.4-.3-.9-.5-1.3-.1-.3,0-.5.4-.4.3,0,.6.2.9.2.3.1.6.2.9.3.3.1.5,0,.6-.3.5-1.2,1.1-2.5,1.6-3.7,0-.1.1-.2.2-.3,0,0,0,0,.1,0Z"/>
      <path class="st0" d="M4,39.5c.3,0,.6-.2.9-.2.7-.1,1.4-.3,2.1-.4,1.1-.2,2.3,0,2.8,1.2.5,1,.4,2.4-.6,3.1-.3.2-.3.2,0,.5.5.7,1.1,1.4,1.7,2.2.2.2.2.3-.1.3-.5,0-1,.2-1.5.3-.2,0-.4,0-.5-.2-.4-.6-.8-1.1-1.2-1.7,0,0-.1-.2-.2-.2-.2-.3-.5-.3-.7-.1,0,0,0,.2,0,.3,0,.7.2,1.4.3,2.1,0,.4,0,.4-.3.4-.5,0-1,.2-1.5.2-.3-2.5-.7-5.1-1-7.6ZM6.2,41.7c0,.2,0,.5,0,.7,0,.3,0,.3.3.2.3,0,.5-.2.8-.2.7,0,1-1,.6-1.6-.1-.2-.3-.4-.6-.3-.4,0-.7,0-1.1.1-.2,0-.2.1-.2.3,0,.3,0,.5.1.8Z"/>
      <path class="st0" d="M44.9,48.4c-.3.3-.6.6-.8.9-.5.5-1,.8-1.7.9-.9.1-1.5,0-1.9-1,0,0,0-.1,0-.2-.3.3-.6.7-.9,1-.4.4-.9.7-1.4.9-.5.2-1,.2-1.5.1-.5-.1-.7-.5-.9-1-.2-.7-.2-1.3,0-2,.2-.9.6-1.7,1.1-2.4.5-.5,1-1,1.7-1.1.6-.1,1.3.1,1.4.6.1.5.2.9,0,1.4-.5,1.1-1.3,1.8-2.5,2.1-.3,0-.4.1-.3.5,0,0,0,.2,0,.3,0,.4.4.6.8.5.7-.2,1.1-.6,1.6-1.1.2-.2.3-.4.5-.6.2-.3.3-.6.4-.9.1-.9.5-1.6,1-2.3.4-.5.9-.9,1.5-1.2.4-.1.7-.2,1.1,0,.5.2.8.7.8,1.3,0,.6-.4,1.2-.8,1.6-.5.5-1.1.9-1.8,1.1,0,0-.1,0-.2,0-.3,0-.4.1-.3.4,0,.2,0,.4.2.6,0,.2.3.3.5.2.4,0,.8-.2,1.1-.4.7-.6,1.3-1.3,1.7-2,.2-.4.3-.9.4-1.3.4-1.6.9-3.2,1.5-4.7,0-.2.2-.3.4-.4.3,0,.6-.1.9-.1.3,0,.4.2.3.5-.4,1-.7,2.1-1.1,3.1,0,0,0,0,0,.2,0,0,.1-.1.2-.1.5-.6,1.2-.9,1.9-.9.5,0,.8.3.9.8,0,.5,0,.9-.3,1.3-.4.7-1,1.2-1.7,1.6-.2,0-.2.2-.1.3.1.2.2.4.3.6.3.6.9.6,1.3.1.4-.5.8-1.1,1.2-1.6.1-.2.2-.3.5-.2.2,0,.3.2.2.4-.4.9-.9,1.8-1.7,2.5-.3.3-.7.5-1.2.6-.7,0-1.1,0-1.4-.8-.2-.3-.3-.7-.4-1,0,0,0,0,0,0-.1-.1-.2-.2-.3-.3,0,.1-.1.2-.2.4-.1.6-.3,1.1-.4,1.7-.1.4-.5.7-.9.6-.3,0-.4-.1-.4-.4,0-.3,0-.6,0-.9ZM47,46.2s0,0,0,0c0,0,0,0,0,0,.7-.1,1.3-.6,1.7-1.2.1-.2.2-.5.3-.7,0-.1,0-.3-.1-.3,0,0-.2,0-.3,0-.1,0-.2.1-.3.2-.3.3-.6.6-.8,1-.2.3-.4.7-.6,1ZM42,47.1s0,0,0,0c.2-.1.4-.3.6-.4.4-.4.8-.8,1-1.4,0-.2,0-.4-.1-.5-.1,0-.4,0-.6.2,0,0,0,0,0,0-.5.5-.7,1.2-.9,1.9,0,0,0,.1,0,.2ZM37.2,47.9s0,0,0,0c.3-.1.8-.4,1.1-.8.3-.3.5-.7.5-1.1,0-.3-.2-.5-.5-.3,0,0-.2.1-.3.2-.2.3-.4.7-.6,1-.1.3-.2.7-.3,1Z"/>
      <path class="st0" d="M41.4,63.7c-.9.1-1.8.3-2.7.4-.8,0-1.6.1-2.5.1-.6,0-1.2,0-1.7,0-1,0-2-.2-3-.4-1-.2-2-.4-3-.7-1.5-.5-2.9-1-4.3-1.8-.8-.5-1.6-.9-2.4-1.4-.6-.4-1.2-.8-1.8-1.3-.4-.3-.9-.6-1.3-1-.7-.6-1.4-1.3-2-2-.3-.3-.6-.7-.9-1-.1-.2-.1-.2,0-.3.1,0,.2-.1.3-.2.2-.1.3,0,.4,0,.5.5.9,1.1,1.5,1.6.7.6,1.3,1.3,2,1.8.9.7,1.9,1.4,2.9,2.1,1.4.9,2.9,1.5,4.4,2.1,1.8.7,3.7,1.1,5.7,1.4,1,.1,2,.2,3,.2.6,0,1.2,0,1.8,0,.6,0,1.2,0,1.7-.2.7-.1,1.5-.3,2.2-.5.8-.2,1.6-.4,2.4-.7.8-.3,1.5-.6,2.3-.9,2.3-1,4.4-2.4,6.2-4.1,1.1-.9,2-2,2.9-3,2-2.4,3.5-5.2,4.5-8.2.2-.6.4-1.3.5-1.9,0-.2.1-.3.3-.3.2,0,.3,0,.5-.1.2,0,.3,0,.2.2-.2.9-.5,1.9-.8,2.8-.5,1.6-1.2,3.1-2,4.5-.4.7-.9,1.4-1.3,2.1-.9,1.4-2,2.6-3.2,3.8-1.7,1.6-3.6,3-5.6,4.2-1.1.6-2.2,1.2-3.4,1.6-.9.3-1.7.6-2.6.8-.4.1-.9.2-1.3.4Z"/>
      <path class="st0" d="M29.5,49.6c-.3.6-.6,1.2-.9,1.7-.4.7-.8,1.3-1.3,1.9-.4.3-.8.6-1.3.7-.8.2-1.4-.4-1.6-1.2-.1-.8,0-1.5.2-2.2.4-1.4.7-2.7,1.1-4.1,0-.2,0-.4.1-.6,0-.3-.1-.4-.4-.4-.3,0-.6.2-.8.3-.7.5-1.2,1.1-1.2,2,0,.2,0,.5.2.7.2.4.1.6-.3.8-.4.2-.7.1-1-.3-.3-.5-.4-1.1-.2-1.7.3-.9.9-1.6,1.7-2.2.6-.4,1.2-.8,1.9-1,.3,0,.6-.1.9-.2.4,0,.7.3.8.6.1.4.2.7,0,1.1-.2.8-.4,1.6-.6,2.5-.3,1-.5,2.1-.7,3.1,0,.3,0,.6,0,.9,0,.3.3.5.6.3.3-.2.7-.5.9-.9.8-1.2,1.3-2.5,1.7-3.9.2-.7.4-1.5.6-2.3,0-.2.1-.5.4-.6.3-.1.7-.2,1,0,0,0,.2.2.2.3,0,.3,0,.7-.1,1-.2,1-.3,2-.5,3,0,.4,0,.8,0,1.2,0,0,0,.2,0,.2.2.5.4.5.8.3.4-.3.7-.7.9-1.1.6-1,1-2,1.3-3.1.3-1.2.5-2.4.6-3.6,0-.2,0-.5.1-.6.2-.2.5-.2.8-.3,0,0,.1,0,.2,0,.3,0,.4,0,.4.3,0,.4,0,.8,0,1.2-.2,1.3-.5,2.6-1.1,3.8-.4.9-.8,1.7-1.2,2.5-.4.7-.9,1.4-1.5,1.9-.4.4-.9.5-1.4.6-.2,0-.4-.1-.6-.2-.3-.2-.4-.5-.5-.9-.1-.5-.2-1-.1-1.5,0-.1,0-.2,0-.4Z"/>
      <path class="st0" d="M58.8,43.9c0,.3-.1.6-.2.8-.5,1.7-1.1,3.3-2,4.8-.9,1.6-1.9,3-3.1,4.3-1,1.1-2.1,2.1-3.2,3-1,.8-2.1,1.5-3.3,2.1-1.3.7-2.5,1.2-3.9,1.7-.8.2-1.6.4-2.3.6-.8.2-1.7.3-2.5.4-.5,0-1,0-1.5,0-.9,0-1.8,0-2.7,0-.7,0-1.5-.2-2.2-.3-1-.2-2.1-.5-3.1-.8-1.5-.5-2.9-1.1-4.3-1.9-1.2-.7-2.3-1.4-3.3-2.3-1.1-.9-2.2-1.9-3.1-3-.2-.2-.2-.3,0-.5q.4-.4.8,0c1.2,1.3,2.5,2.5,4,3.6,1.7,1.2,3.5,2.2,5.5,2.9,1.5.5,2.9,1,4.5,1.2.8.1,1.6.2,2.4.2,1.3,0,2.5,0,3.8-.2,1.1-.1,2.2-.3,3.3-.7,1.5-.5,2.9-1,4.3-1.8,1.5-.8,2.9-1.8,4.2-2.9.7-.7,1.4-1.3,2.1-2.1.7-.8,1.4-1.6,1.9-2.5.8-1.3,1.6-2.6,2.1-4.1.3-.7.5-1.5.8-2.2,0-.2.1-.2.3-.3.3,0,.5-.1.8-.2Z"/>
      <path class="st0" d="M12.9,52.4c-.2,0-.5,0-.7,0-.2,0-.3.1-.5.2-.8.1-1.7.3-2.6.4-.4,0-.8.1-1.2.2-.1,0-.3,0-.3-.1,0-.2.1-.2.3-.3.5-.1.9-.2,1.4-.4.5-.1.9-.2,1.4-.3.3,0,.7-.2,1-.2.5-.1,1-.2,1.5-.3.2,0,.3-.2.3-.4,0-.2-.2-.3-.4-.2-.4,0-.9.2-1.3.3,0,0-.2,0-.2,0-.7.1-1.4.3-2.1.4-.1,0-.3,0-.4,0-.4,0-.7.1-1.1.2-.1,0-.2,0-.4,0-.1,0-.2,0-.3-.2,0-.2,0-.3.2-.3.3,0,.6-.2.8-.2.6-.2,1.2-.3,1.9-.5.5-.1.9-.2,1.4-.3.5-.1.9-.2,1.4-.3.2,0,.3-.2.3-.4,0-.2-.1-.3-.4-.2-.5,0-1,.2-1.4.3-.4,0-.8.2-1.3.3-.8.2-1.7.3-2.5.4,0,0-.2,0-.2,0-.2,0-.3,0-.4-.1,0-.2,0-.3.2-.4.2,0,.3-.1.5-.2.5-.2,1.1-.3,1.6-.5.8-.2,1.6-.4,2.3-.6.8-.2,1.6-.3,2.3-.5,1-.2,1.9,0,2.7.6.5.3.9.5,1.5.4.6-.1,1.3-.3,1.9-.4.3,0,.5,0,.8-.1.3,0,.4,0,.5.3,0,.4,0,.5-.3.6-.5.1-1.1.2-1.6.3-.1,0-.3,0-.4.1-.3,0-.5.1-.8.2-.7.2-1.1.7-1.4,1.2-.6,1-1.5,1.5-2.5,1.8-.5.2-1.1.2-1.7.3-.6.1-1.3.2-1.9.3-.9.1-1.8.2-2.6.3,0,0-.1,0-.2,0,0,0-.2-.1-.2-.2,0,0,0-.2.2-.2.3,0,.6-.2.9-.2,1.1-.2,2.2-.4,3.3-.6.2,0,.4,0,.5,0,.3,0,.5-.1.8-.2.2,0,.3-.2.2-.4,0-.2-.1-.3-.3-.2-.2,0-.3,0-.5,0,0,0,0,0,0,0Z"/>
      <path class="st0" d="M56.5,43.7c-.8,0-1.7.1-2.5-.1-.6-.2-1.1-.5-1.5-.9-.3-.3-.3-.7-.3-1.1,0,0,.2-.2.2-.2.8-.2,1.7-.3,2.5-.5.8-.2,1.7-.4,2.5-.5.4,0,.8-.1,1.2-.2.6-.1,1.3-.3,1.9-.4.5-.1,1.1-.2,1.6-.3,1.1-.2,2.2-.4,3.3-.7.3,0,.6-.1,1-.2.2,0,.4.1.3.3,0,.2-.2.5-.3.7-.4.6-1,1.1-1.6,1.5-.7.5-1.6.8-2.4,1.1-.8.2-1.6.5-2.4.7-.7.2-1.3.3-2,.4-.5.1-1,.2-1.5.3Z"/>
      <path class="st0" d="M60.1,33.5c0-.6-.2-1.2-.2-1.8-.1-.8-.2-1.7-.3-2.5,0,0,0-.2.1-.2.4-.1.9-.2,1.3-.3.3,0,.3,0,.4.3.3,2,.5,3.9.8,5.9,0,.3,0,.7.1,1,0,.3,0,.3-.3.4-.5,0-1,.2-1.5.3,0,0-.2,0-.2-.1-.4-.5-.7-.9-1.1-1.4-.6-.8-1.1-1.5-1.7-2.3,0,0,0,0-.1,0,0,0,0,.2,0,.3.2,1.2.3,2.5.5,3.7,0,.4,0,.4-.3.4-.4,0-.8.1-1.1.2-.3,0-.3,0-.3-.2-.1-.9-.3-1.9-.4-2.8-.2-1.4-.4-2.7-.6-4.1,0-.4,0-.4.4-.5.4,0,.8-.1,1.2-.2.2,0,.4,0,.5.2.5.6.9,1.2,1.4,1.9.5.6,1,1.3,1.4,1.9,0,0,0,0,0,0Z"/>
      <path class="st0" d="M41.1,36.4c-.2-1.2-.3-2.3-.5-3.5,0-.2,0-.3.2-.4.3,0,.5,0,.8-.1.3,0,.5-.2.8-.2.7-.1,1.4-.3,2.1-.2.9,0,1.6.7,1.9,1.6.2.6.2,1.1,0,1.7-.1.4-.4.8-.8,1-.2.1-.2.2,0,.4.6.7,1.1,1.5,1.7,2.2.1.2.1.2-.1.3-.5.1-1.1.2-1.6.3-.2,0-.2,0-.3-.1-.4-.7-.9-1.3-1.4-2-.1-.2-.6-.3-.8-.1,0,0,0,.2,0,.3,0,.6.2,1.2.2,1.9,0,0,0,.2,0,.2,0,.3,0,.3-.3.3-.4,0-.8.1-1.2.2-.3,0-.3,0-.4-.2-.1-1-.3-2-.4-3,0-.2,0-.3,0-.5h0ZM43.3,35.7c.3,0,.6,0,.8-.2.6-.2.8-1.1.4-1.6-.1-.2-.3-.3-.5-.2-.4,0-.8.1-1.2.2-.1,0-.2,0-.1.2,0,.5.1,1,.2,1.5,0,.1,0,.2.2.2,0,0,.1,0,.2,0Z"/>
      <path class="st0" d="M54,37.9c-.2,0-.4,0-.5,0-.2,0-.2,0-.3-.1-.1-.3-.2-.5-.4-.8,0-.1-.1-.2-.2-.1-.2,0-.4,0-.6.1-.2,0-.4.1-.5,0-.3,0-.6.2-1,.2,0,0-.1.1-.2.2,0,.3,0,.5-.1.8,0,.2,0,.3-.3.3-.3,0-.6,0-.9.1,0,0-.2,0-.3,0,0,0-.1,0-.2,0-.4,0-.4,0-.4-.3.2-1,.4-2.1.5-3.1.2-1.2.4-2.4.6-3.6,0-.3,0-.5.1-.8,0-.1,0-.2.2-.3.2,0,.3,0,.5-.1.4,0,.8-.1,1.2-.2.4,0,.4,0,.5.3.6,1.2,1.1,2.4,1.7,3.6.5.9.9,1.9,1.4,2.8,0,0,0,.2.1.3,0,.1,0,.2-.1.2-.4,0-.7.1-1,.2ZM51,32.8c0,0,0,0,0,.1-.1.9-.2,1.8-.4,2.6,0,.2.1.2.2.2.4,0,.7-.2,1.1-.3.1,0,.2,0,.1-.2,0-.2-.2-.4-.3-.6-.2-.6-.5-1.2-.8-1.8Z"/>
      <path class="st0" d="M37.8,35.8c-.1-.7-.2-1.5-.3-2.2,0-.3,0-.3.3-.4.4,0,.7-.2,1.1-.2.4,0,.5,0,.5.4.1.9.2,1.7.3,2.6,0,.7.2,1.4.3,2.1.1,1.1-.2,2-1.1,2.6-.6.4-1.4.6-2.1.6-.3,0-.5,0-.8-.1-.8-.2-1.2-.7-1.4-1.4-.2-.5-.3-1-.4-1.6-.2-1.3-.4-2.6-.5-3.8,0-.4,0-.4.3-.4.4,0,.8-.1,1.3-.2.1,0,.2,0,.2.1,0,.1,0,.2,0,.4.2,1.4.4,2.8.6,4.2,0,.2,0,.4.2.6.2.4.5.5,1,.4.7-.1.9-.5.8-1.3,0-.8-.2-1.5-.3-2.3Z"/>
      <path class="st0" d="M33.1,41.8c-.2,0-.4,0-.5.1-.1,0-.2,0-.3-.1-.1-.3-.3-.5-.4-.8,0-.2-.2-.2-.4-.2-.5.1-1.1.2-1.7.3-.4,0-.4,0-.5.5,0,.2,0,.5-.1.7,0,.1,0,.2-.2.2-.5,0-1,.2-1.5.3-.2,0-.3,0-.2-.2.1-.8.3-1.6.4-2.4.3-1.7.6-3.4.9-5.1,0-.3,0-.3.4-.4.5,0,1-.2,1.5-.2.4,0,.4,0,.5.3.9,1.8,1.7,3.6,2.6,5.4.2.3.4.7.5,1,.1.2,0,.3-.1.3-.3,0-.7.1-1,.2,0,0,0,0,0,0ZM30.1,36.8h0c-.1.9-.3,1.8-.4,2.8.5,0,.9-.2,1.3-.3.2,0,.2,0,.1-.3-.2-.4-.4-.9-.6-1.3-.1-.3-.3-.6-.4-1Z"/>
      <path class="st0" d="M11.2,42.1c-.2-1.2-.3-2.3-.5-3.5,0-.3,0-.3.3-.4.8-.2,1.7-.3,2.5-.5.5,0,.9-.2,1.4-.3.4,0,.4,0,.4.3,0,.3,0,.7.1,1,0,.2,0,.3-.2.3-.8.1-1.5.3-2.3.4-.2,0-.3.1-.2.3,0,.3,0,.5.1.8,0,.2,0,.2.2.2.4,0,.8-.2,1.2-.2.3,0,.6-.1,1-.2,0,0,.2,0,.2.1,0,.4.1.9.2,1.3,0,0,0,.1-.1.2,0,0-.2,0-.2,0-.6,0-1.1.2-1.7.3-.4,0-.4,0-.4.5,0,.2,0,.5,0,.7,0,.2,0,.3.3.2.4,0,.8-.2,1.3-.2.4,0,.8-.1,1.2-.2.1,0,.2,0,.2.1,0,.4.2.9.2,1.3,0,.2,0,.2-.2.3-.6.1-1.3.2-1.9.4-.6.1-1.3.2-1.9.4-.2,0-.4,0-.6,0-.2,0-.2-.1-.2-.2-.2-1.1-.3-2.3-.5-3.4,0,0,0,0,0-.1Z"/>
      <path class="st0" d="M17.3,42.5c.1,0,.2,0,.3.1.6.2,1.1.4,1.7.3.3,0,.5-.2.6-.4.3-.3.2-.7-.2-.9-.3-.1-.7-.2-1-.3-.5-.2-1-.3-1.5-.6-.5-.4-.7-.9-.7-1.4,0-1.5,1.1-2.4,2.3-2.7.7-.1,1.4,0,2,.1.2,0,.3.1.2.3,0,.4-.1.9-.2,1.3,0,.2,0,.2-.3.2-.4,0-.7-.1-1.1-.2-.3,0-.6,0-.9.2-.3.2-.4.6,0,.8.3.2.6.3.9.4.4.1.8.2,1.1.3,1.2.4,1.5,1.5,1.3,2.5-.2,1-.8,1.6-1.7,1.9-.6.2-1.2.3-1.9.2-.4,0-.8-.2-1.2-.3-.2,0-.2-.2-.2-.3,0-.4.2-.9.3-1.3,0,0,0,0,0-.1Z"/>
      <path class="st0" d="M10,36.8c0,0-.1,0-.2,0-.3,0-.4,0-.4-.3,0-.6,0-1.1,0-1.7,0-1.6.4-3.3.8-4.9.5-1.9,1.3-3.8,2.3-5.6.7-1.3,1.6-2.6,2.5-3.8,1.5-1.9,3.2-3.5,5.2-4.9.3-.2.4-.2.5.2.2.5.2.5-.2.8-1.1.8-2.1,1.7-3.1,2.7-1.1,1.2-2.1,2.4-3,3.8-.7,1.1-1.4,2.3-1.9,3.5-.8,1.9-1.4,3.8-1.7,5.8-.2,1.1-.2,2.1-.3,3.2,0,.2,0,.5,0,.7,0,.3,0,.3-.3.4,0,0,0,0-.1,0h0Z"/>
      <path class="st0" d="M59.8,27.2c-.1,0-.2,0-.3,0-.1,0-.2,0-.3-.2-.5-1.2-1-2.4-1.7-3.5-1.1-1.7-2.3-3.4-3.8-4.8-.9-.9-1.8-1.7-2.8-2.4-1.5-1-3-2-4.6-2.7-.5-.2-1-.4-1.5-.6-.1,0-.2-.1-.2-.3,0-.2,0-.4,0-.6,0-.2,0-.2.2-.1.7.3,1.3.5,2,.8.6.3,1.2.6,1.8.9,1.4.8,2.8,1.7,4.1,2.8,1.8,1.5,3.4,3.2,4.8,5.2.6.9,1.2,1.7,1.6,2.6.4.8.7,1.7,1.1,2.5,0,.2,0,.2-.1.2,0,0-.1,0-.2,0,0,0,0,0,0,0Z"/>
      <path class="st0" d="M66.3,32.5c.1.9.2,1.7.4,2.6,0,.3,0,.3-.3.4-.4,0-.9.2-1.3.3-.3,0-.3,0-.4-.2-.2-1.4-.4-2.7-.6-4.1,0-.4-.1-.8-.2-1.2,0-.3,0-.3-.3-.2-.4,0-.7.1-1.1.2-.3,0-.3,0-.4-.3,0-.4-.1-.7-.2-1.1,0-.3,0-.3.2-.3.9-.2,1.7-.3,2.6-.5.6-.1,1.3-.2,1.9-.3,0,0,0,0,.1,0q.4,0,.4.3c0,.3,0,.7.1,1,0,.3,0,.3-.3.4-.4,0-.7.1-1.1.2-.2,0-.2.1-.2.3.1.9.2,1.8.4,2.6Z"/>
      <path class="st0" d="M25.8,40.2c.1.8.2,1.7.3,2.5,0,.4,0,.4-.3.4-.4,0-.8.1-1.2.2-.3,0-.3,0-.3-.3-.2-1.7-.5-3.3-.7-5,0,0,0-.2,0-.3,0-.2-.1-.2-.3-.2-.3,0-.7.1-1,.2-.3,0-.4,0-.4-.3,0-.4-.1-.8-.2-1.2,0-.2,0-.3.2-.3,1.1-.2,2.2-.4,3.3-.6.5,0,1-.2,1.4-.3.1,0,.2,0,.2.1,0,.5.1.9.2,1.4,0,.1,0,.2-.2.2-.4,0-.8.1-1.1.2-.3,0-.4,0-.3.4.1.9.2,1.7.4,2.6Z"/>
      <path class="st0" d="M12.6,36.3s0,0-.1,0c-.2,0-.3,0-.3-.2,0-1,.1-2,.2-2.9.2-1.5.6-3,1.1-4.4.4-1.2,1-2.4,1.6-3.5.6-1.1,1.3-2.1,2.1-3.1,1-1.2,2.1-2.3,3.3-3.3.3-.2.3-.2.6,0,0,0,.2.1.3.2.2.2.2.2,0,.4-.6.5-1.1,1-1.7,1.5-.9.9-1.7,1.8-2.5,2.9-1.4,1.8-2.4,3.8-3.1,5.9-.6,1.7-.9,3.4-1.1,5.2,0,.3,0,.7,0,1.1,0,.1,0,.2-.2.3-.1,0-.3,0-.4.1,0,0,0,0,0,0Z"/>
      <path class="st0" d="M57.1,27.7s0,0-.1,0c-.4,0-.4,0-.5-.3-.6-1.3-1.3-2.6-2.2-3.8-.8-1.1-1.7-2.1-2.6-3-.4-.4-.9-.8-1.3-1.1-.6-.5-1.2-1-1.9-1.4-.8-.5-1.7-1-2.6-1.4-.3-.2-.7-.3-1-.5-.2-.1-.2-.1,0-.3.5-.6.3-.6,1-.3,1.1.4,2.1,1,3,1.7.8.6,1.6,1.1,2.4,1.8.8.7,1.5,1.4,2.2,2.2,1.6,1.8,2.9,3.8,3.9,6,0,0,0,0,0,0q.2.5-.3.5Z"/>
      <path class="st0" d="M43,57.8c-.3,0-.6,0-.9.1-.2,0-.4,0-.4-.1,0-.2.2-.2.3-.3.2-.1.4-.2.6-.3.1,0,.2-.1.2-.3,0-.3,0-.7-.1-1,0-.2-.1-.2-.3-.2-.2,0-.3,0-.5,0-.8-.2-1.2-.8-1.2-1.7,0-.5,0-1,0-1.5,0-.3,0-.4.4-.4.2,0,.5-.1.7-.1.5,0,1.1-.1,1.6-.2.2,0,.3,0,.3.2.1.4.3.7.4,1.1,0,.2.2.5.2.8.1.8-.3,1.5-1,1.8q-.5.2-.4.7c0,.2,0,.4,0,.6,0,.2,0,.2.2.3.2,0,.5,0,.7.1.1,0,.3,0,.3.2,0,.2-.1.2-.3.3-.4,0-.7.1-1.1.1,0,0,0,0,0,0Z"/>
      <path class="st0" d="M19,32.5c0,.5-.2.9-.2,1.4,0,.3,0,.5-.1.8,0,0,0,.2-.2.2-.1,0-.3,0-.4,0,0,0-.2,0-.2-.2-.3-.5-.5-1.1-.8-1.6,0,0,0-.1-.1-.2,0,.3,0,.6,0,.9,0,.4,0,.7,0,1.1,0,0,0,.2-.2.2-.2,0-.4,0-.6.1-.1,0-.1,0-.1-.2,0-.9,0-1.7,0-2.6,0-.2,0-.4,0-.6,0,0,0-.2.1-.2.3,0,.6-.1.9-.2.2,0,.2,0,.3.2.2.5.5,1,.8,1.5,0-.3.1-.7.2-1,0-.3,0-.5,0-.8,0-.2.1-.2.2-.3.3,0,.5,0,.8-.1.1,0,.2,0,.2.2.1.5.3.9.4,1.4.1.5.3,1,.4,1.5,0,.2,0,.3-.2.3-.1,0-.2,0-.3,0-.4,0-.4,0-.5-.3-.1-.6-.3-1.1-.4-1.7,0,0,0,0,0-.1Z"/>
      <path class="st0" d="M35.2,55.7c-.8.1-1.7.2-2.5.3-.3,0-.4,0-.4-.4,0-.3.1-.6.2-.8.5-.7,1.1-1.1,2-1.3.6,0,1.2-.2,1.8,0,.8.1,1.4.5,1.7,1.3,0,0,0,.1,0,.2,0,.3,0,.3-.3.4-.4,0-.8.1-1.2.2-.5,0-.9.1-1.4.2h0Z"/>
      <path class="st0" d="M45.1,30.1c-.8.2-1.9-.4-2-1.5-.1-1.1.5-2,1.6-2.1,1.1-.2,1.9.5,2,1.5.1,1.1-.6,2-1.6,2.1ZM45,29.3c.6,0,.9-.5.8-1.1,0-.6-.5-1-1-.9-.5,0-.8.5-.8,1.1,0,.6.5.9,1,.9Z"/>
      <path class="st0" d="M38.1,29.2c.2,0,.4,0,.5,0,.2,0,.2,0,.2.2,0,.4.1.8.2,1.2,0,.1-.1.3-.2.4-.2.2-.4.3-.6.4-.5.2-1,.2-1.5,0-.7-.2-1-.7-1.2-1.4-.1-.7,0-1.4.6-1.9.6-.5,1.4-.6,2.1-.3.2,0,.2.2.1.3,0,0,0,.1-.1.2,0,.1-.1.3-.2.3,0,0-.2,0-.4,0-.6,0-1,.1-1.2.6-.2.6.1,1.2.7,1.3.2,0,.5,0,.8,0,.1,0,.2-.2.2-.3,0-.1,0-.2-.2-.1,0,0,0,0,0,0-.6.1-.5,0-.6-.5,0-.2,0-.2.2-.2.2,0,.4,0,.6,0,0,0,0,0,0,0Z"/>
      <path class="st0" d="M42.9,30.4c-.3,0-.6.2-.9.2,0,0-.2,0-.3-.2-.2-.2-.3-.5-.5-.7,0-.1-.2-.2-.3-.1-.2,0-.1.2,0,.3,0,.2,0,.5.1.7,0,.2,0,.3-.2.3,0,0,0,0,0,0-.8.1-.6.2-.7-.5-.1-.9-.3-1.7-.4-2.6,0-.4,0-.4.3-.4.5,0,.9-.1,1.4-.2.5,0,1,.4,1,.9,0,0,0,0,0,0,.2.4,0,.7-.2.9-.2.2-.1.3,0,.4.2.2.4.5.7.8,0,0,0,.1.2.2ZM40.6,28.5c0,.4.2.5.6.3,0,0,0,0,0,0,.2-.1.3-.3.2-.5,0-.2-.2-.3-.4-.2,0,0-.2,0-.3,0-.1,0-.2,0-.2.2,0,0,0,.1,0,.2Z"/>
      <path class="st0" d="M35.7,58.7c-.6,0-1.1.2-1.7.2-.6,0-1-.2-1.2-.6,0,0,0-.1,0-.2,0-.3,0-.3.3-.3,1.7-.2,3.4-.5,5.2-.7.3,0,.4,0,.3.3,0,.6-.5,1-1.1,1.1-.3,0-.6,0-.9.1-.3,0-.6,0-.8.1h0Z"/>
      <path class="st0" d="M23.5,34c0,0-.2-.1-.2-.2-.2-.3-.2-.3-.6-.3-.2,0-.4,0-.6,0,0,0-.2.1-.2.2,0,.4-.3.5-.6.6-.4,0-.4,0-.4-.4.2-1,.4-2,.6-3,0-.2.1-.3.4-.3.2,0,.3,0,.5-.1.2,0,.3,0,.4.2.4.7.7,1.4,1.1,2.1.1.3.3.5.4.8.1.2,0,.2-.1.3-.2,0-.4,0-.6,0h0ZM22.4,31.7h0c0,.2,0,.4-.1.6-.1.6,0,.6.5.5,0,0,0,0,0,0,0,0,0,0,0-.1-.1-.3-.3-.6-.4-.9Z"/>
      <path class="st0" d="M31.2,30.8c0-.5-.1-1-.2-1.5,0-.3,0-.3.3-.4.6-.1,1.2-.2,1.8-.3.2,0,.3,0,.2.2,0,0,0,0,0,0,0,.6.1.5-.5.6-.2,0-.4,0-.5,0-.2,0-.2.1-.2.4,0,.2.1.2.3.2.2,0,.5,0,.7-.1.2,0,.3,0,.3.2,0,.5,0,.5-.5.6-.2,0-.3,0-.5,0-.2,0-.2.1-.2.3,0,0,0,.1,0,.2,0,.1,0,.2.2.1.3,0,.6-.1,1-.1.2,0,.3,0,.3.2,0,.6.1.5-.5.6-.4,0-.9.2-1.3.2,0,0-.1,0-.2,0-.4,0-.4,0-.4-.3,0-.5-.1-.9-.2-1.4h0Z"/>
      <path class="st0" d="M52.2,28.8c-.2,0-.4,0-.6,0-.2,0-.3,0-.3-.2,0-.2,0-.4,0-.7-.1-.7-.2-1.5-.4-2.2,0-.3,0-.3.3-.4.6,0,1.1-.2,1.7-.3.2,0,.3,0,.3.2,0,.6,0,.5-.4.6-.2,0-.4,0-.6.1-.2,0-.2.2-.2.3,0,.1,0,.3.2.3.3,0,.5-.1.8-.1.3,0,.3,0,.3.2,0,.5,0,.5-.4.5-.2,0-.4,0-.6.1-.1,0-.2,0-.2.2,0,0,0,.1,0,.2,0,.2,0,.3.3.2.3,0,.6-.1.9-.2.2,0,.3,0,.3.2,0,.5,0,.5-.5.6-.3,0-.7.1-1,.2,0,0,0,0,0,0Z"/>
      <path class="st0" d="M25.2,30.1c.2,0,.4-.1.7-.2.4,0,.9,0,1.2.2.2.2.3.4.3.6,0,0,0,.1,0,.2.2.6-.3,1.2-.8,1.3-.2,0-.4,0-.6.1-.2,0-.2.1-.2.3,0,.2,0,.4,0,.6,0,.2,0,.2-.2.3-.2,0-.3,0-.5,0-.1,0-.2,0-.2-.1-.1-1-.3-2-.4-2.9,0-.4,0-.4.3-.5,0,0,.2,0,.2,0,0,0,0,0,0,0ZM25.7,31.2s0,0,0,0c0,.1,0,.2,0,.3,0,0,.1.1.1.1.2,0,.4,0,.6-.2.2-.1.2-.5,0-.7-.2-.1-.5-.1-.7,0,0,0,0,.3,0,.4Z"/>
      <path class="st0" d="M48.8,28.4c0-.4.1-.8.2-1.2,0-.4.1-.8.2-1.3,0-.2.1-.3.3-.3.2,0,.3,0,.5,0,.2,0,.2,0,.2.2-.2.9-.3,1.7-.5,2.6,0,.2,0,.4-.1.6,0,.2-.1.3-.3.3-.2,0-.4,0-.6,0-.2,0-.4,0-.5-.2-.3-.7-.6-1.3-.9-1.9-.1-.3-.2-.5-.4-.8-.1-.2,0-.3.2-.4,0,0,0,0,0,0,.2,0,.5-.1.6,0,.2,0,.2.4.3.5.2.5.5,1.1.7,1.6,0,0,0,0,.1.2Z"/>
      <path class="st0" d="M28.2,31.4c0-.5-.1-1.1-.2-1.6,0-.1,0-.2.2-.3,0,0,.1,0,.2,0,.6,0,.6,0,.7.5,0,.6.2,1.2.3,1.9,0,.2,0,.2.3.2.3,0,.5-.1.8-.2.2,0,.3,0,.3.2,0,.5,0,.6-.5.7-.5,0-.9.2-1.4.2-.3,0-.3,0-.4-.3,0-.5-.1-.9-.2-1.4h0Z"/>
      <path class="st0" d="M35.5,57c-.7.1-1.5.2-2.2.3-.1,0-.3,0-.4,0-.2,0-.3-.1-.3-.3,0-.2,0-.3.2-.4,0,0,.2,0,.3,0,.5,0,.9-.1,1.4-.2.1,0,.3,0,.4,0,.3.2.6.2.8-.1.3-.3.6-.3,1-.1.2.1.4.1.6,0,.2-.3.6-.3.9-.3,0,0,.2.2.3.3,0,.1,0,.3-.2.4-.1,0-.2,0-.4.1-.8.1-1.5.2-2.3.3Z"/>
      <path class="st0" d="M46.9,20.2c0,0,.2.1.2.2,0,.1,0,.3-.1.4-.2.1-.4.2-.7.3-1.7.8-3.4,1.7-5.1,2.5,0,0-.2,0-.3.1-.2,0-.3,0-.4-.1,0-.1,0-.3,0-.3.2-.1.4-.2.7-.4,1.1-.5,2.1-1.1,3.2-1.6.6-.3,1.3-.6,1.9-.9.1,0,.3-.1.4-.2Z"/>
      <path class="st0" d="M27.6,25.8c-.4,0-.7-.1-1-.2-1.6-.4-3.3-.7-4.9-1.1-.2,0-.5-.1-.7-.2-.2,0-.3,0-.3-.3,0-.2.2-.3.4-.3.5,0,1,.2,1.5.3,1.5.3,3,.7,4.5,1,.2,0,.4,0,.5.1.1,0,.3.1.2.3,0,.1-.1.2-.2.3Z"/>
      <path class="st0" d="M19.8,26.6c.5,0,1,0,1.5,0,.5,0,1.1,0,1.6,0,.4,0,.8,0,1.3,0,.6,0,1.2,0,1.8,0,.2,0,.3.1.3.3,0,.2-.1.3-.3.3-.4,0-.9,0-1.3,0-.6,0-1.2,0-1.8,0-.7,0-1.4,0-2.1,0-.3,0-.7,0-1,0-.1,0-.3,0-.3-.2,0-.2,0-.3.3-.3,0,0,0,0,.1,0h0Z"/>
      <path class="st0" d="M47.6,23.6c-.4.1-.9.2-1.3.3-.7.2-1.5.4-2.2.5-.4.1-.9.2-1.3.4,0,0,0,0-.1,0-.2,0-.3,0-.3-.2,0-.2,0-.3.2-.3.5-.1.9-.3,1.4-.4.5-.1,1-.3,1.6-.4.6-.1,1.2-.3,1.8-.4.5-.1.9-.2,1.4-.3,0,0,.2,0,.2,0,0,0,.2.1.2.2,0,.1,0,.3-.2.3-.4,0-.8.2-1.2.3,0,0,0,0,0,0Z"/>
      <path class="st0" d="M42,21.1c0,0-.2,0-.2-.1,0-.1,0-.3,0-.4.2-.1.3-.3.5-.4.7-.6,1.4-1.3,2.1-1.9,0,0,.2-.1.3-.1,0,0,.2.1.2.2,0,0,0,.2-.1.3-.3.3-.7.7-1,1-.5.4-1,.9-1.5,1.3,0,0-.1,0-.2.2Z"/>
      <path class="st0" d="M22.5,21.2c.1,0,.2,0,.2,0,1,.5,1.9.9,2.9,1.4.2,0,.2.3,0,.4,0,0-.2,0-.3,0-.2,0-.5-.2-.7-.3-.7-.3-1.4-.7-2-1,0,0-.2,0-.2-.1,0,0,0-.2,0-.3,0,0,.1-.1.2-.2Z"/>
      <path class="st0" d="M31.7,25.8c0,.2-.2.5-.4.3-.5-.3-.9-.6-1.4-.9-.1,0-.1-.2,0-.3,0-.1.2-.2.3,0,.4.3.9.5,1.3.8,0,0,.1.1.2.2Z"/>
      <path class="st0" d="M36.9,25.2s0-.1,0-.2c.3-.3.6-.7.9-1,.2-.2.3-.2.4,0,.1.2.1.3,0,.5-.3.3-.6.6-.8.9,0,0-.1.1-.2.2-.2.1-.4,0-.4-.2Z"/>
    </g>
  </g>
</svg>