<?xml version="1.0" encoding="UTF-8"?>
<svg id="Layer_1" xmlns="http://www.w3.org/2000/svg" version="1.1" viewBox="0 0 72 72">
  <!-- Generator: Adobe Illustrator 29.5.1, SVG Export Plug-In . SVG Version: 2.1.0 Build 141)  -->
  <defs>
    <style>
      .st0 {
        fill: #db5d6a;
      }
    </style>
  </defs>
  <g id="sIEpXI">
    <g>
      <path class="st0" d="M29.1,4.1c.2.2.4.3.5.5.8.9,1.6,1.8,2.4,2.7.2.2.4.3.6,0,.5-.4,1.1-.8,1.6-1.1,0,0,.2-.1.3,0,0,0,.2.2.2.3,0,1,0,1.9,0,2.9,0,.9,0,1.8,0,2.8,0,.2,0,.4.1.4.2,0,.3-.1.3-.3.6-1,1.3-1.9,1.9-2.9,0,0,.2-.2.3-.2.2,0,.2.1.3.3.1.3.3.6.4.9,0,.1.1.2.3.1.3-.1.7-.2,1-.4.6-.2,1.1-.5,1.7-.8.3-.1.5,0,.5.4,0,1.1-.2,2.2-.2,3.3,0,.8,0,.7.6.9.2,0,.3,0,.5.1.3.1.3.3.1.5-1,1.1-1.9,2.2-2.9,3.4-.5.6-.9,1.1-1.4,1.7-.2.2-.1.4,0,.6.2.4.4.8.6,1.2,0,0,0,.2.1.3,0,.3,0,.4-.3.4-.7,0-1.5,0-2.2,0-1,0-1.9,0-2.9,0-.2,0-.3.1-.3.4,0,.4.2.8.3,1.2.1.5.2.9.4,1.4,0,.3.2.5.2.8,0,.1,0,.2,0,.3,0,.3,0,.4-.3.5-.2,0-.4,0-.7.1-.3,0-.4,0-.4-.3,0-.6-.2-1.2-.2-1.9,0-.4-.1-.8-.2-1.2,0-.3,0-.5-.1-.8,0-.3-.2-.4-.5-.3-.7.3-1.3.6-2,.9-.8.4-1.7.8-2.5,1.1,0,0-.1,0-.2,0-.2,0-.3,0-.3-.2,0-.2,0-.5,0-.8,0-.3,0-.6,0-.8,0-.3,0-.5-.4-.6-1-.5-2.1-1.1-3.1-1.6-.9-.5-1.8-.9-2.7-1.3-.3-.2-.4-.4,0-.7.2-.2.4-.4.6-.6.2-.1.2-.3.1-.5-.5-1-1-2-1.5-3,0-.1-.1-.3-.2-.4,0-.2,0-.3.2-.4,0,0,.2,0,.3,0,.7,0,1.4,0,2.1,0,.2,0,.4,0,.7,0,.2,0,.3,0,.3-.3,0-.3,0-.6,0-.8,0-.2,0-.3.2-.4.2,0,.3,0,.4.1,1,.6,1.9,1.3,2.9,1.9,0,0,.2.2.3,0,.1-.1,0-.3,0-.4-.6-1.3-1.1-2.5-1.7-3.8-.2-.4-.4-.9-.6-1.3-.1-.3,0-.5.4-.5.3,0,.6.1.9.2.3,0,.6.2,1,.3.3,0,.5,0,.6-.3.4-1.3.9-2.6,1.3-3.8,0-.1.1-.2.2-.3,0,0,0,0,.1,0Z"/>
      <path class="st0" d="M3.9,41.4c.3,0,.6-.2.8-.3.7-.2,1.4-.4,2.1-.5,1.1-.3,2.2,0,2.9,1,.6,1,.5,2.3-.4,3.2-.2.2-.2.2,0,.5.6.7,1.2,1.4,1.8,2,.2.2.2.3,0,.3-.5.1-1,.2-1.5.4-.2,0-.4,0-.5-.2-.4-.5-.8-1.1-1.3-1.6,0,0-.1-.2-.2-.2-.2-.2-.5-.3-.7,0,0,0,0,.2,0,.3.1.7.3,1.4.4,2,0,.4,0,.4-.3.5-.5.1-1,.2-1.4.3-.5-2.5-1-5-1.5-7.6ZM6.2,43.4c0,.2,0,.5.1.7,0,.3,0,.3.4.2.3,0,.5-.2.7-.2.7-.1,1-1.1.5-1.7-.2-.2-.4-.3-.6-.3-.4,0-.7.1-1.1.2-.2,0-.2.1-.2.3,0,.2.1.5.2.7Z"/>
      <path class="st0" d="M45.3,47.6c-.3.3-.5.6-.8.9-.4.5-1,.9-1.6,1-.9.2-1.5,0-1.9-.8,0,0,0-.1-.1-.2-.3.4-.5.7-.8,1.1-.4.4-.8.8-1.3,1-.5.3-1,.3-1.5.2-.5-.1-.8-.5-1-.9-.3-.6-.3-1.3-.2-2,.2-.9.5-1.7,1-2.4.4-.6.9-1,1.6-1.3.6-.2,1.3,0,1.5.5.2.4.3.9,0,1.4-.4,1.1-1.2,1.9-2.4,2.3-.3.1-.4.1-.3.5,0,0,0,.2,0,.3,0,.4.4.6.8.5.6-.2,1.1-.7,1.5-1.2.2-.2.3-.4.5-.7.2-.3.3-.6.3-.9,0-.9.4-1.7.8-2.4.4-.5.8-1,1.4-1.3.4-.2.7-.2,1.1-.1.5.1.9.6.9,1.3,0,.6-.3,1.2-.7,1.7-.4.6-1,1-1.7,1.2,0,0,0,0-.2,0-.3,0-.3.1-.3.4,0,.2.1.4.2.6,0,.2.3.3.5.2.4,0,.8-.2,1.1-.5.7-.6,1.2-1.3,1.6-2.1.2-.4.2-.9.3-1.3.3-1.6.7-3.3,1.2-4.8,0-.2.2-.3.4-.4.3,0,.6-.2.8-.2.3,0,.4.1.3.5-.3,1.1-.6,2.1-.9,3.2,0,0,0,.1,0,.2,0,0,.1-.1.2-.2.5-.6,1.1-.9,1.9-1,.5,0,.9.3,1,.7.1.5,0,.9-.3,1.4-.4.7-.9,1.2-1.6,1.7-.2.1-.2.2,0,.3.1.2.2.4.4.6.4.5.9.6,1.3,0,.4-.6.7-1.1,1.1-1.7.1-.2.2-.3.4-.2.2,0,.3.2.2.4-.4.9-.8,1.9-1.6,2.6-.3.3-.7.6-1.2.6-.7.1-1.1,0-1.5-.7-.2-.3-.3-.6-.5-1,0,0,0,0,0,0-.1-.1-.2-.2-.3-.3,0,.1-.1.3-.2.4-.1.6-.2,1.1-.3,1.7,0,.4-.4.7-.9.7-.3,0-.4-.1-.4-.4,0-.3,0-.6,0-.9ZM47.2,45.3s0,0,0,0c0,0,0,0,0,0,.7-.2,1.2-.7,1.6-1.3.1-.2.2-.5.3-.7,0-.1,0-.3-.1-.3,0,0-.2,0-.3,0-.1,0-.2.1-.3.2-.3.3-.5.7-.7,1-.2.3-.4.7-.6,1.1ZM42.3,46.5s0,0,0,0c.2-.1.4-.3.6-.5.4-.4.8-.8.9-1.4,0-.2,0-.4-.2-.5-.1,0-.4,0-.6.2,0,0,0,0,0,0-.4.6-.7,1.2-.8,1.9,0,0,0,.1,0,.2ZM37.6,47.7s0,0,0,0c.3-.1.7-.5,1-.9.2-.3.4-.7.4-1.1,0-.3-.3-.4-.5-.3,0,0-.2.1-.2.2-.2.3-.4.7-.5,1-.1.3-.2.7-.3,1Z"/>
      <path class="st0" d="M42.8,63.2c-.9.2-1.8.4-2.7.6-.8.1-1.6.2-2.5.3-.6,0-1.2,0-1.7,0-1,0-2,0-3-.2-1-.1-2-.3-3-.5-1.5-.4-3-.8-4.4-1.5-.8-.4-1.7-.8-2.5-1.2-.6-.3-1.2-.8-1.8-1.2-.4-.3-.9-.6-1.3-.9-.7-.6-1.4-1.2-2.1-1.8-.3-.3-.6-.6-1-.9-.1-.1-.1-.2,0-.3.1,0,.2-.2.3-.3.1-.1.3-.1.4,0,.5.5,1,1,1.5,1.5.7.6,1.4,1.2,2.2,1.7,1,.7,2,1.3,3,1.9,1.4.8,3,1.4,4.5,1.8,1.9.6,3.8.9,5.7,1,1,0,2,0,3,0,.6,0,1.2-.1,1.8-.2.6,0,1.2-.2,1.7-.3.7-.2,1.4-.4,2.2-.6.8-.3,1.6-.5,2.4-.8.8-.3,1.5-.7,2.2-1.1,2.2-1.2,4.2-2.7,6-4.4,1-1,1.9-2.1,2.7-3.2,1.9-2.6,3.1-5.4,3.9-8.4.2-.6.3-1.3.4-1.9,0-.2.1-.3.3-.3.2,0,.3-.1.5-.1.2,0,.3,0,.2.2-.2.9-.4,1.9-.6,2.8-.4,1.6-1,3.1-1.7,4.6-.4.7-.8,1.4-1.2,2.1-.8,1.5-1.9,2.8-3,4-1.6,1.8-3.4,3.3-5.4,4.5-1,.7-2.1,1.3-3.3,1.8-.8.4-1.7.7-2.5,1-.4.2-.9.3-1.3.4Z"/>
      <path class="st0" d="M30,49.9c-.3.6-.5,1.2-.7,1.8-.3.7-.7,1.4-1.2,1.9-.3.4-.7.7-1.2.8-.8.2-1.5-.3-1.6-1.1-.2-.7,0-1.5,0-2.2.3-1.4.6-2.8.8-4.2,0-.2,0-.4,0-.6,0-.3-.2-.4-.4-.4-.3,0-.6.2-.8.4-.7.5-1.1,1.2-1.1,2,0,.2.1.5.2.7.2.4.1.6-.3.8-.4.2-.7.2-1-.2-.4-.5-.4-1.1-.3-1.7.2-1,.8-1.7,1.6-2.3.5-.5,1.1-.9,1.8-1.1.3,0,.6-.2.9-.2.4,0,.7.2.9.6.2.3.2.7.2,1.1-.1.8-.3,1.7-.4,2.5-.2,1.1-.4,2.1-.5,3.2,0,.3,0,.6,0,.9,0,.3.4.5.6.2.3-.3.6-.6.8-.9.7-1.3,1.1-2.6,1.5-4,.2-.8.3-1.5.4-2.3,0-.3,0-.5.4-.6.3-.1.7-.2,1,0,0,0,.2.2.2.3,0,.3,0,.7,0,1,0,1-.2,2-.3,3,0,.4,0,.8,0,1.2,0,0,0,.2,0,.2.2.4.5.5.9.2.4-.3.6-.7.8-1.1.5-1,.8-2.1,1.1-3.2.2-1.2.3-2.4.4-3.6,0-.2,0-.5,0-.6.2-.2.5-.2.8-.3,0,0,.1,0,.2,0,.3,0,.4,0,.4.3,0,.4,0,.8,0,1.2,0,1.3-.4,2.6-.8,3.8-.3.9-.7,1.8-1.1,2.6-.3.7-.8,1.4-1.4,2-.4.4-.9.6-1.4.6-.2,0-.4,0-.6-.2-.3-.2-.5-.5-.6-.8-.2-.5-.2-1-.2-1.5,0-.1,0-.2,0-.4Z"/>
      <path class="st0" d="M58.9,42.3c0,.3-.1.6-.2.9-.4,1.7-.9,3.3-1.7,4.9-.8,1.6-1.7,3.1-2.8,4.5-.9,1.1-1.9,2.2-3,3.2-1,.9-2,1.6-3.2,2.3-1.2.7-2.5,1.4-3.8,1.9-.8.3-1.5.5-2.3.8-.8.2-1.6.4-2.5.6-.5,0-1,.1-1.5.2-.9,0-1.8.1-2.7,0-.7,0-1.5,0-2.2-.2-1-.2-2.1-.4-3.1-.6-1.5-.4-3-.9-4.4-1.6-1.2-.6-2.4-1.3-3.5-2.1-1.2-.9-2.3-1.8-3.3-2.8-.2-.2-.2-.2,0-.5q.4-.4.8,0c1.3,1.2,2.7,2.4,4.2,3.3,1.8,1.1,3.7,2,5.7,2.6,1.5.4,3,.8,4.5.9.8,0,1.6,0,2.4,0,1.3,0,2.5-.2,3.8-.4,1.1-.2,2.2-.5,3.3-.9,1.4-.6,2.8-1.2,4.1-2.1,1.4-.9,2.8-2,4-3.2.7-.7,1.3-1.4,1.9-2.2.6-.8,1.3-1.7,1.8-2.6.8-1.3,1.4-2.7,1.9-4.2.2-.8.4-1.5.6-2.3,0-.2.1-.2.3-.3.3,0,.5-.2.8-.3Z"/>
      <path class="st0" d="M13.6,53.7c-.2,0-.5,0-.7,0-.2,0-.3.1-.5.2-.8.2-1.7.4-2.5.6-.4,0-.8.2-1.2.2-.1,0-.3,0-.4-.1,0-.2.1-.3.2-.3.5-.2.9-.3,1.4-.4.5-.1.9-.3,1.4-.4.3,0,.7-.2,1-.3.5-.1,1-.3,1.5-.4.2,0,.3-.2.3-.4,0-.2-.2-.3-.4-.2-.4.1-.9.2-1.3.4,0,0-.2,0-.2,0-.7.2-1.4.4-2,.5-.1,0-.3,0-.4,0-.3,0-.7.2-1.1.3-.1,0-.2,0-.4,0-.1,0-.2,0-.3-.2,0-.2,0-.3.2-.3.3-.1.5-.2.8-.3.6-.2,1.2-.4,1.8-.6.5-.1.9-.3,1.4-.4.5-.1.9-.3,1.4-.4.2,0,.3-.2.2-.4,0-.2-.1-.3-.4-.2-.5.1-.9.3-1.4.4-.4.1-.8.2-1.2.3-.8.2-1.6.4-2.5.6,0,0-.2,0-.2,0-.2,0-.3,0-.4-.1,0-.2,0-.3.2-.4.2,0,.3-.2.5-.2.5-.2,1-.4,1.6-.6.8-.3,1.5-.5,2.3-.7.8-.2,1.5-.4,2.3-.6,1-.2,1.9,0,2.7.5.5.3,1,.4,1.5.3.6-.2,1.3-.3,1.9-.5.3,0,.5-.1.8-.2.3,0,.4,0,.5.3,0,.4,0,.5-.3.6-.5.2-1,.3-1.6.4-.1,0-.3.1-.4.2-.3,0-.5.2-.8.2-.7.2-1,.7-1.4,1.3-.5,1-1.4,1.6-2.4,2-.5.2-1.1.3-1.6.5-.6.2-1.3.3-1.9.4-.9.2-1.7.3-2.6.5,0,0-.1,0-.2,0,0,0-.2-.1-.2-.2,0,0,0-.2.1-.2.3-.1.6-.2.9-.3,1.1-.3,2.1-.6,3.2-.9.2,0,.4,0,.5-.1.3,0,.5-.1.8-.2.2,0,.3-.2.2-.4,0-.2-.2-.3-.4-.2-.2,0-.3,0-.5,0,0,0,0,0,0,0Z"/>
      <path class="st0" d="M56.6,42.3c-.8.1-1.7.2-2.5,0-.6-.1-1.1-.4-1.5-.8-.3-.3-.4-.7-.3-1.1,0,0,.1-.2.2-.2.8-.2,1.6-.4,2.5-.7.8-.2,1.6-.5,2.5-.7.4-.1.8-.2,1.2-.3.6-.2,1.2-.3,1.8-.5.5-.1,1-.3,1.6-.4,1.1-.3,2.2-.6,3.2-.9.3,0,.6-.2.9-.2.2,0,.4.1.3.3,0,.3-.2.5-.3.7-.4.7-.9,1.2-1.5,1.6-.7.6-1.5.9-2.3,1.3-.8.3-1.6.6-2.3.8-.6.2-1.3.4-2,.6-.5.1-1,.3-1.5.4Z"/>
      <path class="st0" d="M59.5,31.8c-.1-.6-.2-1.2-.4-1.7-.2-.8-.3-1.7-.5-2.5,0,0,0-.2.1-.2.4-.1.9-.3,1.3-.4.3,0,.3,0,.4.2.4,1.9.8,3.9,1.2,5.8,0,.3.1.7.2,1,0,.3,0,.4-.3.4-.5.1-1,.3-1.5.4,0,0-.2,0-.2-.1-.4-.4-.8-.9-1.2-1.3-.6-.7-1.2-1.4-1.9-2.2,0,0,0,0-.1,0,0,0,0,.2,0,.3.2,1.2.5,2.5.7,3.7,0,.4,0,.4-.3.4-.4,0-.7.2-1.1.3-.3,0-.3,0-.3-.2-.2-.9-.4-1.9-.6-2.8-.3-1.4-.5-2.7-.8-4.1,0-.4,0-.4.3-.5.4,0,.8-.2,1.2-.3.2,0,.4,0,.5.1.5.6,1,1.2,1.5,1.8.5.6,1,1.2,1.5,1.8,0,0,0,0,0,0Z"/>
      <path class="st0" d="M40.7,35.9c-.2-1.1-.5-2.3-.7-3.4,0-.2,0-.3.2-.4.3,0,.5-.1.8-.2.3,0,.5-.2.8-.3.7-.2,1.4-.4,2.1-.4.9,0,1.6.6,2,1.5.2.6.2,1.1.1,1.7-.1.4-.4.8-.7,1.1-.2.1-.2.2,0,.4.6.7,1.2,1.4,1.8,2.1.2.2.1.2,0,.3-.5.1-1,.3-1.6.4-.1,0-.2,0-.3-.1-.5-.6-1-1.3-1.5-1.9-.1-.2-.6-.2-.8,0,0,0,0,.2,0,.3.1.6.2,1.2.4,1.8,0,0,0,.2,0,.2,0,.3,0,.3-.2.4-.4,0-.8.2-1.2.3-.3,0-.3,0-.4-.2-.2-1-.4-2-.6-3,0-.2,0-.3,0-.5h0ZM42.9,35.1c.3,0,.6-.1.8-.3.6-.3.7-1.2.3-1.6-.1-.1-.3-.2-.5-.2-.4,0-.8.2-1.2.2-.1,0-.2.1-.1.2.1.5.2,1,.3,1.5,0,.1,0,.2.2.2,0,0,.1,0,.2,0Z"/>
      <path class="st0" d="M53.7,36.6c-.2,0-.4,0-.5.1-.2,0-.2,0-.3-.1-.1-.3-.3-.5-.4-.8,0-.1-.1-.2-.3-.1-.2,0-.4.1-.6.2-.2,0-.4.1-.5.1-.3,0-.6.2-.9.3,0,0-.1.1-.1.2,0,.3,0,.5,0,.8,0,.2,0,.3-.2.3-.3,0-.6.1-.9.2,0,0-.2,0-.2.1,0,0-.1,0-.2,0-.4,0-.4,0-.4-.3.1-1.1.2-2.1.3-3.2.1-1.2.2-2.4.4-3.6,0-.3,0-.5,0-.8,0-.1,0-.2.2-.3.2,0,.3-.1.5-.1.4,0,.8-.2,1.1-.3.3,0,.4,0,.5.2.7,1.2,1.3,2.3,2,3.5.5.9,1,1.8,1.6,2.7,0,0,.1.2.2.3,0,.1,0,.2-.1.3-.3,0-.7.2-1,.3ZM50.4,31.7c0,0,0,0,0,.1,0,.9-.1,1.8-.2,2.7,0,.2.1.2.2.1.4-.1.7-.2,1.1-.3.1,0,.2,0,.1-.2-.1-.2-.2-.4-.3-.6-.3-.6-.6-1.1-.9-1.7Z"/>
      <path class="st0" d="M37.4,35.5c-.1-.7-.3-1.5-.4-2.2,0-.3,0-.3.3-.4.4,0,.7-.2,1.1-.3.3-.1.5,0,.5.3.2.9.3,1.7.5,2.6.1.7.3,1.4.4,2.1.2,1.1-.1,2-1,2.7-.6.5-1.3.7-2.1.7-.3,0-.5,0-.8,0-.8-.1-1.2-.6-1.5-1.3-.2-.5-.4-1-.5-1.6-.3-1.3-.5-2.5-.8-3.8,0-.4,0-.4.3-.5.4-.1.8-.2,1.3-.3.1,0,.2,0,.2.1,0,.1,0,.2,0,.4.3,1.4.6,2.8.8,4.2,0,.2.1.4.2.6.2.4.5.5,1.1.4.7-.2.9-.6.7-1.3-.1-.8-.3-1.5-.5-2.3Z"/>
      <path class="st0" d="M33.1,41.8c-.2,0-.4,0-.5.1-.1,0-.2,0-.3-.1-.1-.3-.3-.5-.4-.8,0-.2-.2-.2-.4-.1-.5.2-1.1.3-1.6.4-.4,0-.4.1-.4.5,0,.2,0,.5,0,.7,0,.1,0,.2-.2.3-.5.1-1,.3-1.5.4-.2,0-.3,0-.2-.2,0-.8.2-1.6.3-2.4.2-1.7.4-3.4.6-5.2,0-.3,0-.3.4-.4.5-.1,1-.2,1.5-.3.4,0,.4,0,.6.3,1,1.8,2,3.5,3,5.3.2.3.4.7.6,1,.1.2.1.3-.1.3-.3,0-.7.2-1,.3,0,0,0,0,0,0ZM29.8,37h0c0,.9-.1,1.9-.2,2.8.5-.1.9-.2,1.3-.4.2,0,.2,0,.1-.3-.2-.4-.4-.8-.6-1.2-.2-.3-.3-.6-.5-.9Z"/>
      <path class="st0" d="M11.3,43.5c-.2-1.1-.5-2.3-.7-3.4,0-.3,0-.3.2-.4.8-.2,1.7-.4,2.5-.6.5-.1.9-.3,1.4-.4.4,0,.4,0,.5.3,0,.3.1.7.2,1,0,.2,0,.3-.2.4-.7.2-1.5.4-2.2.5-.2,0-.3.1-.2.3,0,.2.1.5.2.7,0,.2.1.2.3.2.4-.1.8-.2,1.1-.3.3,0,.6-.2.9-.2,0,0,.2,0,.2.1,0,.4.2.8.3,1.3,0,0,0,.2-.1.2,0,0-.2,0-.2,0-.5.1-1.1.3-1.6.4-.4,0-.4,0-.3.5,0,.2,0,.5.1.7,0,.2.1.3.3.2.4-.1.8-.2,1.2-.3.4,0,.8-.2,1.2-.3.1,0,.2,0,.2.1.1.4.2.9.3,1.3,0,.2,0,.2-.2.3-.6.2-1.2.3-1.9.5-.6.2-1.2.3-1.9.5-.2,0-.4,0-.6,0-.2,0-.2-.1-.2-.2-.2-1.1-.5-2.2-.7-3.4,0,0,0,0,0-.1Z"/>
      <path class="st0" d="M17.4,43.5c.1,0,.2,0,.3.1.6.2,1.2.3,1.8.1.3,0,.5-.2.6-.4.2-.4.1-.7-.3-.9-.3,0-.7-.2-1-.2-.5-.1-1-.2-1.5-.5-.5-.3-.7-.8-.8-1.4-.2-1.5.9-2.5,2.2-2.8.7-.2,1.4-.1,2,0,.2,0,.3.1.2.3,0,.4,0,.9-.1,1.3,0,.2,0,.2-.3.2-.4,0-.7,0-1.1-.1-.3,0-.6.1-.9.3-.3.2-.3.6,0,.8.3.2.6.2.9.3.4.1.8.2,1.2.3,1.2.3,1.6,1.4,1.4,2.4-.2,1-.7,1.6-1.6,2-.6.3-1.2.4-1.8.4-.4,0-.8-.2-1.2-.3-.2,0-.2-.1-.2-.3,0-.4.1-.9.2-1.3,0,0,0,0,0-.1Z"/>
      <path class="st0" d="M9.8,38.3c0,0-.1,0-.2,0-.3,0-.4,0-.4-.3,0-.6,0-1.1,0-1.7,0-1.6.1-3.3.5-4.9.4-2,1-3.9,1.9-5.7.7-1.4,1.4-2.7,2.3-3.9,1.4-2,3-3.7,4.8-5.2.3-.2.4-.2.5.1.3.5.3.5-.2.8-1.1.9-2,1.9-2.9,2.9-1.1,1.2-2,2.6-2.8,4-.7,1.2-1.2,2.4-1.7,3.6-.7,1.9-1.2,3.9-1.4,5.9,0,1.1,0,2.2-.1,3.2,0,.2,0,.5,0,.7,0,.3,0,.3-.3.4,0,0,0,0-.1,0h0Z"/>
      <path class="st0" d="M58.8,25.6c-.1,0-.2,0-.3,0-.1,0-.2,0-.3-.1-.6-1.2-1.2-2.3-1.9-3.3-1.2-1.7-2.5-3.2-4.1-4.5-.9-.8-1.9-1.6-3-2.2-1.5-.9-3.1-1.8-4.8-2.4-.5-.2-1-.3-1.5-.5-.1,0-.2-.1-.2-.3,0-.2,0-.4,0-.6,0-.2,0-.2.2-.2.7.2,1.4.4,2,.7.6.2,1.2.5,1.8.8,1.5.7,2.9,1.6,4.2,2.5,1.9,1.4,3.6,3,5.1,4.9.6.8,1.3,1.6,1.8,2.5.4.8.8,1.6,1.3,2.4,0,.1,0,.2-.1.2,0,0-.1,0-.2,0,0,0,0,0,0,0Z"/>
      <path class="st0" d="M65.7,30.4c.2.9.3,1.7.5,2.6,0,.3,0,.3-.3.4-.4.1-.8.2-1.3.3-.3,0-.3,0-.4-.2-.3-1.3-.5-2.7-.8-4,0-.4-.2-.8-.2-1.2,0-.3,0-.3-.3-.2-.3,0-.7.2-1,.3-.3,0-.3,0-.4-.3,0-.4-.2-.7-.2-1.1,0-.3,0-.3.2-.4.9-.2,1.7-.5,2.6-.7.6-.2,1.3-.3,1.9-.4,0,0,0,0,.1,0q.3,0,.4.3c0,.3.1.7.2,1,0,.3,0,.3-.3.4-.4,0-.7.2-1.1.3-.2,0-.2.1-.2.3.2.9.4,1.7.5,2.6Z"/>
      <path class="st0" d="M25.7,40.7c.2.8.3,1.7.5,2.5,0,.4,0,.4-.3.5-.4,0-.8.2-1.2.3-.3,0-.3,0-.4-.2-.3-1.6-.7-3.3-1-4.9,0,0,0-.2,0-.3,0-.2-.1-.2-.3-.2-.3,0-.7.2-1,.2-.3,0-.4,0-.4-.3,0-.4-.2-.8-.2-1.2,0-.2,0-.3.2-.3,1.1-.3,2.2-.5,3.3-.8.5-.1,1-.2,1.4-.4.1,0,.2,0,.2.1,0,.5.2.9.3,1.4,0,.1,0,.2-.2.2-.4,0-.7.2-1.1.3-.3,0-.4.1-.3.4.2.9.3,1.7.5,2.6Z"/>
      <path class="st0" d="M12.3,37.7s0,0-.1,0c-.2,0-.3,0-.3-.2,0-1,0-2,0-2.9,0-1.5.4-3,.9-4.5.4-1.2.8-2.4,1.4-3.6.6-1.1,1.2-2.2,1.9-3.2.9-1.3,1.9-2.5,3.1-3.6.2-.2.3-.2.6,0,0,0,.2.1.3.2.2.2.2.2,0,.4-.5.5-1.1,1-1.6,1.6-.9.9-1.6,2-2.3,3-1.2,1.9-2.1,4-2.8,6.1-.5,1.7-.7,3.5-.7,5.3,0,.3,0,.7,0,1.1,0,.1,0,.2-.2.3-.1,0-.2,0-.4.1,0,0,0,0,0,0Z"/>
      <path class="st0" d="M56.1,26.2s0,0-.1,0c-.4,0-.4,0-.5-.3-.7-1.3-1.5-2.5-2.4-3.6-.8-1-1.8-2-2.8-2.8-.4-.4-.9-.7-1.4-1.1-.7-.5-1.3-.9-2-1.3-.9-.5-1.8-.8-2.6-1.3-.3-.2-.7-.3-1-.4-.2,0-.2-.1-.1-.3.5-.7.3-.6,1-.4,1.1.4,2.1.9,3.1,1.5.8.5,1.7,1,2.5,1.6.8.6,1.6,1.3,2.3,2,1.7,1.7,3.2,3.6,4.3,5.7,0,0,0,0,0,0q.2.5-.3.6Z"/>
      <path class="st0" d="M44,57.2c-.3,0-.6.1-.9.2-.2,0-.4,0-.4-.1,0-.2.1-.3.3-.3.2-.1.4-.2.6-.3.1,0,.2-.2.1-.3,0-.3-.1-.7-.2-1,0-.2-.1-.2-.3-.2-.2,0-.3,0-.5,0-.9-.2-1.3-.7-1.3-1.6,0-.5,0-1,0-1.5,0-.3,0-.4.4-.5.2,0,.5-.1.7-.2.5-.1,1.1-.2,1.6-.3.2,0,.3,0,.3.2.2.3.3.7.5,1,.1.2.2.5.3.7.2.8-.2,1.5-.9,1.9q-.5.2-.4.7c0,.2,0,.4.1.6,0,.2.1.2.3.2.2,0,.5,0,.7,0,.1,0,.3,0,.3.2,0,.2-.1.2-.2.3-.3,0-.7.1-1.1.2,0,0,0,0,0,0Z"/>
      <path class="st0" d="M18.4,33.4c0,.5,0,.9-.1,1.4,0,.3,0,.5,0,.8,0,0,0,.2-.2.2-.1,0-.2.1-.4.1,0,0-.2,0-.2-.1-.3-.5-.6-1-.9-1.6,0,0,0-.1-.2-.2,0,.3,0,.6.1.9,0,.4,0,.7.1,1.1,0,0,0,.2-.1.2-.2,0-.4.1-.6.2-.1,0-.1,0-.1-.2,0-.9-.1-1.7-.2-2.6,0-.2,0-.4,0-.6,0,0,0-.2.1-.2.3,0,.6-.2.9-.2.2,0,.2,0,.3.2.3.5.6,1,.9,1.5,0-.3,0-.7,0-1,0-.3,0-.5,0-.8,0-.2,0-.2.2-.3.3,0,.5-.1.8-.2.1,0,.2,0,.3.2.2.5.3.9.5,1.4.2.5.3,1,.5,1.4,0,.2,0,.3-.2.4-.1,0-.2,0-.3,0-.4,0-.4,0-.5-.3-.2-.6-.3-1.1-.5-1.7,0,0,0,0,0-.1Z"/>
      <path class="st0" d="M36.1,55.6c-.8.2-1.7.3-2.5.5-.3,0-.4,0-.4-.3,0-.3,0-.6.2-.8.4-.8,1.1-1.2,1.9-1.4.6-.1,1.1-.3,1.7-.2.8,0,1.4.4,1.8,1.2,0,0,0,.1,0,.2,0,.2,0,.3-.2.4-.4,0-.8.2-1.2.2-.5,0-.9.2-1.4.3h0Z"/>
      <path class="st0" d="M44.3,29.4c-.8.3-1.9-.3-2.1-1.4-.2-1.1.4-2,1.5-2.2,1.1-.2,1.9.3,2.1,1.4.2,1.1-.4,2-1.5,2.2ZM44.1,28.6c.6-.1.8-.5.7-1.1-.1-.6-.5-.9-1.1-.8-.5.1-.8.5-.7,1.2,0,.6.5.9,1,.8Z"/>
      <path class="st0" d="M37.3,29c.2,0,.4,0,.5-.1.2,0,.2,0,.3.2,0,.4.2.8.3,1.2,0,.1,0,.3-.2.4-.2.2-.4.3-.6.4-.5.2-1,.3-1.5.2-.7-.2-1.1-.6-1.2-1.3-.2-.7,0-1.4.5-1.9.6-.5,1.3-.6,2.1-.4.2,0,.2.1.1.3,0,0,0,.1-.1.2,0,.1-.1.3-.2.3,0,0-.2,0-.4,0-.6,0-1,.2-1.2.7-.1.6.2,1.2.8,1.3.2,0,.5,0,.8-.1.1,0,.2-.2.1-.3,0-.1,0-.2-.2-.1,0,0,0,0,0,0-.6.1-.5.1-.6-.5,0-.2,0-.2.2-.3.2,0,.4,0,.6-.1,0,0,0,0,0,0Z"/>
      <path class="st0" d="M42.2,29.8c-.3,0-.6.2-.9.2,0,0-.2,0-.3-.2-.2-.2-.4-.4-.6-.7,0-.1-.2-.1-.3,0-.1,0,0,.2,0,.3,0,.2,0,.5.2.7,0,.2,0,.3-.2.3,0,0,0,0,0,0-.8.2-.6.2-.8-.5-.2-.8-.4-1.7-.6-2.5,0-.4,0-.4.3-.5.5,0,.9-.2,1.4-.3.5,0,1,.3,1.1.8,0,0,0,0,0,0,.2.4,0,.7-.2.9-.1.2-.1.3,0,.4.2.2.5.5.7.7,0,0,0,.1.2.2ZM39.7,28.1c0,.4.2.5.6.3,0,0,0,0,0,0,.2-.1.2-.3.1-.5,0-.2-.2-.2-.4-.2,0,0-.2,0-.3,0-.1,0-.2,0-.1.2,0,0,0,.1,0,.2Z"/>
      <path class="st0" d="M36.7,58.6c-.6.1-1.1.2-1.7.3-.5.1-1-.1-1.3-.6,0,0,0-.1,0-.2,0-.3,0-.3.2-.4,1.7-.3,3.4-.7,5.1-1,.3,0,.4,0,.4.3,0,.6-.4,1-1,1.2-.3,0-.6.1-.9.2-.3,0-.6.1-.8.2h0Z"/>
      <path class="st0" d="M23.1,34.7c0,0-.2-.1-.2-.2-.2-.3-.2-.3-.6-.2-.2,0-.4,0-.6.1,0,0-.2.1-.2.2,0,.4-.2.6-.6.6-.4,0-.4,0-.4-.3.1-1,.3-2,.4-3,0-.2.1-.3.3-.4.2,0,.3,0,.5-.2.2,0,.3,0,.4.2.4.7.8,1.3,1.2,2,.2.3.3.5.5.8.1.2.1.2-.1.3-.2,0-.4,0-.6.1h0ZM21.8,32.4h0c0,.2,0,.4,0,.6,0,.6,0,.6.5.4,0,0,0,0,0,0,0,0,0,0,0-.1-.2-.3-.3-.6-.5-.9Z"/>
      <path class="st0" d="M30.5,31c0-.5-.2-1-.3-1.4,0-.3,0-.3.2-.4.6-.1,1.2-.3,1.7-.4.2,0,.3,0,.2.2,0,0,0,0,0,0,.1.6.2.5-.5.6-.2,0-.4,0-.5.1-.2,0-.2.1-.2.4,0,.2.1.2.3.2.2,0,.5-.1.7-.2.2,0,.3,0,.3.2.1.5.1.5-.4.6-.2,0-.3,0-.5.1-.2,0-.2.1-.1.3,0,0,0,.1,0,.2,0,.1,0,.2.2.1.3,0,.6-.1,1-.2.2,0,.3,0,.3.2,0,.6.1.5-.4.6-.4,0-.9.2-1.3.3,0,0-.1,0-.2,0-.4,0-.4,0-.4-.3,0-.5-.2-.9-.3-1.4h0Z"/>
      <path class="st0" d="M51.3,27.6c-.2,0-.4,0-.6.1-.2,0-.3,0-.3-.2,0-.2,0-.4-.1-.6-.2-.7-.3-1.5-.5-2.2,0-.3,0-.3.3-.4.6-.1,1.1-.3,1.7-.4.2,0,.3,0,.3.2.1.6,0,.5-.4.6-.2,0-.4.1-.6.2-.2,0-.2.2-.1.3,0,.1,0,.3.3.2.3,0,.5-.1.8-.2.3,0,.3,0,.3.2,0,.5,0,.5-.4.6-.2,0-.4.1-.6.2-.1,0-.2.1-.1.2,0,0,0,.1,0,.2,0,.2,0,.3.3.2.3,0,.6-.1.9-.2.2,0,.3,0,.3.2.1.5.1.5-.4.7-.3,0-.7.2-1,.3,0,0,0,0,0,0Z"/>
      <path class="st0" d="M24.5,30.7c.2,0,.4-.1.7-.2.4-.1.9-.1,1.2.1.2.1.4.3.4.6,0,0,0,.1,0,.2.2.5-.2,1.2-.7,1.3-.2,0-.4.1-.6.2-.2,0-.2.1-.2.3,0,.2,0,.4.1.6,0,.2,0,.2-.2.3-.2,0-.3,0-.5.1-.1,0-.2,0-.2-.1-.2-1-.4-1.9-.6-2.9,0-.4,0-.4.3-.5,0,0,.2,0,.2,0,0,0,0,0,0,0ZM25,31.8s0,0,0,0c0,.1,0,.2,0,.3,0,0,.1.1.2.1.2,0,.4-.1.6-.2.2-.2.2-.5,0-.7-.2-.1-.5,0-.7,0,0,0,0,.3,0,.4Z"/>
      <path class="st0" d="M47.9,27.4c0-.4,0-.8.1-1.2,0-.4,0-.8.1-1.3,0-.2,0-.3.3-.3.2,0,.3,0,.5-.1.2,0,.2,0,.2.2-.1.9-.2,1.7-.3,2.6,0,.2,0,.4,0,.6,0,.2-.1.3-.3.3-.2,0-.4,0-.6.1-.2,0-.4,0-.5-.2-.3-.6-.7-1.3-1.1-1.9-.1-.2-.3-.5-.4-.7-.1-.2,0-.3.2-.4,0,0,0,0,0,0,.2,0,.4-.2.6,0,.2,0,.2.3.3.5.3.5.6,1.1.8,1.6,0,0,0,0,.1.2Z"/>
      <path class="st0" d="M27.6,31.8c-.1-.5-.2-1.1-.3-1.6,0-.1,0-.2.1-.3,0,0,.1,0,.2,0,.6-.1.6-.1.7.4.1.6.3,1.2.4,1.8,0,.2.1.2.3.2.3,0,.5-.1.8-.2.2,0,.3,0,.3.2.1.5,0,.6-.4.7-.5.1-.9.2-1.4.3-.3,0-.3,0-.4-.3,0-.4-.2-.9-.3-1.3h0Z"/>
      <path class="st0" d="M36.5,56.8c-.7.1-1.5.3-2.2.4-.1,0-.3,0-.4,0-.2,0-.3,0-.3-.3,0-.2,0-.3.2-.4,0,0,.2,0,.3-.1.5,0,.9-.2,1.4-.3.1,0,.3,0,.4,0,.3.2.6.1.8-.2.3-.3.6-.4,1-.2.2.1.4.1.6-.1.2-.3.6-.3.9-.3,0,0,.2.2.3.3,0,.1,0,.3-.1.4-.1,0-.2.1-.4.1-.7.2-1.5.3-2.2.5Z"/>
      <path class="st0" d="M45.5,19.4c0,0,.2.1.3.2,0,.1,0,.3,0,.4-.2.1-.4.2-.6.4-1.6,1-3.3,1.9-4.9,2.9,0,0-.2.1-.3.2-.2,0-.3,0-.4,0,0-.1,0-.3,0-.3.2-.1.4-.3.6-.4,1-.6,2.1-1.2,3.1-1.8.6-.4,1.2-.7,1.8-1.1.1,0,.2-.1.4-.2Z"/>
      <path class="st0" d="M26.6,26.2c-.4,0-.7,0-1-.1-1.7-.2-3.3-.5-5-.7-.2,0-.5,0-.7-.1-.2,0-.3,0-.3-.3,0-.2.2-.3.4-.3.5,0,1,.1,1.5.2,1.5.2,3,.5,4.5.7.2,0,.4,0,.5.1.1,0,.3,0,.2.2,0,.1-.1.2-.2.3Z"/>
      <path class="st0" d="M18.9,27.5c.5,0,1,0,1.5-.1.5,0,1.1,0,1.6-.1.4,0,.8,0,1.3,0,.6,0,1.2,0,1.8,0,.2,0,.3,0,.4.2,0,.2,0,.3-.3.3-.4,0-.9,0-1.3,0-.6,0-1.2,0-1.8.1-.7,0-1.4,0-2.1.1-.3,0-.7,0-1,0-.1,0-.3,0-.3-.2,0-.2,0-.3.2-.3,0,0,0,0,.1,0h0Z"/>
      <path class="st0" d="M46.4,22.8c-.4.1-.9.3-1.3.4-.7.2-1.4.4-2.2.7-.4.1-.9.3-1.3.4,0,0,0,0-.1,0-.2,0-.3,0-.3-.2,0-.2,0-.3.2-.3.4-.2.9-.3,1.3-.5.5-.2,1-.3,1.5-.5.6-.2,1.2-.4,1.8-.5.4-.1.9-.2,1.3-.4,0,0,.2,0,.2,0,.1,0,.2.1.3.2,0,.1,0,.3-.2.3-.4.1-.8.2-1.2.4,0,0,0,0,0,0Z"/>
      <path class="st0" d="M40.7,20.6c0,0-.2,0-.2-.1,0-.1,0-.2,0-.4.1-.2.3-.3.4-.5.6-.7,1.3-1.3,1.9-2,0,0,.2-.1.3-.1,0,0,.2,0,.2.2,0,0,0,.2,0,.3-.3.4-.6.7-1,1-.5.5-.9.9-1.4,1.4,0,0-.1.1-.2.2Z"/>
      <path class="st0" d="M21.2,22c.1,0,.2,0,.2,0,1,.4,2,.8,3,1.2.2,0,.2.3,0,.4,0,0-.2,0-.3,0-.3,0-.5-.2-.7-.3-.7-.3-1.4-.6-2.1-.8,0,0-.2,0-.2-.1,0,0-.1-.2,0-.3,0,0,.1-.2.2-.2Z"/>
      <path class="st0" d="M30.7,26c0,.2-.1.5-.3.4-.5-.3-1-.5-1.4-.8-.1,0-.1-.2,0-.3,0-.1.2-.2.3-.1.4.2.9.5,1.3.7,0,0,.1.1.2.2Z"/>
      <path class="st0" d="M35.8,25s0-.1,0-.2c.3-.4.6-.7.8-1,.2-.2.3-.2.4,0,.2.1.1.3,0,.5-.3.3-.5.6-.8.9,0,0-.1.1-.2.2-.2.1-.4,0-.4-.2Z"/>
    </g>
  </g>
</svg>