<?xml version="1.0" encoding="UTF-8"?>
<svg id="Layer_1" xmlns="http://www.w3.org/2000/svg" version="1.1" viewBox="0 0 72 72">
  <!-- Generator: Adobe Illustrator 29.5.1, SVG Export Plug-In . SVG Version: 2.1.0 Build 141)  -->
  <defs>
    <style>
      .st0 {
        fill: #7ec78e;
      }
    </style>
  </defs>
  <g id="sIEpXI">
    <g>
      <path class="st0" d="M29.4,4.2c.2.2.4.3.5.5.8.9,1.6,1.8,2.4,2.7.2.2.4.3.6,0,.5-.4,1-.8,1.6-1.1,0,0,.2-.1.3,0,0,0,.2.2.2.3,0,1,0,1.9,0,2.9,0,.9,0,1.8,0,2.8,0,.2,0,.4.1.4.2,0,.3-.1.3-.3.6-1,1.3-1.9,1.9-2.9,0-.1.2-.2.3-.2.2,0,.2.1.3.3.1.3.3.6.4.9,0,.1.1.2.3.1.3-.1.7-.2,1-.4.6-.2,1.1-.5,1.7-.8.3-.1.5,0,.5.3,0,1.1-.1,2.2-.2,3.3,0,.8,0,.7.6.9.2,0,.3,0,.5.1.3.1.3.3.1.5-.9,1.1-1.9,2.3-2.8,3.4-.5.6-.9,1.1-1.4,1.7-.2.2-.1.4,0,.6.2.4.4.8.6,1.2,0,0,0,.2.1.3,0,.3,0,.4-.3.4-.7,0-1.5,0-2.2,0-1,0-1.9,0-2.9,0-.2,0-.3.1-.3.4,0,.4.2.8.3,1.2.1.5.3.9.4,1.4,0,.3.2.5.2.8,0,.1,0,.2,0,.3,0,.3,0,.4-.3.5-.2,0-.4,0-.7.1-.3,0-.4,0-.4-.3,0-.6-.2-1.2-.2-1.9,0-.4-.1-.8-.2-1.2,0-.3,0-.5-.1-.8,0-.3-.2-.4-.5-.2-.7.3-1.3.6-2,.9-.8.4-1.7.8-2.5,1.1,0,0-.1,0-.2,0-.2,0-.3,0-.4-.2,0-.2,0-.5,0-.8,0-.3,0-.6,0-.8,0-.3,0-.5-.4-.6-1-.5-2.1-1.1-3.1-1.6-.9-.4-1.8-.9-2.7-1.3-.3-.2-.4-.4,0-.7.2-.2.4-.4.6-.6.2-.2.2-.3.1-.5-.5-1-1-2-1.5-3,0-.1-.1-.3-.2-.4,0-.2,0-.3.2-.4,0,0,.2,0,.3,0,.7,0,1.4,0,2.1,0,.2,0,.4,0,.7,0,.2,0,.3-.1.3-.3,0-.3,0-.6,0-.8,0-.2,0-.3.2-.4.2,0,.3,0,.4.1,1,.6,1.9,1.3,2.9,1.9,0,0,.2.2.3,0,.1-.1,0-.3,0-.4-.6-1.3-1.2-2.5-1.7-3.8-.2-.4-.4-.9-.6-1.3-.1-.3,0-.5.4-.5.3,0,.6.1.9.2.3,0,.6.2,1,.3.3,0,.5,0,.6-.3.4-1.3.9-2.6,1.3-3.8,0-.1.1-.2.2-.3,0,0,0,0,.1,0Z"/>
      <path class="st0" d="M4.5,41.6c.3,0,.6-.2.8-.3.7-.2,1.4-.4,2.1-.6,1.1-.3,2.2,0,2.9,1,.6,1,.5,2.3-.4,3.2-.2.2-.2.2,0,.5.6.7,1.2,1.4,1.8,2,.2.2.2.3,0,.3-.5.1-1,.2-1.5.4-.2,0-.4,0-.5-.2-.4-.5-.9-1.1-1.3-1.6,0,0-.1-.2-.2-.2-.2-.2-.5-.3-.7,0,0,0,0,.2,0,.3.1.7.3,1.4.4,2,0,.4,0,.4-.3.5-.5.1-1,.2-1.4.3-.5-2.5-1-5-1.6-7.5ZM6.8,43.6c0,.2,0,.5.2.7,0,.3,0,.3.4.2.3,0,.5-.2.7-.2.7-.1,1-1.1.5-1.7-.2-.2-.4-.3-.6-.3-.4,0-.7.1-1.1.2-.2,0-.2.1-.2.3,0,.2.1.5.2.7Z"/>
      <path class="st0" d="M45.9,47.6c-.3.3-.5.6-.8.9-.4.5-1,.9-1.6,1-.9.2-1.5,0-2-.8,0,0,0-.1-.1-.2-.3.4-.5.7-.8,1.1-.4.4-.8.8-1.3,1-.5.3-1,.3-1.5.2-.5-.1-.8-.5-1-.9-.3-.6-.3-1.3-.2-2,.2-.9.4-1.7,1-2.5.4-.6.9-1.1,1.6-1.3.6-.2,1.3,0,1.5.5.2.4.3.9,0,1.4-.4,1.1-1.2,1.9-2.3,2.3-.3.1-.4.1-.3.5,0,0,0,.2,0,.3.1.4.4.6.8.4.6-.2,1.1-.7,1.5-1.2.2-.2.3-.4.5-.7.2-.3.3-.6.3-.9,0-.9.4-1.7.8-2.4.4-.5.8-1,1.4-1.3.4-.2.7-.2,1.1-.1.5.1.9.6.9,1.2,0,.6-.3,1.2-.7,1.7-.4.6-1,1-1.7,1.3,0,0,0,0-.2,0-.3,0-.3.1-.3.4,0,.2.1.4.2.6,0,.2.3.2.5.2.4,0,.7-.2,1-.5.7-.6,1.2-1.4,1.5-2.2.2-.4.2-.9.3-1.4.3-1.6.6-3.3,1.2-4.8,0-.2.2-.4.4-.4.3,0,.6-.2.8-.2.3,0,.4.1.3.5-.3,1.1-.6,2.1-.9,3.2,0,0,0,.1,0,.2,0,0,.1-.1.2-.2.5-.6,1.1-1,1.9-1,.5,0,.9.3,1,.7.1.5,0,.9-.2,1.4-.4.7-.9,1.2-1.5,1.7-.2.1-.2.2,0,.3.1.2.2.4.4.5.4.5.9.6,1.3,0,.4-.6.7-1.1,1.1-1.7.1-.2.2-.3.4-.2.2,0,.3.2.2.4-.4.9-.8,1.9-1.5,2.6-.3.3-.7.6-1.2.7-.7.1-1.1,0-1.5-.7-.2-.3-.3-.6-.5-1,0,0,0,0,0,0-.1-.1-.2-.2-.3-.3,0,.1-.1.3-.2.4-.1.6-.2,1.1-.3,1.7,0,.4-.4.7-.9.7-.3,0-.4-.1-.4-.4,0-.3,0-.6,0-.9ZM47.8,45.2s0,0,0,0c0,0,0,0,0,0,.7-.2,1.2-.7,1.6-1.3.1-.2.2-.5.3-.7,0-.1,0-.3-.1-.3,0,0-.2,0-.3,0-.1,0-.2.1-.3.2-.3.3-.5.7-.7,1-.2.3-.4.7-.6,1.1ZM42.9,46.5s0,0,0,0c.2-.2.4-.3.6-.5.4-.4.8-.8.9-1.4,0-.2,0-.4-.2-.5-.1,0-.4,0-.6.2,0,0,0,0,0,0-.4.6-.6,1.2-.8,1.9,0,0,0,.1,0,.2ZM38.2,47.7s0,0,0,0c.3-.1.7-.5,1-.9.2-.3.4-.7.4-1.1,0-.3-.3-.4-.5-.3,0,0-.2.1-.2.2-.2.3-.4.7-.5,1.1-.1.3-.2.7-.3,1Z"/>
      <path class="st0" d="M43.5,63.2c-.9.2-1.8.4-2.7.6-.8.1-1.6.2-2.5.3-.6,0-1.2,0-1.7,0-1,0-2,0-3-.2-1-.1-2-.3-3-.5-1.5-.3-3-.8-4.4-1.5-.8-.4-1.7-.8-2.5-1.2-.6-.3-1.2-.8-1.9-1.2-.4-.3-.9-.6-1.3-.9-.7-.6-1.4-1.2-2.2-1.8-.3-.3-.6-.6-1-.9-.1-.1-.1-.2,0-.3.1,0,.2-.2.3-.3.1-.1.3-.1.4,0,.5.5,1,1,1.6,1.5.7.6,1.4,1.2,2.2,1.7,1,.7,2,1.3,3.1,1.9,1.4.8,3,1.3,4.5,1.8,1.9.6,3.8.9,5.8,1,1,0,2,0,3,0,.6,0,1.2-.1,1.8-.2.6,0,1.1-.2,1.7-.3.7-.2,1.4-.4,2.2-.6.8-.3,1.6-.5,2.4-.9.8-.3,1.5-.7,2.2-1.1,2.2-1.2,4.2-2.7,5.9-4.5,1-1,1.9-2.1,2.7-3.2,1.8-2.6,3.1-5.4,3.9-8.5.2-.6.3-1.3.4-1.9,0-.2.1-.3.3-.3.2,0,.3-.1.5-.1.2,0,.3,0,.2.2-.2.9-.3,1.9-.6,2.8-.4,1.6-1,3.1-1.7,4.6-.4.7-.8,1.4-1.2,2.2-.8,1.5-1.8,2.8-2.9,4-1.6,1.8-3.3,3.3-5.3,4.6-1,.7-2.1,1.3-3.2,1.8-.8.4-1.7.7-2.5,1-.4.2-.9.3-1.3.5Z"/>
      <path class="st0" d="M30.6,49.9c-.3.6-.5,1.2-.7,1.8-.3.7-.7,1.4-1.2,1.9-.3.4-.7.7-1.2.8-.8.2-1.5-.3-1.7-1.1-.2-.7-.1-1.5,0-2.2.3-1.4.5-2.8.8-4.2,0-.2,0-.4,0-.6,0-.3-.2-.4-.4-.4-.3,0-.6.2-.8.4-.7.5-1.1,1.2-1.1,2,0,.2.1.5.2.7.2.4.1.6-.3.8-.4.2-.7.2-1-.2-.4-.5-.4-1.1-.3-1.7.2-1,.8-1.7,1.5-2.3.5-.5,1.1-.9,1.8-1.1.3,0,.6-.2.9-.2.4,0,.7.2.9.6.2.3.2.7.2,1.1-.1.8-.3,1.7-.4,2.5-.2,1.1-.4,2.1-.5,3.2,0,.3,0,.6,0,.9,0,.3.4.5.6.2.3-.3.6-.6.8-.9.7-1.3,1.1-2.6,1.5-4,.2-.8.3-1.5.4-2.3,0-.3,0-.5.4-.6.3-.1.7-.2,1,0,0,0,.2.2.2.3,0,.3,0,.7,0,1.1,0,1-.2,2-.3,3,0,.4,0,.8,0,1.2,0,0,0,.2,0,.2.2.4.5.5.9.2.4-.3.6-.7.8-1.1.5-1,.8-2.1,1-3.2.2-1.2.3-2.4.3-3.6,0-.2,0-.5,0-.6.2-.2.5-.2.8-.3,0,0,.1,0,.2,0,.3,0,.4,0,.4.3,0,.4,0,.8,0,1.2,0,1.3-.4,2.6-.8,3.8-.3.9-.7,1.8-1,2.6-.3.8-.8,1.4-1.4,2-.4.4-.9.6-1.4.7-.2,0-.4,0-.6-.2-.3-.2-.5-.5-.6-.8-.2-.5-.2-1-.3-1.5,0-.1,0-.2,0-.4Z"/>
      <path class="st0" d="M59.4,42.1c0,.3-.1.6-.2.9-.4,1.7-.9,3.3-1.6,4.9-.8,1.6-1.7,3.1-2.8,4.5-.9,1.2-1.9,2.3-3,3.2-1,.9-2,1.6-3.1,2.3-1.2.8-2.5,1.4-3.8,1.9-.8.3-1.5.5-2.3.8-.8.2-1.6.4-2.5.6-.5,0-1,.1-1.5.2-.9,0-1.8.1-2.7.1-.7,0-1.5,0-2.2-.2-1-.2-2.1-.3-3.1-.6-1.5-.4-3-.9-4.4-1.6-1.2-.6-2.4-1.3-3.5-2-1.2-.8-2.3-1.8-3.3-2.8-.2-.2-.2-.2,0-.5q.4-.4.8,0c1.3,1.2,2.7,2.3,4.2,3.3,1.8,1.1,3.7,1.9,5.7,2.5,1.5.4,3,.7,4.6.9.8,0,1.6,0,2.4,0,1.3,0,2.5-.2,3.8-.5,1.1-.2,2.2-.5,3.3-.9,1.4-.6,2.8-1.2,4.1-2.1,1.4-.9,2.8-2,4-3.2.7-.7,1.3-1.4,1.9-2.2.6-.8,1.2-1.7,1.8-2.6.8-1.3,1.4-2.7,1.8-4.2.2-.8.4-1.5.6-2.3,0-.2.1-.2.3-.3.3,0,.5-.2.8-.3Z"/>
      <path class="st0" d="M14.2,53.8c-.2,0-.5,0-.7,0-.2,0-.3.1-.5.2-.8.2-1.7.4-2.5.6-.4,0-.8.2-1.2.2-.1,0-.3,0-.4-.1,0-.2.1-.3.2-.3.5-.2.9-.3,1.4-.5.5-.1.9-.3,1.4-.4.3,0,.7-.2,1-.3.5-.1,1-.3,1.5-.4.2,0,.3-.2.3-.4,0-.2-.2-.3-.4-.2-.4.1-.9.2-1.3.4,0,0-.2,0-.2,0-.7.2-1.4.4-2,.6-.1,0-.3,0-.4.1-.3,0-.7.2-1,.3-.1,0-.2,0-.4,0-.1,0-.2,0-.3-.2,0-.2,0-.3.2-.3.3-.1.5-.2.8-.3.6-.2,1.2-.4,1.8-.6.5-.1.9-.3,1.4-.4.5-.1.9-.3,1.4-.4.2,0,.3-.2.2-.4,0-.2-.1-.3-.4-.2-.5.1-.9.3-1.4.4-.4.1-.8.2-1.2.4-.8.2-1.6.4-2.5.6,0,0-.1,0-.2,0-.2,0-.3,0-.4-.1,0-.2,0-.3.2-.4.2,0,.3-.2.5-.2.5-.2,1-.4,1.6-.6.8-.3,1.5-.5,2.3-.8.8-.2,1.5-.4,2.3-.6,1-.3,1.9,0,2.7.4.5.3,1,.4,1.5.3.6-.2,1.3-.3,1.9-.5.3,0,.5-.1.8-.2.3,0,.4,0,.5.3,0,.4,0,.5-.3.6-.5.2-1,.3-1.6.4-.1,0-.3.1-.4.2-.3,0-.5.2-.8.2-.7.2-1,.7-1.3,1.3-.5,1-1.3,1.6-2.4,2-.5.2-1.1.3-1.6.5-.6.2-1.3.3-1.9.5-.9.2-1.7.3-2.6.5,0,0-.1,0-.2,0,0,0-.2-.1-.2-.2,0,0,0-.2.1-.2.3-.1.6-.2.8-.3,1.1-.3,2.1-.6,3.2-.9.2,0,.4,0,.5-.1.3,0,.5-.1.8-.2.2,0,.2-.2.2-.4,0-.2-.2-.3-.4-.2-.2,0-.3,0-.5.1,0,0,0,0,0,0Z"/>
      <path class="st0" d="M57.1,42.1c-.8.1-1.7.2-2.5,0-.6-.1-1.1-.4-1.5-.8-.3-.3-.4-.7-.3-1.1,0,0,.1-.2.2-.2.8-.2,1.6-.4,2.5-.7.8-.2,1.6-.5,2.5-.7.4-.1.8-.2,1.2-.3.6-.2,1.2-.4,1.8-.5.5-.1,1-.3,1.6-.4,1.1-.3,2.1-.6,3.2-.9.3,0,.6-.2.9-.2.2,0,.4.1.3.3,0,.3-.1.5-.3.7-.4.7-.9,1.2-1.5,1.6-.7.6-1.5,1-2.3,1.3-.8.3-1.6.6-2.3.9-.6.2-1.3.4-2,.6-.5.1-1,.3-1.5.4Z"/>
      <path class="st0" d="M60,31.6c-.1-.6-.2-1.2-.4-1.7-.2-.8-.3-1.7-.5-2.5,0,0,0-.2.1-.2.4-.1.9-.3,1.3-.4.3,0,.3,0,.4.2.4,1.9.8,3.9,1.2,5.8,0,.3.1.7.2,1,0,.3,0,.4-.3.4-.5.1-1,.3-1.5.4,0,0-.2,0-.2-.1-.4-.4-.8-.9-1.2-1.3-.6-.7-1.2-1.4-1.9-2.1,0,0,0,0-.1,0,0,0,0,.2,0,.3.3,1.2.5,2.5.8,3.7,0,.4,0,.4-.3.4-.4,0-.7.2-1.1.3-.3,0-.3,0-.3-.2-.2-.9-.4-1.9-.6-2.8-.3-1.4-.6-2.7-.8-4.1,0-.4,0-.4.3-.5.4,0,.8-.2,1.2-.3.2,0,.4,0,.5.1.5.6,1,1.2,1.5,1.8.5.6,1,1.2,1.6,1.8,0,0,0,0,0,0Z"/>
      <path class="st0" d="M41.3,35.9c-.2-1.1-.5-2.3-.7-3.4,0-.2,0-.3.2-.4.3,0,.5-.1.8-.2.3,0,.5-.2.8-.3.7-.2,1.4-.4,2.1-.4.9,0,1.6.6,2,1.5.2.6.3,1.1.1,1.7-.1.4-.4.8-.7,1.1-.2.1-.2.2,0,.4.6.7,1.2,1.4,1.8,2.1.2.2.2.2,0,.3-.5.1-1,.3-1.6.4-.1,0-.2,0-.3-.1-.5-.6-1-1.3-1.5-1.9-.2-.2-.6-.2-.8,0,0,0,0,.2,0,.3.1.6.3,1.2.4,1.8,0,0,0,.2,0,.2,0,.3,0,.3-.2.4-.4,0-.8.2-1.2.3-.3,0-.3,0-.4-.2-.2-1-.4-2-.6-3,0-.2,0-.3-.1-.5h0ZM43.4,35c.3,0,.6-.1.8-.3.6-.3.7-1.2.3-1.6-.1-.1-.3-.2-.5-.2-.4,0-.8.2-1.2.3-.1,0-.2.1-.1.2.1.5.2,1,.3,1.5,0,.1,0,.2.2.2,0,0,.1,0,.2,0Z"/>
      <path class="st0" d="M54.2,36.5c-.2,0-.4,0-.5.1-.2,0-.2,0-.3-.1-.1-.3-.3-.5-.4-.8,0-.1-.1-.2-.3-.1-.2,0-.4.1-.6.2-.2,0-.4.1-.5.1-.3,0-.6.2-.9.3,0,0-.1.1-.1.2,0,.3,0,.5,0,.8,0,.2,0,.3-.2.3-.3,0-.6.1-.9.2,0,0-.2,0-.2.1,0,0-.1,0-.2,0-.4.1-.4,0-.4-.3.1-1.1.2-2.1.3-3.2.1-1.2.2-2.4.3-3.6,0-.3,0-.5,0-.8,0-.1,0-.2.2-.3.2,0,.3-.1.5-.2.4-.1.8-.2,1.1-.3.3,0,.4,0,.5.2.7,1.2,1.3,2.3,2,3.5.5.9,1,1.8,1.6,2.7,0,0,.1.2.2.3,0,.1,0,.2-.1.3-.3,0-.7.2-1,.3ZM50.9,31.6c0,0,0,0,0,.1,0,.9-.1,1.8-.2,2.7,0,.2.1.2.2.1.4-.1.7-.2,1.1-.3.1,0,.2,0,.1-.2-.1-.2-.2-.4-.3-.6-.3-.6-.6-1.1-.9-1.7Z"/>
      <path class="st0" d="M37.9,35.5c-.2-.7-.3-1.5-.5-2.2,0-.3,0-.3.3-.4.4,0,.7-.2,1.1-.3.3-.1.5,0,.5.3.2.9.3,1.7.5,2.6.1.7.3,1.4.4,2.1.2,1.1,0,2-.9,2.7-.6.5-1.3.7-2.1.8-.3,0-.5,0-.8,0-.8-.1-1.2-.6-1.5-1.3-.2-.5-.4-1-.5-1.6-.3-1.3-.5-2.5-.8-3.8,0-.4,0-.4.3-.5.4-.1.8-.2,1.3-.3.1,0,.2,0,.2.1,0,.1,0,.2,0,.4.3,1.4.6,2.8.9,4.2,0,.2.1.4.2.6.2.4.5.5,1.1.4.7-.2.9-.6.7-1.3-.1-.8-.3-1.5-.5-2.3Z"/>
      <path class="st0" d="M33.6,41.8c-.2,0-.4,0-.5.2-.1,0-.2,0-.3-.1-.1-.3-.3-.5-.4-.8,0-.2-.2-.2-.4-.1-.5.2-1.1.3-1.6.4-.4,0-.4.1-.4.5,0,.2,0,.5,0,.7,0,.1,0,.2-.2.3-.5.1-1,.3-1.5.4-.2,0-.3,0-.2-.2,0-.8.2-1.6.2-2.4.2-1.7.3-3.4.5-5.2,0-.3,0-.3.4-.4.5-.1,1-.2,1.5-.3.4,0,.4,0,.6.3,1,1.7,2,3.5,3,5.2.2.3.4.7.6,1,.1.2.1.3-.1.3-.3,0-.7.2-1,.3,0,0,0,0,0,0ZM30.3,37.1h0c0,.9-.1,1.9-.2,2.8.5-.1.9-.2,1.3-.4.2,0,.2,0,.1-.3-.2-.4-.4-.8-.6-1.2-.2-.3-.3-.6-.5-.9Z"/>
      <path class="st0" d="M11.9,43.7c-.2-1.1-.5-2.3-.7-3.4,0-.3,0-.3.2-.4.8-.2,1.7-.4,2.5-.6.5-.1.9-.3,1.4-.4.4,0,.4,0,.5.3,0,.3.1.7.2,1,0,.2,0,.3-.2.4-.7.2-1.5.4-2.2.6-.2,0-.3.1-.2.3,0,.2.1.5.2.7,0,.2.1.2.3.2.4-.1.8-.2,1.1-.3.3,0,.6-.2.9-.2,0,0,.2,0,.2.1,0,.4.2.8.3,1.3,0,0,0,.2-.1.2,0,0-.2,0-.2,0-.5.1-1.1.3-1.6.4-.4,0-.4,0-.3.5,0,.2.1.5.1.7,0,.2.1.3.3.2.4-.1.8-.2,1.2-.3.4,0,.8-.2,1.2-.3.1,0,.2,0,.2.1.1.4.2.9.3,1.3,0,.1,0,.2-.2.3-.6.2-1.2.3-1.9.5-.6.2-1.2.3-1.9.5-.2,0-.4,0-.6,0-.2,0-.2,0-.2-.2-.2-1.1-.5-2.2-.7-3.4,0,0,0,0,0-.1Z"/>
      <path class="st0" d="M17.9,43.6c.1,0,.2,0,.3.1.6.2,1.2.3,1.8.1.3,0,.5-.2.6-.4.2-.4.1-.7-.3-.8-.3,0-.7-.2-1-.2-.5-.1-1-.2-1.5-.5-.5-.3-.7-.8-.8-1.4-.2-1.5.9-2.5,2.2-2.9.7-.2,1.4-.1,2,0,.2,0,.3.1.2.3,0,.4,0,.9-.1,1.3,0,.2,0,.2-.3.2-.4,0-.7,0-1.1-.1-.3,0-.6.1-.9.3-.3.2-.3.6,0,.8.3.2.6.2.9.3.4.1.8.2,1.2.3,1.2.3,1.6,1.4,1.5,2.4-.2,1-.7,1.6-1.6,2-.6.3-1.2.4-1.8.4-.4,0-.8-.2-1.2-.2-.2,0-.2-.1-.2-.3,0-.4.1-.9.2-1.3,0,0,0,0,0-.1Z"/>
      <path class="st0" d="M10.3,38.5c0,0-.1,0-.2,0-.3,0-.4,0-.4-.3,0-.6,0-1.1,0-1.7,0-1.6.1-3.3.5-4.9.4-2,1-3.9,1.9-5.7.6-1.4,1.4-2.7,2.2-4,1.4-2,3-3.7,4.8-5.3.3-.2.4-.2.5.1.3.5.3.5-.2.8-1,.9-2,1.9-2.9,2.9-1.1,1.2-2,2.6-2.8,4-.7,1.2-1.2,2.4-1.7,3.7-.7,1.9-1.2,3.9-1.3,5.9,0,1.1,0,2.2,0,3.2,0,.2,0,.5,0,.7,0,.3,0,.3-.3.4,0,0,0,0-.1,0h0Z"/>
      <path class="st0" d="M59.3,25.4c-.1,0-.2,0-.3,0-.1,0-.2,0-.3-.1-.6-1.2-1.2-2.3-2-3.3-1.2-1.7-2.5-3.2-4.1-4.5-.9-.8-1.9-1.5-3-2.2-1.5-.9-3.1-1.8-4.8-2.3-.5-.2-1-.3-1.6-.5-.1,0-.2-.1-.2-.3,0-.2,0-.4,0-.6,0-.2,0-.2.2-.2.7.2,1.4.4,2,.7.6.2,1.2.5,1.8.8,1.5.7,2.9,1.5,4.2,2.5,1.9,1.4,3.7,3,5.1,4.8.6.8,1.3,1.6,1.8,2.5.4.8.8,1.6,1.3,2.4,0,.1,0,.2-.1.2,0,0-.1,0-.2,0,0,0,0,0,0,0Z"/>
      <path class="st0" d="M66.2,30.2c.2.9.4,1.7.5,2.6,0,.3,0,.3-.2.4-.4.1-.8.2-1.3.4-.3,0-.3,0-.4-.2-.3-1.3-.6-2.7-.8-4,0-.4-.2-.8-.3-1.2,0-.3,0-.3-.3-.2-.3,0-.7.2-1,.3-.3,0-.3,0-.4-.3,0-.4-.2-.7-.2-1.1,0-.3,0-.3.2-.4.9-.2,1.7-.5,2.6-.7.6-.2,1.3-.3,1.9-.4,0,0,0,0,.1,0q.3,0,.4.3c0,.3.1.7.2,1,0,.3,0,.3-.3.4-.4,0-.7.2-1.1.3-.2,0-.2.1-.2.3.2.9.4,1.7.5,2.6Z"/>
      <path class="st0" d="M26.3,40.8c.2.8.3,1.7.5,2.5,0,.4,0,.4-.3.5-.4,0-.8.2-1.2.3-.3,0-.3,0-.4-.2-.3-1.6-.7-3.3-1-4.9,0,0,0-.2,0-.3,0-.2-.1-.2-.3-.2-.3,0-.7.2-1,.2-.3,0-.4,0-.4-.2,0-.4-.2-.8-.2-1.2,0-.2,0-.3.2-.3,1.1-.3,2.2-.6,3.3-.8.5-.1.9-.2,1.4-.4.1,0,.2,0,.2.1,0,.5.2.9.3,1.4,0,.1,0,.2-.2.2-.4,0-.7.2-1.1.3-.3,0-.4.1-.3.4.2.9.4,1.7.5,2.6Z"/>
      <path class="st0" d="M12.8,37.8s0,0-.1,0c-.2,0-.3,0-.3-.2,0-1,0-2,0-2.9,0-1.5.4-3,.8-4.5.4-1.2.8-2.4,1.4-3.6.6-1.1,1.2-2.2,1.9-3.2.9-1.3,1.9-2.5,3.1-3.6.2-.2.3-.2.6,0,0,0,.2.1.3.2.2.2.2.2,0,.4-.5.5-1.1,1.1-1.6,1.6-.9.9-1.6,2-2.3,3-1.2,1.9-2.1,4-2.7,6.2-.5,1.7-.7,3.5-.7,5.3,0,.3,0,.7,0,1.1,0,.1,0,.2-.2.3-.1,0-.2,0-.4.1,0,0,0,0,0,0Z"/>
      <path class="st0" d="M56.6,26.1s0,0-.1,0c-.4,0-.4,0-.6-.3-.7-1.3-1.5-2.5-2.4-3.6-.8-1-1.8-2-2.8-2.8-.4-.4-.9-.7-1.4-1.1-.7-.5-1.3-.9-2-1.3-.9-.5-1.8-.8-2.6-1.2-.3-.2-.7-.3-1-.4-.2,0-.2-.1-.1-.3.5-.7.2-.6,1-.4,1.1.4,2.1.8,3.1,1.4.9.5,1.7,1,2.5,1.6.8.6,1.6,1.3,2.4,2,1.7,1.7,3.2,3.5,4.3,5.7,0,0,0,0,0,0q.2.5-.3.6Z"/>
      <path class="st0" d="M44.6,57.1c-.3,0-.6.1-.9.2-.2,0-.4,0-.4-.1,0-.2.1-.3.3-.3.2-.1.4-.2.6-.3.1,0,.2-.2.1-.3,0-.3-.1-.7-.2-1,0-.2-.1-.2-.3-.2-.2,0-.3,0-.5,0-.9-.2-1.3-.7-1.4-1.6,0-.5,0-1,0-1.5,0-.3,0-.4.4-.5.2,0,.5-.1.7-.2.5-.1,1.1-.2,1.6-.3.2,0,.3,0,.3.2.2.3.3.7.5,1,.1.2.2.5.3.7.2.8-.2,1.5-.9,1.9q-.5.2-.4.8c0,.2,0,.4.1.6,0,.2.1.2.3.2.2,0,.5,0,.7,0,.1,0,.3,0,.3.2,0,.2-.1.2-.2.3-.3,0-.7.2-1.1.2,0,0,0,0,0,0Z"/>
      <path class="st0" d="M18.9,33.6c0,.5,0,.9-.1,1.4,0,.3,0,.5,0,.8,0,0,0,.2-.2.2-.1,0-.2.1-.4.1,0,0-.2,0-.2-.1-.3-.5-.6-1-.9-1.6,0,0,0-.1-.2-.2,0,.3,0,.6.1.9,0,.4,0,.7.1,1.1,0,0,0,.2-.1.2-.2,0-.4.1-.6.2-.1,0-.1,0-.1-.2,0-.9-.1-1.7-.2-2.6,0-.2,0-.4,0-.6,0,0,0-.2.1-.2.3,0,.6-.2.9-.2.2,0,.2,0,.3.2.3.5.6,1,.9,1.5,0-.3,0-.7,0-1,0-.3,0-.5,0-.8,0-.2,0-.2.2-.3.3,0,.5-.1.8-.2.1,0,.2,0,.3.2.2.5.3.9.5,1.4.2.5.3,1,.5,1.4,0,.2,0,.3-.2.4-.1,0-.2,0-.3,0-.4,0-.4,0-.5-.3-.2-.6-.3-1.1-.5-1.7,0,0,0,0,0-.1Z"/>
      <path class="st0" d="M36.8,55.6c-.8.2-1.7.3-2.5.5-.3,0-.4,0-.4-.3,0-.3,0-.6.2-.8.4-.8,1-1.2,1.9-1.4.6-.1,1.1-.3,1.7-.2.8,0,1.4.4,1.8,1.1,0,0,0,.1,0,.2,0,.2,0,.3-.2.4-.4,0-.8.2-1.2.3-.5,0-.9.2-1.4.3h0Z"/>
      <path class="st0" d="M44.8,29.4c-.8.3-1.9-.3-2.1-1.4-.2-1.1.3-2,1.5-2.2,1.1-.2,1.9.3,2.1,1.4.2,1.1-.4,2.1-1.5,2.2ZM44.6,28.5c.6-.1.8-.5.7-1.1-.1-.6-.5-.9-1.1-.8-.5.1-.8.5-.7,1.2,0,.6.5.9,1,.8Z"/>
      <path class="st0" d="M37.8,29c.2,0,.4,0,.5-.1.2,0,.2,0,.3.2,0,.4.2.8.3,1.2,0,.1,0,.3-.2.4-.2.2-.4.3-.6.4-.5.3-1,.3-1.5.2-.7-.1-1.1-.6-1.2-1.3-.2-.7,0-1.4.5-1.9.6-.5,1.3-.6,2.1-.4.2,0,.2.1.1.3,0,0,0,.1-.1.2,0,.1-.1.3-.2.3,0,0-.2,0-.4,0-.6,0-1,.2-1.1.7-.1.6.2,1.2.8,1.3.2,0,.5,0,.8-.2.1,0,.2-.2.1-.3,0-.1,0-.2-.2-.1,0,0,0,0,0,0-.6.1-.5.1-.6-.5,0-.2,0-.2.2-.3.2,0,.4,0,.6-.1,0,0,0,0,0,0Z"/>
      <path class="st0" d="M42.6,29.8c-.3,0-.6.2-.9.2,0,0-.2,0-.3-.2-.2-.2-.4-.4-.6-.7,0,0-.2-.1-.3,0-.1,0,0,.2,0,.3,0,.2,0,.5.2.7,0,.2,0,.3-.2.3,0,0,0,0,0,0-.8.2-.6.2-.8-.5-.2-.8-.4-1.7-.6-2.5,0-.4,0-.4.3-.5.5-.1.9-.2,1.4-.3.5,0,1,.3,1.1.8,0,0,0,0,0,0,.2.3,0,.7-.2.9-.1.2-.1.3,0,.4.2.2.5.5.7.7,0,0,0,.1.2.2ZM40.2,28c0,.4.3.5.6.2,0,0,0,0,0,0,.2-.1.2-.3.1-.5,0-.2-.2-.2-.4-.2,0,0-.2,0-.3,0-.1,0-.2,0-.1.2,0,0,0,.1,0,.2Z"/>
      <path class="st0" d="M37.4,58.6c-.6.1-1.1.2-1.7.3-.5.1-1-.1-1.3-.5,0,0,0-.1,0-.2,0-.3,0-.3.2-.4,1.7-.4,3.4-.7,5.1-1.1.3,0,.4,0,.4.3,0,.6-.4,1-1,1.2-.3,0-.6.1-.9.2-.3,0-.6.1-.8.2h0Z"/>
      <path class="st0" d="M23.6,34.8c0,0-.2-.1-.2-.2-.2-.3-.2-.3-.6-.2-.2,0-.4,0-.6.1,0,0-.2.1-.2.2,0,.4-.2.6-.6.6-.4,0-.4,0-.4-.3.1-1,.3-2,.4-3,0-.2.1-.3.3-.4.2,0,.3,0,.5-.2.2,0,.3,0,.4.2.4.7.8,1.3,1.2,2,.2.3.3.5.5.7.1.2.1.2,0,.3-.2,0-.4,0-.6.1h0ZM22.2,32.5h0c0,.2,0,.4,0,.6,0,.6,0,.6.5.4,0,0,0,0,0,0,0,0,0,0,0-.1-.2-.3-.3-.6-.5-.9Z"/>
      <path class="st0" d="M31,31c-.1-.5-.2-1-.3-1.4,0-.3,0-.3.2-.4.6-.1,1.2-.3,1.7-.4.2,0,.3,0,.2.2,0,0,0,0,0,0,.1.6.2.5-.5.7-.2,0-.4,0-.5.1-.2,0-.2.1-.1.4,0,.2.1.2.3.2.2,0,.5-.1.7-.2.2,0,.3,0,.3.2.1.5.1.5-.4.6-.2,0-.3,0-.5.1-.2,0-.2.1-.1.3,0,0,0,.1,0,.2,0,.1,0,.2.2.1.3,0,.6-.1,1-.2.2,0,.3,0,.3.2,0,.6.1.5-.4.6-.4,0-.9.2-1.3.3,0,0-.1,0-.2,0-.4,0-.4,0-.4-.3,0-.5-.2-.9-.3-1.4h0Z"/>
      <path class="st0" d="M51.8,27.5c-.2,0-.4,0-.6.1-.2,0-.3,0-.3-.2,0-.2,0-.4-.1-.6-.2-.7-.3-1.5-.5-2.2,0-.3,0-.3.3-.4.6-.1,1.1-.3,1.7-.4.2,0,.3,0,.3.2.1.6,0,.5-.4.6-.2,0-.4.1-.6.2-.2,0-.2.2-.1.3,0,.1,0,.3.3.2.3,0,.5-.1.8-.2.3,0,.3,0,.3.2,0,.5,0,.5-.4.6-.2,0-.4.1-.6.2-.1,0-.2.1-.1.2,0,0,0,.1,0,.2,0,.2,0,.3.3.2.3,0,.6-.2.9-.2.2,0,.3,0,.3.2.1.5.1.5-.4.7-.3,0-.7.2-1,.3,0,0,0,0,0,0Z"/>
      <path class="st0" d="M25,30.7c.2,0,.4-.1.7-.2.4-.1.9-.1,1.2.1.2.1.4.3.4.6,0,0,0,.1,0,.2.2.5-.2,1.2-.7,1.3-.2,0-.4.1-.6.2-.2,0-.2.1-.2.3,0,.2,0,.4.1.6,0,.2,0,.2-.2.3-.2,0-.3,0-.5.1-.1,0-.2,0-.2-.1-.2-1-.4-1.9-.7-2.9,0-.4,0-.4.3-.5,0,0,.2,0,.2,0,0,0,0,0,0,0ZM25.5,31.8s0,0,0,0c0,.1,0,.2,0,.3,0,0,.1.1.2.1.2,0,.4-.1.6-.2.2-.2.2-.5,0-.7-.2-.1-.5,0-.7,0,0,0,0,.3,0,.4Z"/>
      <path class="st0" d="M48.4,27.4c0-.4,0-.8,0-1.2,0-.4,0-.8,0-1.3,0-.2,0-.3.3-.3.2,0,.3,0,.5-.1.2,0,.2,0,.2.2-.1.9-.2,1.7-.3,2.6,0,.2,0,.4,0,.6,0,.2-.1.3-.3.3-.2,0-.4,0-.6.1-.2,0-.4,0-.5-.2-.4-.6-.7-1.3-1.1-1.9-.1-.2-.3-.5-.4-.7-.1-.2,0-.3.1-.4,0,0,0,0,0,0,.2,0,.4-.2.6,0,.2,0,.2.3.3.5.3.5.6,1.1.8,1.6,0,0,0,0,.1.2Z"/>
      <path class="st0" d="M28.1,31.8c-.1-.5-.2-1-.3-1.6,0-.1,0-.2.1-.3,0,0,.1,0,.2,0,.6-.1.6-.1.7.4.1.6.3,1.2.4,1.8,0,.2.1.2.3.2.3,0,.5-.1.8-.2.2,0,.3,0,.3.2.1.5,0,.6-.4.7-.5.1-.9.2-1.4.3-.3,0-.3,0-.4-.3,0-.4-.2-.9-.3-1.3h0Z"/>
      <path class="st0" d="M37.1,56.8c-.7.2-1.5.3-2.2.5-.1,0-.3,0-.4,0-.2,0-.3,0-.3-.3,0-.2,0-.3.2-.4,0,0,.2,0,.3-.1.5,0,.9-.2,1.4-.3.1,0,.3,0,.4,0,.3.2.6.1.8-.2.3-.3.6-.4,1-.2.2.1.4.1.6-.1.2-.3.6-.3.9-.3,0,0,.2.2.3.3,0,.1,0,.3-.1.4-.1,0-.2.1-.4.1-.7.2-1.5.3-2.2.5Z"/>
      <path class="st0" d="M45.9,19.4c0,0,.2,0,.3.2,0,.1,0,.3,0,.4-.2.1-.4.2-.6.4-1.6,1-3.3,1.9-4.9,2.9,0,0-.2.1-.3.2-.2,0-.3,0-.4,0,0-.1,0-.3,0-.3.2-.1.4-.3.6-.4,1-.6,2-1.2,3.1-1.8.6-.4,1.2-.7,1.8-1.1.1,0,.2-.1.4-.2Z"/>
      <path class="st0" d="M27,26.2c-.4,0-.7,0-1-.1-1.7-.2-3.3-.5-5-.7-.2,0-.5,0-.7-.1-.2,0-.3,0-.3-.3,0-.2.1-.3.4-.3.5,0,1,.1,1.5.2,1.5.2,3,.5,4.6.7.2,0,.4,0,.5,0,.1,0,.3,0,.2.2,0,.1-.1.2-.2.3Z"/>
      <path class="st0" d="M19.4,27.6c.5,0,1,0,1.5-.1.5,0,1.1,0,1.6-.1.4,0,.8,0,1.3,0,.6,0,1.2,0,1.8-.1.2,0,.3,0,.4.2,0,.2,0,.3-.3.3-.4,0-.9,0-1.3,0-.6,0-1.2,0-1.8.1-.7,0-1.4.1-2.1.2-.3,0-.7,0-1,0-.1,0-.3,0-.3-.2,0-.2,0-.3.2-.3,0,0,0,0,.1,0h0Z"/>
      <path class="st0" d="M46.9,22.7c-.4.1-.9.3-1.3.4-.7.2-1.4.5-2.2.7-.4.1-.9.3-1.3.5,0,0,0,0-.1,0-.2,0-.3,0-.3-.2,0-.2,0-.3.2-.3.4-.2.9-.3,1.3-.5.5-.2,1-.3,1.5-.5.6-.2,1.2-.4,1.8-.6.4-.1.9-.3,1.3-.4,0,0,.2,0,.2,0,.1,0,.2.1.3.2,0,.1,0,.3-.2.3-.4.1-.8.2-1.2.4,0,0,0,0,0,0Z"/>
      <path class="st0" d="M41.1,20.6c0,0-.2,0-.2-.1,0-.1,0-.2,0-.4.1-.2.3-.3.4-.5.6-.7,1.3-1.4,1.9-2,0,0,.2-.1.3-.1,0,0,.2,0,.2.2,0,0,0,.2,0,.3-.3.4-.6.7-1,1-.5.5-.9.9-1.4,1.4,0,0-.1.1-.2.2Z"/>
      <path class="st0" d="M21.6,22c.1,0,.2,0,.2,0,1,.4,2,.8,3,1.2.2,0,.2.3,0,.4,0,0-.2,0-.3,0-.3,0-.5-.2-.7-.3-.7-.3-1.4-.6-2.1-.8,0,0-.2,0-.2-.1,0,0-.1-.2,0-.3,0,0,.1-.2.2-.2Z"/>
      <path class="st0" d="M31.1,26c0,.2-.1.5-.3.4-.5-.3-1-.5-1.5-.8-.1,0-.1-.2,0-.3,0-.1.2-.2.3-.1.5.2.9.5,1.3.7,0,0,.1.1.2.2Z"/>
      <path class="st0" d="M36.2,25s0-.1,0-.2c.3-.4.6-.7.8-1,.2-.2.3-.2.4,0,.2.1.1.3,0,.5-.3.3-.5.6-.8.9,0,0-.1.1-.2.2-.2.1-.4,0-.4-.2Z"/>
    </g>
  </g>
</svg>